<?xml version="1.0" encoding="UTF-8"?>
<svg width="16px" height="16px" viewBox="0 0 16 16" version="1.1" xmlns="http://www.w3.org/2000/svg" xmlns:xlink="http://www.w3.org/1999/xlink">
    <title> 下拉箭头小</title>
    <g id="Page-1" stroke="none" stroke-width="1" fill="none" fill-rule="evenodd">
        <g id="服务运营中心-服务列表-优化" transform="translate(-545.000000, -210.000000)" fill-rule="nonzero">
            <g id="Group-20" transform="translate(210.000000, 128.000000)">
                <g id="Group-13" transform="translate(31.000000, 20.000000)">
                    <g id="Group-12-Copy-3" transform="translate(0.000000, 50.000000)">
                        <g id="Group-7" transform="translate(80.000000, 0.000000)">
                            <g id="-下拉箭头小" transform="translate(224.000000, 12.000000)">
                                <rect id="Rectangle" fill="#000000" opacity="0" x="0" y="0" width="16" height="16"></rect>
                                <path d="M7.548,11.164 L8.01933333,11.636 L14.5186667,5.13866667 C14.7770188,4.87780824 14.7770188,4.4575251 14.5186667,4.19666667 C14.3939987,4.07110557 14.2244117,4.00043517 14.047472,4.00031003 C13.8705322,4.0001849 13.7008455,4.07061536 13.576,4.196 L8.02066667,9.74933333 L2.47,4.196 C2.3453574,4.07056728 2.17583083,4.00003312 1.999,4.00003312 C1.82216917,4.00003312 1.6526426,4.07056728 1.528,4.196 C1.26883796,4.4565708 1.26824278,4.87736378 1.52666667,5.13866667 L7.522,11.1366667 L7.54866667,11.164 L7.548,11.164 Z" id="Path" fill="#333333"></path>
                            </g>
                        </g>
                    </g>
                </g>
            </g>
        </g>
    </g>
</svg>