<?xml version="1.0" encoding="UTF-8"?>
<svg width="20px" height="20px" viewBox="0 0 20 20" version="1.1" xmlns="http://www.w3.org/2000/svg" xmlns:xlink="http://www.w3.org/1999/xlink">
    <title>负载均衡</title>
    <g id="Page-1" stroke="none" stroke-width="1" fill="none" fill-rule="evenodd">
        <g id="服务运营中心-服务列表-优化" transform="translate(-30.000000, -402.000000)" fill-rule="nonzero">
            <g id="Group-11" transform="translate(0.000000, 80.000000)">
                <g id="Group-10" transform="translate(0.000000, 20.000000)">
                    <g id="Group-9-Copy-6" transform="translate(0.000000, 288.000000)">
                        <g id="负载均衡" transform="translate(30.000000, 14.000000)">
                            <rect id="Rectangle" fill="#000000" opacity="0" x="0" y="0" width="20" height="20"></rect>
                            <path d="M9.95977089,1 C11.739631,1 13.1876637,2.44803272 13.1876637,4.22789282 C13.1876637,5.08569716 12.8513201,5.8664259 12.3035873,6.44512472 L16.2455396,13.2734866 C16.4169355,13.2452475 16.5928382,13.2305576 16.7721072,13.2305576 C18.5519673,13.2305576 20,14.6785903 20,16.4584504 C20,18.2383105 18.5519912,19.6863433 16.7721072,19.6863433 C15.3557163,19.6863433 14.1494645,18.7693358 13.7158689,17.4978382 L6.28413106,17.4978382 C5.85053548,18.7693358 4.64428366,19.6863433 3.22789282,19.6863433 C1.44803272,19.6863433 -3.55271368e-15,18.2383105 -3.55271368e-15,16.4584504 C-3.55271368e-15,14.6785903 1.44803272,13.2305576 3.22789282,13.2305576 C3.38150241,13.2305576 3.53264041,13.2413432 3.68058927,13.2621968 L7.61687316,6.44609496 C7.06859775,5.86729868 6.73187807,5.08617665 6.73187807,4.22789282 C6.73187807,2.44803272 8.17991079,1 9.95977089,1 Z M3.22789282,14.9042798 C2.37092314,14.9042798 1.6737222,15.6014808 1.6737222,16.4584504 C1.6737222,17.3154201 2.37092314,18.0126211 3.22789282,18.0126211 C4.0848625,18.0126211 4.78206344,17.3154201 4.78206344,16.4584504 C4.78206344,15.6014808 4.0848625,14.9042798 3.22789282,14.9042798 Z M16.7721072,14.9042798 C15.9151375,14.9042798 15.2179366,15.6014808 15.2179366,16.4584504 C15.2179366,17.3154201 15.9151375,18.0126211 16.7721072,18.0126211 C17.6290769,18.0126211 18.3262778,17.3154201 18.3262778,16.4584504 C18.3262778,15.6014808 17.6290769,14.9042798 16.7721072,14.9042798 Z M9.95977089,7.45578564 C9.64113808,7.45578564 9.33313988,7.4093782 9.04218038,7.32296741 L5.22947526,13.9277439 C5.81772008,14.3939825 6.24028942,15.0605956 6.39307725,15.8234772 L13.6069228,15.8234772 C13.754819,15.0850197 14.1554989,14.4367652 14.7145386,13.9731374 L10.8763546,7.32326625 C10.5856914,7.40948519 10.2780362,7.45578564 9.95977089,7.45578564 Z M9.95977089,2.6737222 C9.10280121,2.6737222 8.40560027,3.37092314 8.40560027,4.22789282 C8.40560027,5.0848625 9.10280121,5.78206344 9.95977089,5.78206344 C10.8167406,5.78206344 11.5139415,5.0848625 11.5139415,4.22789282 C11.5139415,3.37092314 10.8167406,2.6737222 9.95977089,2.6737222 Z" id="Combined-Shape" fill="#333333"></path>
                        </g>
                    </g>
                </g>
            </g>
        </g>
    </g>
</svg>