<?xml version="1.0" encoding="UTF-8"?>
<svg width="16px" height="16px" viewBox="0 0 16 16" version="1.1" xmlns="http://www.w3.org/2000/svg" xmlns:xlink="http://www.w3.org/1999/xlink">
    <title>乘号,错误,失败</title>
    <g id="Page-1" stroke="none" stroke-width="1" fill="none" fill-rule="evenodd">
        <g id="服务运营中心-服务列表-优化" transform="translate(-848.000000, -390.000000)" fill-rule="nonzero">
            <g id="Group-21" transform="translate(210.000000, 278.000000)">
                <g id="Group-19" transform="translate(31.000000, 20.000000)">
                    <g id="Group-17-Copy-2" transform="translate(0.000000, 80.000000)">
                        <g id="Group-16-Copy-4" transform="translate(580.000000, 0.000000)">
                            <g id="乘号,错误,失败" transform="translate(27.000000, 12.000000)">
                                <rect id="Rectangle" fill="#000000" opacity="0" x="0" y="0" width="16" height="16"></rect>
                                <path d="M14.540625,12.41875 C14.6375,12.515625 14.6375,12.675 14.540625,12.771875 L12.7734375,14.540625 C12.6765625,14.6375 12.5171875,14.6375 12.4203125,14.540625 L8.1765625,10.2984375 C8.0796875,10.2015625 7.9203125,10.2015625 7.8234375,10.2984375 L3.58125,14.540625 C3.484375,14.6375 3.325,14.6375 3.228125,14.540625 L1.459375,12.7734375 C1.3625,12.6765625 1.3625,12.5171875 1.459375,12.4203125 L5.7015625,8.178125 C5.7984375,8.08125 5.7984375,7.921875 5.7015625,7.825 L1.459375,3.5796875 C1.3625,3.4828125 1.3625,3.3234375 1.459375,3.2265625 L3.2265625,1.459375 C3.3234375,1.3625 3.4828125,1.3625 3.5796875,1.459375 L7.821875,5.7015625 C7.91875,5.7984375 8.078125,5.7984375 8.175,5.7015625 L12.41875,1.459375 C12.515625,1.3625 12.675,1.3625 12.771875,1.459375 L14.5390625,3.2265625 C14.6359375,3.3234375 14.6359375,3.4828125 14.5390625,3.5796875 L10.2984375,7.8234375 C10.2015625,7.9203125 10.2015625,8.0796875 10.2984375,8.1765625 L14.540625,12.41875 Z" id="Path" fill="#FF4343"></path>
                            </g>
                        </g>
                    </g>
                </g>
            </g>
        </g>
    </g>
</svg>