<?xml version="1.0" encoding="UTF-8"?>
<svg width="18px" height="18px" viewBox="0 0 18 18" version="1.1" xmlns="http://www.w3.org/2000/svg" xmlns:xlink="http://www.w3.org/1999/xlink">
    <title>刷新</title>
    <g id="Page-1" stroke="none" stroke-width="1" fill="none" fill-rule="evenodd">
        <g id="服务运营中心-服务列表-优化" transform="translate(-685.000000, -209.000000)" fill="#000000" fill-rule="nonzero">
            <g id="Group-20" transform="translate(210.000000, 128.000000)">
                <g id="Group-13" transform="translate(31.000000, 20.000000)">
                    <g id="Group-15" transform="translate(350.000000, 50.000000)">
                        <g id="Group-7-Copy" transform="translate(82.000000, 0.000000)">
                            <g id="Group-14" transform="translate(12.000000, 10.000000)">
                                <g id="刷新" transform="translate(0.000000, 1.000000)">
                                    <rect id="Rectangle" opacity="0" x="0" y="0" width="18" height="18"></rect>
                                    <path d="M15.6058594,6.93984375 L12.6439453,6.93984375 C12.2660156,6.93984375 11.9601563,6.63398438 11.9601563,6.25605469 C11.9601563,5.878125 12.2660156,5.57226562 12.6439453,5.57226562 L13.8339844,5.57226562 C12.7617188,4.05703125 10.9986328,3.06738281 9,3.06738281 C5.72871094,3.06738281 3.07792969,5.71816406 3.07792969,8.98945313 C3.07792969,12.2607422 5.72871094,14.9115234 9,14.9115234 C12.2695313,14.9115234 14.9220703,12.2607422 14.9220703,8.98945312 C14.9220703,8.61152344 15.2279297,8.30566406 15.6058594,8.30566406 C15.9837891,8.30566406 16.2896484,8.61152344 16.2896484,8.98945312 C16.2896484,13.0148437 13.0253906,16.2773438 9,16.2773438 C4.97460938,16.2773438 1.71210937,13.0148437 1.71210937,8.98945312 C1.71210937,4.9640625 4.97460938,1.7015625 9,1.7015625 C11.4433594,1.7015625 13.6001953,2.90566406 14.9220703,4.75136719 L14.9220703,3.52441406 C14.9220703,3.14648438 15.2279297,2.840625 15.6058594,2.840625 C15.9837891,2.840625 16.2896484,3.14648438 16.2896484,3.52441406 L16.2896484,6.2578125 C16.2896484,6.63398437 15.9820313,6.93984375 15.6058594,6.93984375 Z" id="Path"></path>
                                </g>
                            </g>
                        </g>
                    </g>
                </g>
            </g>
        </g>
    </g>
</svg>