<?xml version="1.0" encoding="UTF-8"?>
<svg width="18px" height="18px" viewBox="0 0 18 18" version="1.1" xmlns="http://www.w3.org/2000/svg" xmlns:xlink="http://www.w3.org/1999/xlink">
    <title>查询</title>
    <g id="Page-1" stroke="none" stroke-width="1" fill="none" fill-rule="evenodd">
        <g id="服务运营中心-服务列表-优化" transform="translate(-603.000000, -209.000000)" fill-rule="nonzero">
            <g id="Group-20" transform="translate(210.000000, 128.000000)">
                <g id="Group-13" transform="translate(31.000000, 20.000000)">
                    <g id="Group-15" transform="translate(350.000000, 50.000000)">
                        <g id="Group-14" transform="translate(12.000000, 10.000000)">
                            <g id="查询" transform="translate(0.000000, 1.000000)">
                                <rect id="Rectangle" fill="#000000" opacity="0" x="0" y="0" width="18" height="18"></rect>
                                <path d="M17.7436055,16.675752 L13.7298164,12.7036055 C13.6501113,12.6225389 13.5495852,12.5650346 13.4393027,12.5374219 C14.560541,11.1949453 15.2246426,9.49248633 15.2246426,7.63806445 C15.2246426,3.43066992 11.8199355,0.0257519531 7.61254102,0.0257519531 C3.40514648,0.0257519531 0.0002109375,3.43045898 0.0002109375,7.63804687 C0.0002109375,11.8454414 3.40491797,15.250166 7.61254102,15.250166 C9.46694531,15.250166 11.1556055,14.5858359 12.484248,13.4924414 C12.5256973,13.5893496 12.5811563,13.6862578 12.664248,13.7691387 L16.6780371,17.7412852 C16.9791714,18.0320443 17.4564985,18.0320443 17.7576328,17.7412852 C18.0619453,17.4507715 18.0481465,16.9664414 17.7436055,16.6757344 L17.7436055,16.675752 Z M7.61254102,13.8660645 C4.16617383,13.8660645 1.38433008,11.0842383 1.38433008,7.63806445 C1.38433008,4.19189062 4.16636719,1.40985352 7.61254102,1.40985352 C11.0586973,1.40985352 13.840752,4.1919082 13.840752,7.63806445 C13.840752,11.0842383 11.0586973,13.8660645 7.61254102,13.8660645 Z" id="Shape" fill="#FFFFFF"></path>
                            </g>
                        </g>
                    </g>
                </g>
            </g>
        </g>
    </g>
</svg>