<?xml version="1.0" encoding="UTF-8"?>
<svg width="16px" height="16px" viewBox="0 0 16 16" version="1.1" xmlns="http://www.w3.org/2000/svg" xmlns:xlink="http://www.w3.org/1999/xlink">
    <title>对号,勾,正确,完成</title>
    <g id="Page-1" stroke="none" stroke-width="1" fill="none" fill-rule="evenodd">
        <g id="服务运营中心-服务列表-优化" transform="translate(-848.000000, -350.000000)" fill-rule="nonzero">
            <g id="Group-21" transform="translate(210.000000, 278.000000)">
                <g id="Group-19" transform="translate(31.000000, 20.000000)">
                    <g id="Group-17-Copy" transform="translate(0.000000, 40.000000)">
                        <g id="Group-16-Copy-4" transform="translate(580.000000, 0.000000)">
                            <g id="Group-18" transform="translate(20.000000, 5.000000)">
                                <g id="对号,勾,正确,完成" transform="translate(7.000000, 7.000000)">
                                    <rect id="Rectangle" fill="#000000" opacity="0" x="0" y="0" width="16" height="16"></rect>
                                    <path d="M15.8921875,5.628125 L7.35625,14.1640625 C6.965625,14.5546875 6.3328125,14.5546875 5.9421875,14.1640625 L0.1078125,8.3296875 C0.0109375,8.2328125 0.0109375,8.0734375 0.1078125,7.9765625 L1.875,6.209375 C1.971875,6.1125 2.13125,6.1125 2.228125,6.209375 L6.559375,10.540625 C6.6078125,10.5890625 6.6875,10.5890625 6.7359375,10.540625 L13.7703125,3.5078125 C13.8671875,3.4109375 14.0265625,3.4109375 14.1234375,3.5078125 L15.890625,5.275 C15.9890625,5.371875 15.9890625,5.53125 15.8921875,5.628125 Z" id="Path" fill="#5FB613"></path>
                                </g>
                            </g>
                        </g>
                    </g>
                </g>
            </g>
        </g>
    </g>
</svg>