<svg width="27" height="29" viewBox="0 0 27 29" fill="none" xmlns="http://www.w3.org/2000/svg">
<path d="M4.60354 10.7301C4.88704 9.70061 5.76454 8.97561 6.76354 8.93211H22.5855C22.5855 7.39511 21.4245 6.14811 19.9935 6.14811H10.26L9.28804 4.23411C9.09904 3.71211 8.61304 3.36411 8.08654 3.34961H3.13204C1.70104 3.36411 0.540039 4.61111 0.540039 6.14811V20.7641C0.540039 21.8371 1.12054 22.8231 2.03854 23.2726L4.60354 10.7301V10.7301ZM22.275 22.0401C22.4235 21.7501 22.5315 21.4456 22.5855 21.1266L22.275 22.0401Z" fill="#FFEEB3"/>
<path d="M24.1515 10.3242H8.05951C7.06051 10.3532 6.18301 11.0782 5.89951 12.1222L3.14551 25.6507H21.2895C22.2885 25.6072 23.166 24.8822 23.4495 23.8527L26.3115 14.1087C26.892 12.2817 25.7715 10.3242 24.1515 10.3242ZM18.819 17.4582L17.1585 19.2127L17.55 21.6922C17.5905 21.8952 17.523 22.0982 17.388 22.2287C17.3205 22.3012 17.226 22.3302 17.1315 22.3157C17.037 22.3157 16.929 22.2867 16.848 22.2287L14.796 21.0687L12.744 22.2432C12.582 22.3592 12.366 22.3592 12.2175 22.2432C12.069 22.1127 12.0015 21.9097 12.0555 21.7067L12.447 19.2272L10.7865 17.4582C10.584 17.2987 10.53 17.0087 10.6785 16.7912C10.7595 16.6607 10.8945 16.5882 11.043 16.5882L13.3515 16.2257L14.391 13.9637C14.472 13.7172 14.7285 13.5867 14.958 13.6737C15.0795 13.7172 15.1875 13.8332 15.228 13.9637L16.2675 16.2257L18.576 16.5882C18.819 16.5882 19.0215 16.8057 19.0215 17.0812C19.0215 17.2262 18.9405 17.3712 18.819 17.4582V17.4582Z" fill="#FED547"/>
</svg>
