<svg width="64" height="64" viewBox="0 0 64 64" fill="none" xmlns="http://www.w3.org/2000/svg">
<rect width="64" height="64" rx="4" fill="#4078E0" fill-opacity="0.2"/>
<path d="M45.5944 37.8337C47.6727 37.8337 49.7459 38.5202 51.3613 39.6612H51.5927V12.7335C51.5927 11.3654 50.6719 10.4517 49.283 10.4517H14.6767C13.2929 10.4517 12.3669 11.3654 12.3669 12.7335V51.5247C12.3669 52.8928 13.2878 53.8065 14.6767 53.8065H37.0598C35.9075 52.2112 35.213 50.1566 35.213 48.1019C35.213 42.3973 39.8275 37.8337 45.5944 37.8337ZM20.2121 19.579H43.2897C43.9841 19.579 44.442 20.0333 44.442 20.7199C44.442 21.4065 43.9791 21.8608 43.2897 21.8608H20.2121C19.5177 21.8608 19.0597 21.4065 19.0597 20.7199C19.0597 20.0333 19.5227 19.579 20.2121 19.579ZM20.2121 30.9882H43.2897C43.9841 30.9882 44.442 31.4425 44.442 32.1291C44.442 32.8157 43.9791 33.27 43.2897 33.27H20.2121C19.5177 33.27 19.0597 32.8157 19.0597 32.1291C19.0597 31.4476 19.5227 30.9882 20.2121 30.9882ZM32.2138 44.6792H19.9857C19.5227 44.6792 19.0648 44.2248 19.0648 43.5383C19.0648 42.8517 19.5277 42.3973 19.9857 42.3973H32.2138C32.6768 42.3973 33.1347 42.8517 33.1347 43.5383C33.1347 44.2248 32.6718 44.6792 32.2138 44.6792Z" fill="url(#paint0_linear_27_6)"/>
<path d="M46.2328 40.1342C41.5957 39.978 38.3044 43.6473 38.1784 47.5536C38.0221 52.1856 41.6965 55.482 45.623 55.608C50.1744 55.7542 53.6572 52.0949 53.6572 47.8711C53.632 43.5415 50.1996 40.2703 46.2328 40.1342V40.1342ZM50.9959 45.356L44.7863 51.5657C44.3629 51.9891 43.9899 51.9437 43.632 51.5858L40.7994 48.7532C40.7994 48.7532 40.3155 48.0425 40.9002 47.5233C41.4899 46.9991 42.0695 47.5233 42.0695 47.5233L44.1965 49.6554L49.751 44.0858C49.751 44.0858 50.3054 43.5717 50.9203 44.1463C51.5403 44.7259 50.9959 45.356 50.9959 45.356V45.356Z" fill="#3E7BE3"/>
<defs>
<linearGradient id="paint0_linear_27_6" x1="51.5495" y1="53.7459" x2="17.3983" y2="7.32498" gradientUnits="userSpaceOnUse">
<stop stop-color="#0857E3"/>
<stop offset="0.500572" stop-color="#276CE1" stop-opacity="0.94"/>
<stop offset="1" stop-color="#3E7BE3" stop-opacity="0.44"/>
</linearGradient>
</defs>
</svg>
