<svg width="64" height="64" viewBox="0 0 64 64" fill="none" xmlns="http://www.w3.org/2000/svg">
<path d="M36.1793 40.4665C36.1793 35.8606 40.1705 32.1312 45.0929 32.1312C48.0225 32.1312 50.6001 33.47 52.2239 35.51V13.7874C52.2239 11.944 51.4347 10.4512 49.4646 10.4512H15.7573C13.7872 10.4512 12.998 11.944 12.998 13.7874V50.4698C12.998 52.3132 13.7872 53.806 15.7573 53.806H30.604L38.7568 46.3208C37.1671 44.8174 36.1793 42.7508 36.1793 40.4665ZM23.6944 17.1183H41.5275C42.5097 17.1183 43.3102 17.793 43.3102 18.627C43.3102 19.4611 42.5097 20.1358 41.5275 20.1358H23.6944C22.7122 20.1358 21.9117 19.4611 21.9117 18.627C21.9117 17.7983 22.7122 17.1183 23.6944 17.1183ZM23.6944 25.4588H41.5275C42.5097 25.4588 43.3102 26.1335 43.3102 26.9676C43.3102 27.8016 42.5097 28.4763 41.5275 28.4763H23.6944C22.7122 28.4763 21.9117 27.8016 21.9117 26.9676C21.9117 26.1335 22.7122 25.4588 23.6944 25.4588ZM30.8311 36.8168H23.6944C22.7122 36.8168 21.9117 36.1421 21.9117 35.3081C21.9117 34.474 22.7122 33.7994 23.6944 33.7994H30.8254C31.8076 33.7994 32.6081 34.474 32.6081 35.3081C32.6138 36.1421 31.8133 36.8168 30.8311 36.8168Z" fill="url(#paint0_linear_22_276)"/>
<path d="M50.9083 50.3191L45.7218 44.553C47.7934 44.0439 49.3357 42.1891 49.3357 39.9562C49.3357 37.3352 47.2087 35.2082 44.5878 35.2082C41.9668 35.2082 39.8398 37.3352 39.8398 39.9562C39.8398 42.184 41.3821 44.0389 43.4537 44.553L38.2571 50.3191C36.5081 50.3191 35.0918 51.7354 35.0918 53.4844C35.0918 55.2334 36.5081 56.6498 38.2571 56.6498H50.9234C52.6724 56.6498 54.0888 55.2334 54.0888 53.4844C54.0888 51.7354 52.6724 50.3191 50.9083 50.3191Z" fill="url(#paint1_linear_22_276)"/>
<rect width="64" height="64" rx="4" fill="#F09851" fill-opacity="0.2"/>
<defs>
<linearGradient id="paint0_linear_22_276" x1="13.4194" y1="10.3221" x2="52.6452" y2="54.7092" gradientUnits="userSpaceOnUse">
<stop stop-color="#F1A05C" stop-opacity="0.39"/>
<stop offset="0.471383" stop-color="#EC7615" stop-opacity="0.695"/>
<stop offset="1" stop-color="#E77D29"/>
</linearGradient>
<linearGradient id="paint1_linear_22_276" x1="13.4194" y1="10.3221" x2="52.6452" y2="54.7092" gradientUnits="userSpaceOnUse">
<stop stop-color="#F1A05C" stop-opacity="0.39"/>
<stop offset="0.471383" stop-color="#EC7615" stop-opacity="0.695"/>
<stop offset="1" stop-color="#E77D29"/>
</linearGradient>
</defs>
</svg>
