<svg width="20" height="20" viewBox="0 0 20 20" fill="none" xmlns="http://www.w3.org/2000/svg">
<path d="M9.99936 0.938243C10.2107 0.938243 10.4025 1.05709 10.4879 1.24105L12.7508 6.08918C12.8814 6.3692 13.1385 6.56453 13.4357 6.61014L18.6412 7.40945C18.8371 7.43931 19.0042 7.57768 19.0654 7.75947C19.124 7.93587 19.0793 8.12932 18.9471 8.26498L15.1329 12.1965C14.9247 12.4114 14.8306 12.7164 14.8789 13.0159L15.7633 18.4686C15.7942 18.6585 15.7129 18.8473 15.5561 18.9591C15.461 19.0264 15.3499 19.0612 15.2348 19.0612C15.1412 19.0612 15.0486 19.0373 14.9689 18.9939L10.4308 16.4705C10.2966 16.3967 10.1479 16.3587 9.99936 16.3587C9.85127 16.3587 9.70323 16.3967 9.5685 16.4705L5.0355 18.9917C4.95269 19.0373 4.85863 19.0612 4.76401 19.0612C4.6509 19.0612 4.53778 19.0253 4.44884 18.9624C4.28687 18.8474 4.20511 18.6574 4.23647 18.4675L5.12085 13.0159C5.1692 12.7164 5.07459 12.4114 4.86634 12.1966L1.05163 8.26362C0.920521 8.12877 0.875785 7.93587 0.933877 7.76138C0.995089 7.57768 1.16218 7.43931 1.35962 7.40945L6.56363 6.61014C6.86235 6.56453 7.11894 6.36917 7.24955 6.08918L9.51088 1.24215C9.59728 1.05737 9.78958 0.938243 9.99936 0.938243ZM9.99936 0C9.43996 0 8.93091 0.324767 8.69233 0.83379L6.42995 5.68192L1.22593 6.48099C0.6912 6.56212 0.246413 6.94061 0.0746841 7.45481C-0.0970451 7.97165 0.0325196 8.54092 0.410452 8.92891L4.22413 12.8608L3.33975 18.3123C3.24976 18.8625 3.4801 19.4129 3.93208 19.7352C4.18095 19.9099 4.47195 20 4.76401 20C5.00362 20 5.24477 19.9392 5.46328 19.8198L9.99988 17.2976L14.5375 19.8198C14.7555 19.9392 14.9962 20 15.2353 20C15.5279 20 15.8188 19.9099 16.0677 19.7352C16.5197 19.4128 16.7495 18.8625 16.6601 18.3123L15.7757 12.8607L19.5899 8.92889C19.9673 8.54062 20.0973 7.97162 19.9251 7.45478C19.7528 6.94058 19.3081 6.56212 18.7733 6.48096L13.5693 5.68192L11.3069 0.83379C11.0699 0.324792 10.5598 0 9.99936 0Z" fill="#704444"/>
</svg>
