<svg width="25" height="25" viewBox="0 0 25 25" fill="none" xmlns="http://www.w3.org/2000/svg">
<path d="M20.7849 9.36328C21.8512 9.51824 22.277 10.8286 21.5054 11.5808L18.4189 14.5893C18.268 14.7364 18.1551 14.918 18.09 15.1185C18.0248 15.319 18.0094 15.5322 18.045 15.74L18.7737 19.9881C18.9558 21.0501 17.8411 21.86 16.8874 21.3586L13.0723 19.3529C12.8858 19.2548 12.6782 19.2036 12.4674 19.2036C12.2566 19.2036 12.049 19.2548 11.8624 19.3529L8.04739 21.3586C7.09363 21.86 5.97893 21.0501 6.16108 19.9881L6.8897 15.74L20.7849 9.36328V9.36328Z" fill="#FFEABB"/>
<path d="M17.4943 22.2423C17.1713 22.2423 16.8466 22.1644 16.5466 22.0066L12.7316 20.001C12.6501 19.9581 12.5595 19.9358 12.4674 19.9358C12.3754 19.9358 12.2847 19.9581 12.2033 20.001L8.38825 22.0066C7.69843 22.3693 6.87828 22.31 6.24779 21.852C5.61732 21.3939 5.30748 20.6322 5.43922 19.8641L6.16781 15.616C6.18338 15.5253 6.17665 15.4321 6.14821 15.3446C6.11978 15.2571 6.07048 15.1778 6.00458 15.1136L2.91815 12.105C2.3601 11.5611 2.16303 10.7627 2.40385 10.0216C2.64467 9.28037 3.27335 8.75034 4.04457 8.63828L8.3099 8.01848C8.40098 8.00525 8.48747 7.97007 8.56193 7.91598C8.63638 7.86188 8.69657 7.79049 8.73729 7.70796L10.6448 3.84292C10.9897 3.14412 11.6882 2.70996 12.4674 2.70996C12.4675 2.70996 12.4674 2.70996 12.4674 2.70996C13.2467 2.70996 13.9451 3.14409 14.29 3.84292L16.1975 7.70796C16.2383 7.79048 16.2984 7.86187 16.3729 7.91597C16.4473 7.97006 16.5338 8.00524 16.6249 8.01848L20.8902 8.63828C21.6615 8.75034 22.2901 9.2804 22.5309 10.0216C22.7718 10.7627 22.5747 11.5611 22.0167 12.105L18.9302 15.1136C18.8643 15.1778 18.815 15.2571 18.7866 15.3446C18.7582 15.4321 18.7514 15.5252 18.767 15.6159L19.4956 19.8641C19.6273 20.6322 19.3175 21.3939 18.687 21.852C18.3308 22.1107 17.9139 22.2423 17.4943 22.2423V22.2423ZM12.4674 4.1748C12.3613 4.1748 12.0994 4.20564 11.9584 4.49121L10.0509 8.35625C9.90508 8.65177 9.68959 8.9074 9.42299 9.1011C9.15639 9.2948 8.84669 9.42076 8.52057 9.46812L4.25526 10.0879C3.9401 10.1337 3.82982 10.3733 3.79704 10.4742C3.76425 10.5751 3.71261 10.8338 3.94066 11.0561L7.02706 14.0646C7.26306 14.2946 7.43959 14.5785 7.54142 14.892C7.64325 15.2054 7.66733 15.5388 7.61159 15.8636L6.883 20.1117C6.82916 20.4256 7.02299 20.6045 7.1088 20.6669C7.19464 20.7292 7.4247 20.8582 7.70658 20.7101L11.5216 18.7044C11.8133 18.551 12.1379 18.4709 12.4674 18.4709C12.7969 18.4709 13.1215 18.551 13.4132 18.7044L17.2282 20.7101C17.5101 20.8583 17.7402 20.7292 17.826 20.6669C17.9118 20.6045 18.1056 20.4256 18.0518 20.1117L17.3232 15.8636C17.2674 15.5388 17.2915 15.2053 17.3934 14.8919C17.4952 14.5785 17.6717 14.2946 17.9077 14.0646L20.9941 11.0561C21.2222 10.8338 21.1705 10.5751 21.1378 10.4742C21.105 10.3733 20.9947 10.1337 20.6795 10.0879L16.4142 9.46809C16.0881 9.42073 15.7784 9.29478 15.5118 9.10108C15.2452 8.90739 15.0297 8.65177 14.8839 8.35625L12.9764 4.49121C12.8355 4.20564 12.5735 4.1748 12.4674 4.1748Z" fill="#F9C73D"/>
</svg>
