<svg width="64" height="64" viewBox="0 0 64 64" fill="none" xmlns="http://www.w3.org/2000/svg">
<rect width="64" height="64" rx="4" fill="#A19DEF" fill-opacity="0.4"/>
<path d="M51.5927 31.5C49.9774 30.3591 51.5 31.5014 51.5927 31.5V12.7335C51.5927 11.3654 50.6719 10.4517 49.283 10.4517H14.6767C13.2929 10.4517 12.3669 11.3654 12.3669 12.7335V51.5247C12.3669 52.8928 13.2878 53.8065 14.6767 53.8065L29.5 53.5C35.3291 47.6046 47.5 35.5 51.5927 31.5ZM20.2121 19.579H43.2897C43.9841 19.579 44.442 20.0333 44.442 20.7199C44.442 21.4065 43.9791 21.8608 43.2897 21.8608H20.2121C19.5177 21.8608 19.0597 21.4065 19.0597 20.7199C19.0597 20.0333 19.5227 19.579 20.2121 19.579ZM20.2121 30.9882H43.2897C43.9841 30.9882 44.442 31.4425 44.442 32.1291C44.442 32.8157 43.9791 33.27 43.2897 33.27H20.2121C19.5177 33.27 19.0597 32.8157 19.0597 32.1291C19.0597 31.4476 19.5227 30.9882 20.2121 30.9882ZM32.2138 44.6792H19.9857C19.5227 44.6792 19.0648 44.2248 19.0648 43.5382C19.0648 42.8517 19.5277 42.3973 19.9857 42.3973H32.2138C32.6768 42.3973 33.1347 42.8517 33.1347 43.5382C33.1347 44.2248 32.6718 44.6792 32.2138 44.6792Z" fill="url(#paint0_linear_24_796)"/>
<path d="M54.7953 37.5034C54.8559 37.6406 54.9052 37.8005 54.9431 37.9833C54.981 38.1662 55 38.3566 55 38.5546C55 38.7527 54.9621 38.9507 54.8863 39.1488C54.8104 39.3469 54.6891 39.5373 54.5223 39.7201C54.3403 39.9029 54.1773 40.0629 54.0332 40.2C53.8892 40.3371 53.7641 40.459 53.6579 40.5656C53.5366 40.6875 53.4229 40.7942 53.3167 40.8856L49.063 36.6122C49.245 36.4446 49.4611 36.2428 49.7113 36.0066C49.9615 35.7705 50.17 35.5839 50.3368 35.4468C50.5491 35.2792 50.769 35.1611 50.9965 35.0926C51.224 35.024 51.4477 34.9935 51.6675 35.0011C51.8874 35.0088 52.0997 35.043 52.3045 35.104C52.5092 35.1649 52.6874 35.2335 52.839 35.3096C53.1575 35.4772 53.5101 35.7705 53.8968 36.1895C54.2835 36.6084 54.583 37.0464 54.7953 37.5034ZM37.0752 48.6553C37.1662 48.5639 37.3785 48.3468 37.7122 48.004C38.0458 47.6612 38.4628 47.2384 38.9633 46.7357L40.6238 45.0675L42.4663 43.2165L47.357 38.3033L51.6107 42.5995L46.72 47.5127L44.9003 49.3637C44.2937 49.9578 43.7477 50.5025 43.2625 50.9976C42.7772 51.4927 42.3753 51.9003 42.0569 52.2202C41.7384 52.5401 41.5488 52.723 41.4882 52.7687C41.3365 52.9058 41.1621 53.0505 40.965 53.2028C40.7679 53.3552 40.5631 53.4771 40.3508 53.5685C40.1385 53.6751 39.8276 53.8046 39.4182 53.957C39.0087 54.1093 38.5803 54.2579 38.133 54.4026C37.6856 54.5473 37.261 54.673 36.8591 54.7796C36.4573 54.8863 36.1578 54.9548 35.9606 54.9853C35.5512 55.031 35.2782 54.9701 35.1417 54.8025C35.0052 54.6349 34.9673 54.3531 35.028 53.957C35.0583 53.7437 35.1304 53.4352 35.2441 53.0315C35.3578 52.6277 35.4791 52.2088 35.608 51.7746C35.7369 51.3404 35.8621 50.9405 35.9834 50.5749C36.1047 50.2092 36.2033 49.9578 36.2791 49.8207C36.3701 49.6074 36.4724 49.4132 36.5862 49.238C36.6999 49.0628 36.8629 48.8686 37.0752 48.6553Z" fill="url(#paint1_linear_24_796)"/>
<defs>
<linearGradient id="paint0_linear_24_796" x1="51.5495" y1="53.7459" x2="17.3983" y2="7.32498" gradientUnits="userSpaceOnUse">
<stop stop-color="#605DB0"/>
<stop offset="0.500572" stop-color="#9391DD"/>
<stop offset="1" stop-color="#C0BEF9"/>
</linearGradient>
<linearGradient id="paint1_linear_24_796" x1="54.9779" y1="54.9721" x2="39.7543" y2="32.1006" gradientUnits="userSpaceOnUse">
<stop stop-color="#605DB0"/>
<stop offset="0.500572" stop-color="#9391DD"/>
<stop offset="1" stop-color="#C0BEF9"/>
</linearGradient>
</defs>
</svg>
