<svg width="64" height="64" viewBox="0 0 64 64" fill="none" xmlns="http://www.w3.org/2000/svg">
<rect width="64" height="64" rx="4" fill="#44B2B6" fill-opacity="0.2"/>
<path d="M44.2313 37.3806C46.307 37.3806 48.3827 38.0658 50.0017 39.208H50.23V12.2843C50.23 10.9137 49.3063 10 47.9208 10H13.3092C11.9237 10 11 10.9137 11 12.2843V51.0657C11 52.4363 11.9237 53.35 13.3092 53.35H35.6952C34.5432 51.751 33.8478 49.7003 33.8478 47.6444C33.8478 41.944 38.461 37.3806 44.2313 37.3806ZM18.5658 19.2385H42.5449C42.5552 19.2385 42.5656 19.2385 42.576 19.2436C42.6071 19.2436 42.6435 19.2385 42.6746 19.2385C43.4893 19.2385 44.1535 19.8832 44.1535 20.6852C44.1535 21.4822 43.4945 22.1319 42.6746 22.1319C42.6435 22.1319 42.6071 22.1319 42.576 22.1268C42.5656 22.1268 42.5552 22.1319 42.5449 22.1319H18.5658C17.7511 22.1319 17.0869 21.4872 17.0869 20.6852C17.0869 19.8832 17.7511 19.2385 18.5658 19.2385ZM18.5658 29.8984H42.5449C42.5552 29.8984 42.5656 29.8984 42.576 29.9034C42.6071 29.9034 42.6435 29.8984 42.6746 29.8984C43.4893 29.8984 44.1535 30.543 44.1535 31.3451C44.1535 32.142 43.4945 32.7917 42.6746 32.7917C42.6435 32.7917 42.6071 32.7917 42.576 32.7867C42.5656 32.7867 42.5552 32.7917 42.5449 32.7917H18.5658C17.7511 32.7917 17.0869 32.1471 17.0869 31.3451C17.0869 30.543 17.7511 29.8984 18.5658 29.8984ZM29.079 44.5886C29.0479 44.5886 29.0116 44.5886 28.9804 44.5836C28.97 44.5836 28.9597 44.5886 28.9493 44.5886H18.2285C17.4138 44.5886 16.7496 43.944 16.7496 43.1419C16.7496 42.345 17.4086 41.6952 18.2285 41.6952H28.9493C28.9597 41.6952 28.97 41.6952 28.9804 41.7003C29.0116 41.7003 29.0479 41.6952 29.079 41.6952C29.8937 41.6952 30.5579 42.3399 30.5579 43.1419C30.5579 43.944 29.8989 44.5886 29.079 44.5886Z" fill="url(#paint0_linear_22_375)"/>
<path d="M44.952 39.8594C40.5137 39.8594 36.7762 43.5969 36.7762 48.0352C36.7762 52.4734 40.5137 56.2109 44.952 56.2109C49.3902 56.2109 53.1277 52.4734 53.1277 48.0352C53.1277 43.5969 49.3902 39.8594 44.952 39.8594ZM49.6238 49.2031H44.952C44.4848 49.2031 44.0176 49.2031 44.0176 48.9695C44.0176 48.7359 43.784 48.2687 43.784 48.0352V43.3633C43.784 42.6625 44.2512 42.1953 44.952 42.1953C45.6527 42.1953 46.1199 42.6625 46.1199 43.3633V46.8672H49.6238C50.3246 46.8672 50.7918 47.3344 50.7918 48.0352C50.7918 48.7359 50.3246 49.2031 49.6238 49.2031Z" fill="url(#paint1_linear_22_375)"/>
<defs>
<linearGradient id="paint0_linear_22_375" x1="6.49105" y1="6.04623" x2="44.346" y2="53.453" gradientUnits="userSpaceOnUse">
<stop offset="0.0260417" stop-color="#6CE5C1" stop-opacity="0.14"/>
<stop offset="0.626508" stop-color="#32C0AB"/>
<stop offset="0.932292" stop-color="#69BCAA"/>
</linearGradient>
<linearGradient id="paint1_linear_22_375" x1="6.49105" y1="6.04623" x2="44.346" y2="53.453" gradientUnits="userSpaceOnUse">
<stop offset="0.0260417" stop-color="#6CE5C1" stop-opacity="0.14"/>
<stop offset="0.626508" stop-color="#32C0AB"/>
<stop offset="0.932292" stop-color="#69BCAA"/>
</linearGradient>
</defs>
</svg>
