<svg width="64" height="64" viewBox="0 0 64 64" fill="none" xmlns="http://www.w3.org/2000/svg">
<rect width="64" height="64" rx="4" fill="#92CEF0" fill-opacity="0.4"/>
<circle cx="46" cy="48" r="8" fill="#64B2E0"/>
<path d="M45.5944 37.8337C47.6727 37.8337 49.7459 38.5202 51.3613 39.6612H51.5927V12.7335C51.5927 11.3654 50.6719 10.4517 49.283 10.4517H14.6767C13.2929 10.4517 12.3669 11.3654 12.3669 12.7335V51.5247C12.3669 52.8928 13.2878 53.8065 14.6767 53.8065H37.0598C35.9075 52.2112 35.213 50.1566 35.213 48.1019C35.213 42.3973 39.8275 37.8337 45.5944 37.8337ZM20.2121 19.579H43.2897C43.9841 19.579 44.442 20.0333 44.442 20.7199C44.442 21.4065 43.9791 21.8608 43.2897 21.8608H20.2121C19.5177 21.8608 19.0597 21.4065 19.0597 20.7199C19.0597 20.0333 19.5227 19.579 20.2121 19.579ZM20.2121 30.9882H43.2897C43.9841 30.9882 44.442 31.4425 44.442 32.1291C44.442 32.8157 43.9791 33.27 43.2897 33.27H20.2121C19.5177 33.27 19.0597 32.8157 19.0597 32.1291C19.0597 31.4476 19.5227 30.9882 20.2121 30.9882ZM32.2138 44.6792H19.9857C19.5227 44.6792 19.0648 44.2248 19.0648 43.5383C19.0648 42.8517 19.5277 42.3973 19.9857 42.3973H32.2138C32.6768 42.3973 33.1347 42.8517 33.1347 43.5383C33.1347 44.2248 32.6718 44.6792 32.2138 44.6792Z" fill="url(#paint0_linear_24_795)"/>
<path d="M46.3109 44.565C47.0855 44.565 47.7128 43.9915 47.7128 43.283C47.7123 42.9425 47.5644 42.6161 47.3016 42.3755C47.0387 42.1349 46.6824 41.9999 46.3109 42C46.1271 41.9998 45.945 42.0328 45.775 42.0971C45.605 42.1614 45.4506 42.2558 45.3204 42.3749C45.1902 42.4939 45.0869 42.6353 45.0163 42.7909C44.9458 42.9466 44.9093 43.1134 44.9091 43.282C44.9094 43.6226 45.0573 43.9491 45.3201 44.1898C45.583 44.4305 45.9394 44.5656 46.3109 44.5655V44.565ZM43.1719 49.623C42.9853 49.3277 42.6784 49.1123 42.3188 49.0242C41.9591 48.936 41.5759 48.9824 41.2535 49.153C41.0939 49.237 40.954 49.349 40.8417 49.4827C40.7295 49.6164 40.6471 49.769 40.5994 49.9319C40.5516 50.0949 40.5395 50.2648 40.5635 50.432C40.5876 50.5993 40.6475 50.7605 40.7397 50.9065C40.9263 51.2018 41.2331 51.4172 41.5928 51.5053C41.9525 51.5935 42.3356 51.5471 42.658 51.3765C42.8175 51.2924 42.9572 51.1803 43.0694 51.0466C43.1815 50.9129 43.2638 50.7602 43.3115 50.5974C43.3592 50.4345 43.3714 50.2646 43.3475 50.0975C43.3235 49.9303 43.2638 49.769 43.1719 49.623V49.623ZM51.0237 49.025C50.864 48.9403 50.6877 48.8853 50.5049 48.8631C50.322 48.8408 50.1362 48.8519 49.958 48.8955C49.7798 48.9392 49.6127 49.0146 49.4663 49.1174C49.3199 49.2203 49.197 49.3486 49.1048 49.495C49.0127 49.641 48.9529 49.8023 48.9289 49.9695C48.9049 50.1368 48.9171 50.3067 48.9649 50.4696C49.0127 50.6325 49.0951 50.7852 49.2073 50.9188C49.3196 51.0525 49.4595 51.1645 49.6191 51.2485C49.7788 51.3332 49.9551 51.3882 50.1379 51.4104C50.3208 51.4327 50.5066 51.4216 50.6848 51.378C50.863 51.3343 51.0301 51.2589 51.1765 51.1561C51.3229 51.0532 51.4458 50.9249 51.538 50.7785C51.6299 50.6324 51.6895 50.4712 51.7134 50.304C51.7373 50.1368 51.725 49.9669 51.6772 49.8041C51.6295 49.6412 51.5472 49.4886 51.435 49.3549C51.3229 49.2212 51.1831 49.1091 51.0237 49.025V49.025ZM48.3913 44.3275C49.1777 44.7 49.8282 45.275 50.263 45.9818C50.6978 46.6886 50.8979 47.4964 50.8388 48.306C50.824 48.5215 51.0024 48.709 51.2391 48.7225L51.2669 48.7235C51.4906 48.7235 51.6799 48.5645 51.6946 48.3575C51.7697 47.3277 51.491 46.3022 50.8977 45.425C50.383 44.6651 49.6549 44.0462 48.7895 43.633C48.7396 43.6091 48.685 43.5944 48.6289 43.5898C48.5728 43.5853 48.5162 43.5909 48.4625 43.6063C48.4087 43.6218 48.3588 43.6468 48.3157 43.6799C48.2725 43.7131 48.2368 43.7537 48.2108 43.7995C48.1844 43.845 48.1681 43.8948 48.1629 43.946C48.1578 43.9973 48.1637 44.049 48.1805 44.0981C48.1973 44.1473 48.2246 44.1928 48.2608 44.2322C48.297 44.2716 48.3413 44.304 48.3913 44.3275V44.3275ZM41.296 48.698C41.3042 48.698 41.3135 48.698 41.3217 48.697C41.4351 48.6909 41.5412 48.6439 41.6167 48.5662C41.6923 48.4885 41.7312 48.3864 41.7248 48.2825C41.6702 47.4723 41.8753 46.6651 42.3148 45.9603C42.7543 45.2556 43.4091 44.684 44.1984 44.316C44.2992 44.2683 44.3751 44.1858 44.4095 44.0867C44.4439 43.9877 44.434 43.8801 44.3819 43.7878C44.3562 43.742 44.3208 43.7014 44.2779 43.6682C44.235 43.635 44.1853 43.6098 44.1318 43.5942C44.0238 43.5627 43.9064 43.5718 43.8057 43.6195C42.9324 44.0302 42.1966 44.6497 41.6762 45.4125C41.0829 46.2843 40.8007 47.3039 40.8689 48.3295C40.882 48.5365 41.0708 48.698 41.296 48.698V48.698ZM48.7088 51.5705C47.9816 51.9885 47.1404 52.2096 46.282 52.2085C45.4115 52.2085 44.5639 51.9835 43.8329 51.5585C43.7856 51.5308 43.7327 51.5118 43.6773 51.5028C43.622 51.4938 43.5652 51.4949 43.5103 51.506C43.4554 51.5171 43.4034 51.538 43.3573 51.5675C43.3112 51.597 43.2719 51.6346 43.2417 51.678C43.2114 51.7214 43.1908 51.7699 43.1809 51.8207C43.1711 51.8714 43.1723 51.9234 43.1844 51.9738C43.1965 52.0241 43.2193 52.0717 43.2515 52.114C43.2837 52.1562 43.3247 52.1923 43.372 52.22C44.242 52.7264 45.2515 52.9949 46.282 52.994C47.3015 52.9949 48.3005 52.732 49.1642 52.2355C49.2119 52.2081 49.2531 52.1723 49.2857 52.1303C49.3183 52.0883 49.3415 52.0408 49.354 51.9905C49.3665 51.9402 49.3682 51.8882 49.3588 51.8374C49.3494 51.7866 49.3291 51.7379 49.2992 51.6943C49.2693 51.6506 49.2303 51.6127 49.1845 51.5829C49.1386 51.553 49.0868 51.5318 49.032 51.5203C48.9771 51.5088 48.9204 51.5073 48.8649 51.5159C48.8095 51.5245 48.7564 51.5431 48.7088 51.5705V51.5705Z" fill="#D3EBF9"/>
<defs>
<linearGradient id="paint0_linear_24_795" x1="51.5495" y1="53.7459" x2="17.3983" y2="7.32498" gradientUnits="userSpaceOnUse">
<stop stop-color="#4B9CCC"/>
<stop offset="0.500572" stop-color="#7AC5F1"/>
<stop offset="1" stop-color="#B9D9EC"/>
</linearGradient>
</defs>
</svg>
