<svg width="24" height="24" viewBox="0 0 24 24" fill="none" xmlns="http://www.w3.org/2000/svg">
<g clip-path="url(#clip0_480_45062)">
<path d="M2.00016 14C1.82335 14 1.65378 14.0702 1.52876 14.1953C1.40373 14.3203 1.3335 14.4899 1.3335 14.6667C1.3335 14.8435 1.40373 15.013 1.52876 15.1381C1.65378 15.2631 1.82335 15.3333 2.00016 15.3333H5.3335V14H2.00016Z" fill="#457CE0"/>
<path d="M18.6668 2.6665H9.9135L5.3335 7.23984V13.9998H10.1335L7.96683 11.8332C7.85761 11.7056 7.80054 11.5416 7.80702 11.3738C7.8135 11.206 7.88306 11.0469 8.00179 10.9281C8.12052 10.8094 8.27968 10.7398 8.44746 10.7334C8.61524 10.7269 8.77929 10.784 8.90683 10.8932L12.6668 14.6665L8.88016 18.4532C8.75263 18.5624 8.58858 18.6195 8.42079 18.613C8.25301 18.6065 8.09385 18.5369 7.97512 18.4182C7.85639 18.2995 7.78684 18.1403 7.78036 17.9725C7.77387 17.8048 7.83094 17.6407 7.94016 17.5132L10.1535 15.3332H5.3335V19.9998C5.3335 20.3535 5.47397 20.6926 5.72402 20.9426C5.97407 21.1927 6.31321 21.3332 6.66683 21.3332H18.6668C19.0205 21.3332 19.3596 21.1927 19.6096 20.9426C19.8597 20.6926 20.0002 20.3535 20.0002 19.9998V3.99984C20.0002 3.64622 19.8597 3.30708 19.6096 3.05703C19.3596 2.80698 19.0205 2.6665 18.6668 2.6665ZM10.6668 7.99984H6.66683V7.7865L10.4602 3.99984H10.6668V7.99984Z" fill="#457CE0"/>
</g>
<defs>
<clipPath id="clip0_480_45062">
<rect width="24" height="24" fill="white"/>
</clipPath>
</defs>
</svg>
