<svg width="72" height="72" viewBox="0 0 72 72" fill="none" xmlns="http://www.w3.org/2000/svg">
<path d="M36 0C43.2165 8.60557e-08 50.2664 2.16884 56.235 6.2251L51.1763 13.6688C46.6998 10.6266 41.4124 9 36 9V0Z" fill="#246AD9"/>
<path d="M57.1638 6.87795C63.0015 11.1204 67.4295 17.0194 69.8732 23.8095L61.4049 26.8571C59.5721 21.7645 56.2511 17.3403 51.8728 14.1585L57.1638 6.87795Z" fill="#246AD9"/>
<path d="M70.1852 24.714C72.4475 31.5667 72.5982 38.9411 70.6176 45.8805L61.9632 43.4104C63.4486 38.2059 63.3357 32.675 61.6389 27.5355L70.1852 24.714Z" fill="#246AD9"/>
<path d="M70.3028 46.9233C68.1132 53.7995 63.9075 59.859 58.2314 64.3154L52.6736 57.2366C56.9306 53.8942 60.0849 49.3496 61.7271 44.1924L70.3028 46.9233Z" fill="#246AD9"/>
<path d="M57.3388 64.9941C51.5267 69.2716 44.5632 71.7036 37.3518 71.9746L37.0138 62.981C42.4224 62.7777 47.645 60.9537 52.0041 57.7456L57.3388 64.9941Z" fill="#246AD9"/>
<path d="M36 72C28.7835 72 21.7336 69.8312 15.765 65.7749L20.8237 58.3312C25.3002 61.3734 30.5876 63 36 63V72Z" fill="#DAE5F9"/>
<path d="M15.0285 65.2608C9.16294 61.0569 4.6962 55.1872 2.20785 48.4133L10.6559 45.31C12.5222 50.3904 15.8722 54.7927 20.2714 57.9456L15.0285 65.2608Z" fill="#DAE5F9"/>
<path d="M1.83696 47.3528C-0.438804 40.5046 -0.603867 33.1304 1.36318 26.1872L10.0224 28.6404C8.5471 33.8478 8.6709 39.3784 10.3777 44.5146L1.83696 47.3528Z" fill="#DAE5F9"/>
<path d="M1.67007 25.1623C3.84257 18.2806 8.03316 12.2106 13.6981 7.74006L19.2736 14.805C15.0249 18.158 11.8819 22.7104 10.2526 27.8717L1.67007 25.1623Z" fill="#DAE5F9"/>
<path d="M14.6391 7.02219C20.448 2.74024 27.4096 0.302901 34.6208 0.0264291L34.9656 9.01982C29.5572 9.22718 24.336 11.0552 19.9794 14.2666L14.6391 7.02219Z" fill="#DAE5F9"/>
<path d="M24.7969 36.7656H26.3359C26.5286 36.4167 26.7474 36.1719 26.9922 36.0312C27.237 35.8958 27.5078 35.8281 27.8047 35.8281C28.138 35.8281 28.4167 35.875 28.6406 35.9688C28.8646 36.0833 29.0339 36.237 29.1484 36.4297C29.362 36.8359 29.4635 37.3646 29.4531 38.0156C29.4531 38.2812 29.4479 38.5547 29.4375 38.8359C29.4167 39.1224 29.3594 39.388 29.2656 39.6328C29.1771 39.8776 29.0208 40.0755 28.7969 40.2266C28.5625 40.3828 28.25 40.4609 27.8594 40.4609C26.9479 40.4505 26.4036 40.0078 26.2266 39.1328H24.5938C24.75 40.1797 25.1536 40.9375 25.8047 41.4062C26.4453 41.8646 27.151 42.0938 27.9219 42.0938C28.4948 42.0833 28.9896 41.9505 29.4062 41.6953C29.8333 41.4505 30.1589 41.1797 30.3828 40.8828C30.638 40.5807 30.8203 40.2344 30.9297 39.8438C31.0339 39.4479 31.0859 38.8802 31.0859 38.1406C31.0859 37.6615 31.0703 37.2578 31.0391 36.9297C31.0078 36.6068 30.9557 36.3333 30.8828 36.1094C30.7422 35.6979 30.513 35.3359 30.1953 35.0234C29.9818 34.7891 29.7031 34.5911 29.3594 34.4297C28.9948 34.2839 28.5938 34.2057 28.1562 34.1953C27.474 34.1953 26.8672 34.4036 26.3359 34.8203V32.2422H30.8672V30.6094H24.7969V36.7656ZM37.125 38.7188C37.0938 39.8698 36.5599 40.4505 35.5234 40.4609C34.4818 40.4505 33.9505 39.8698 33.9297 38.7188V33.8906C33.9505 32.75 34.4818 32.1693 35.5234 32.1484C36.5599 32.1693 37.0938 32.75 37.125 33.8906V38.7188ZM32.2969 38.8125C32.3073 39.8594 32.6432 40.6667 33.3047 41.2344C33.9245 41.7969 34.6641 42.0833 35.5234 42.0938C36.4089 42.0833 37.1615 41.7969 37.7812 41.2344C38.4115 40.6667 38.737 39.8594 38.7578 38.8125V33.7891C38.737 32.737 38.4115 31.9271 37.7812 31.3594C37.1615 30.7969 36.4089 30.5156 35.5234 30.5156C34.6641 30.5156 33.9245 30.7969 33.3047 31.3594C32.6432 31.9271 32.3073 32.737 32.2969 33.7891V38.8125ZM44.7656 39.5391C44.7656 39.013 44.9635 38.75 45.3594 38.75C45.7552 38.75 45.9531 39.013 45.9531 39.5391V40.3984C45.9531 40.9245 45.7552 41.1875 45.3594 41.1875C44.9635 41.1875 44.7656 40.9245 44.7656 40.3984V39.5391ZM43.8516 40.5156C43.862 41.0677 44.0234 41.4661 44.3359 41.7109C44.6224 41.9661 44.9635 42.0938 45.3594 42.0938C45.7656 42.0938 46.1172 41.9661 46.4141 41.7109C46.5651 41.5859 46.6771 41.4219 46.75 41.2188C46.8229 41.026 46.8594 40.7917 46.8594 40.5156V39.4219C46.849 38.8698 46.7005 38.4661 46.4141 38.2109C46.1172 37.9661 45.7656 37.8438 45.3594 37.8438C44.9635 37.8438 44.6224 37.9661 44.3359 38.2109C44.0234 38.4661 43.862 38.8698 43.8516 39.4219V40.5156ZM40.1875 33.1875C40.1979 33.7396 40.3594 34.138 40.6719 34.3828C40.9583 34.638 41.2995 34.7656 41.6953 34.7656C42.1016 34.7656 42.4531 34.638 42.75 34.3828C42.901 34.2578 43.013 34.0938 43.0859 33.8906C43.1589 33.6979 43.1953 33.4635 43.1953 33.1875V32.0938C43.1849 31.5417 43.0365 31.138 42.75 30.8828C42.4531 30.638 42.1016 30.5156 41.6953 30.5156C41.2995 30.5156 40.9583 30.638 40.6719 30.8828C40.3594 31.138 40.1979 31.5417 40.1875 32.0938V33.1875ZM41.1016 32.2109C41.1016 31.6849 41.2995 31.4219 41.6953 31.4219C42.0911 31.4219 42.2891 31.6849 42.2891 32.2109V33.0703C42.2891 33.5964 42.0911 33.8594 41.6953 33.8594C41.2995 33.8594 41.1016 33.5964 41.1016 33.0703V32.2109ZM40.3047 42H41.3594L46.75 30.6094H45.6953L40.3047 42Z" fill="black"/>
</svg>
