<svg width="72" height="72" viewBox="0 0 72 72" fill="none" xmlns="http://www.w3.org/2000/svg">
<path d="M36 0C43.2165 8.60557e-08 50.2664 2.16884 56.235 6.2251L51.1763 13.6688C46.6998 10.6266 41.4124 9 36 9V0Z" fill="#246AD9"/>
<path d="M57.1638 6.87795C63.0015 11.1204 67.4295 17.0194 69.8732 23.8095L61.4049 26.8571C59.5721 21.7645 56.2511 17.3403 51.8728 14.1585L57.1638 6.87795Z" fill="#246AD9"/>
<path d="M70.1852 24.714C72.4475 31.5667 72.5982 38.9411 70.6176 45.8805L61.9632 43.4104C63.4486 38.2059 63.3357 32.675 61.6389 27.5355L70.1852 24.714Z" fill="#246AD9"/>
<path d="M70.3028 46.9233C68.1132 53.7995 63.9075 59.859 58.2314 64.3154L52.6736 57.2366C56.9306 53.8942 60.0849 49.3496 61.7271 44.1924L70.3028 46.9233Z" fill="#246AD9"/>
<path d="M57.3388 64.9941C51.5267 69.2716 44.5632 71.7036 37.3518 71.9746L37.0138 62.981C42.4224 62.7777 47.645 60.9537 52.0041 57.7456L57.3388 64.9941Z" fill="#246AD9"/>
<path d="M36 72C28.7835 72 21.7336 69.8312 15.765 65.7749L20.8237 58.3312C25.3002 61.3734 30.5876 63 36 63V72Z" fill="#246AD9"/>
<path d="M15.0285 65.2608C9.16294 61.0569 4.6962 55.1872 2.20785 48.4133L10.6559 45.31C12.5222 50.3904 15.8722 54.7927 20.2714 57.9456L15.0285 65.2608Z" fill="#246AD9"/>
<path d="M1.83696 47.3528C-0.438804 40.5046 -0.603867 33.1304 1.36318 26.1872L10.0224 28.6404C8.5471 33.8478 8.6709 39.3784 10.3777 44.5146L1.83696 47.3528Z" fill="#246AD9"/>
<path d="M1.67007 25.1623C3.84257 18.2806 8.03316 12.2106 13.6981 7.74006L19.2736 14.805C15.0249 18.158 11.8819 22.7104 10.2526 27.8717L1.67007 25.1623Z" fill="#246AD9"/>
<path d="M14.6391 7.02219C20.448 2.74024 27.4096 0.302901 34.6208 0.0264291L34.9656 9.01982C29.5572 9.22718 24.336 11.0552 19.9794 14.2666L14.6391 7.02219Z" fill="#246AD9"/>
<path d="M23.4141 32.3359V42H25.0469V30.6094H23.4141L21.7969 31.7891V33.5234L23.4141 32.3359ZM33.4375 38.7188C33.4062 39.8698 32.8724 40.4505 31.8359 40.4609C30.7943 40.4505 30.263 39.8698 30.2422 38.7188V33.8906C30.263 32.75 30.7943 32.1693 31.8359 32.1484C32.8724 32.1693 33.4062 32.75 33.4375 33.8906V38.7188ZM28.6094 38.8125C28.6198 39.8594 28.9557 40.6667 29.6172 41.2344C30.237 41.7969 30.9766 42.0833 31.8359 42.0938C32.7214 42.0833 33.474 41.7969 34.0938 41.2344C34.724 40.6667 35.0495 39.8594 35.0703 38.8125V33.7891C35.0495 32.737 34.724 31.9271 34.0938 31.3594C33.474 30.7969 32.7214 30.5156 31.8359 30.5156C30.9766 30.5156 30.237 30.7969 29.6172 31.3594C28.9557 31.9271 28.6198 32.737 28.6094 33.7891V38.8125ZM41.125 38.7188C41.0938 39.8698 40.5599 40.4505 39.5234 40.4609C38.4818 40.4505 37.9505 39.8698 37.9297 38.7188V33.8906C37.9505 32.75 38.4818 32.1693 39.5234 32.1484C40.5599 32.1693 41.0938 32.75 41.125 33.8906V38.7188ZM36.2969 38.8125C36.3073 39.8594 36.6432 40.6667 37.3047 41.2344C37.9245 41.7969 38.6641 42.0833 39.5234 42.0938C40.4089 42.0833 41.1615 41.7969 41.7812 41.2344C42.4115 40.6667 42.737 39.8594 42.7578 38.8125V33.7891C42.737 32.737 42.4115 31.9271 41.7812 31.3594C41.1615 30.7969 40.4089 30.5156 39.5234 30.5156C38.6641 30.5156 37.9245 30.7969 37.3047 31.3594C36.6432 31.9271 36.3073 32.737 36.2969 33.7891V38.8125ZM48.7656 39.5391C48.7656 39.013 48.9635 38.75 49.3594 38.75C49.7552 38.75 49.9531 39.013 49.9531 39.5391V40.3984C49.9531 40.9245 49.7552 41.1875 49.3594 41.1875C48.9635 41.1875 48.7656 40.9245 48.7656 40.3984V39.5391ZM47.8516 40.5156C47.862 41.0677 48.0234 41.4661 48.3359 41.7109C48.6224 41.9661 48.9635 42.0938 49.3594 42.0938C49.7656 42.0938 50.1172 41.9661 50.4141 41.7109C50.5651 41.5859 50.6771 41.4219 50.75 41.2188C50.8229 41.026 50.8594 40.7917 50.8594 40.5156V39.4219C50.849 38.8698 50.7005 38.4661 50.4141 38.2109C50.1172 37.9661 49.7656 37.8438 49.3594 37.8438C48.9635 37.8438 48.6224 37.9661 48.3359 38.2109C48.0234 38.4661 47.862 38.8698 47.8516 39.4219V40.5156ZM44.1875 33.1875C44.1979 33.7396 44.3594 34.138 44.6719 34.3828C44.9583 34.638 45.2995 34.7656 45.6953 34.7656C46.1016 34.7656 46.4531 34.638 46.75 34.3828C46.901 34.2578 47.013 34.0938 47.0859 33.8906C47.1589 33.6979 47.1953 33.4635 47.1953 33.1875V32.0938C47.1849 31.5417 47.0365 31.138 46.75 30.8828C46.4531 30.638 46.1016 30.5156 45.6953 30.5156C45.2995 30.5156 44.9583 30.638 44.6719 30.8828C44.3594 31.138 44.1979 31.5417 44.1875 32.0938V33.1875ZM45.1016 32.2109C45.1016 31.6849 45.2995 31.4219 45.6953 31.4219C46.0911 31.4219 46.2891 31.6849 46.2891 32.2109V33.0703C46.2891 33.5964 46.0911 33.8594 45.6953 33.8594C45.2995 33.8594 45.1016 33.5964 45.1016 33.0703V32.2109ZM44.3047 42H45.3594L50.75 30.6094H49.6953L44.3047 42Z" fill="black"/>
</svg>
