<svg width="72" height="72" viewBox="0 0 72 72" fill="none" xmlns="http://www.w3.org/2000/svg">
<path d="M24.8125 33.8906H26.4453V32.2422H29.4688L25.6172 42H27.4375L31.2969 32.2422V30.6094H24.8125V33.8906ZM32.4844 36.7656H34.0234C34.2161 36.4167 34.4349 36.1719 34.6797 36.0312C34.9245 35.8958 35.1953 35.8281 35.4922 35.8281C35.8255 35.8281 36.1042 35.875 36.3281 35.9688C36.5521 36.0833 36.7214 36.237 36.8359 36.4297C37.0495 36.8359 37.151 37.3646 37.1406 38.0156C37.1406 38.2812 37.1354 38.5547 37.125 38.8359C37.1042 39.1224 37.0469 39.388 36.9531 39.6328C36.8646 39.8776 36.7083 40.0755 36.4844 40.2266C36.25 40.3828 35.9375 40.4609 35.5469 40.4609C34.6354 40.4505 34.0911 40.0078 33.9141 39.1328H32.2812C32.4375 40.1797 32.8411 40.9375 33.4922 41.4062C34.1328 41.8646 34.8385 42.0938 35.6094 42.0938C36.1823 42.0833 36.6771 41.9505 37.0938 41.6953C37.5208 41.4505 37.8464 41.1797 38.0703 40.8828C38.3255 40.5807 38.5078 40.2344 38.6172 39.8438C38.7214 39.4479 38.7734 38.8802 38.7734 38.1406C38.7734 37.6615 38.7578 37.2578 38.7266 36.9297C38.6953 36.6068 38.6432 36.3333 38.5703 36.1094C38.4297 35.6979 38.2005 35.3359 37.8828 35.0234C37.6693 34.7891 37.3906 34.5911 37.0469 34.4297C36.6823 34.2839 36.2812 34.2057 35.8438 34.1953C35.1615 34.1953 34.5547 34.4036 34.0234 34.8203V32.2422H38.5547V30.6094H32.4844V36.7656ZM44.7656 39.5391C44.7656 39.013 44.9635 38.75 45.3594 38.75C45.7552 38.75 45.9531 39.013 45.9531 39.5391V40.3984C45.9531 40.9245 45.7552 41.1875 45.3594 41.1875C44.9635 41.1875 44.7656 40.9245 44.7656 40.3984V39.5391ZM43.8516 40.5156C43.862 41.0677 44.0234 41.4661 44.3359 41.7109C44.6224 41.9661 44.9635 42.0938 45.3594 42.0938C45.7656 42.0938 46.1172 41.9661 46.4141 41.7109C46.5651 41.5859 46.6771 41.4219 46.75 41.2188C46.8229 41.026 46.8594 40.7917 46.8594 40.5156V39.4219C46.849 38.8698 46.7005 38.4661 46.4141 38.2109C46.1172 37.9661 45.7656 37.8438 45.3594 37.8438C44.9635 37.8438 44.6224 37.9661 44.3359 38.2109C44.0234 38.4661 43.862 38.8698 43.8516 39.4219V40.5156ZM40.1875 33.1875C40.1979 33.7396 40.3594 34.138 40.6719 34.3828C40.9583 34.638 41.2995 34.7656 41.6953 34.7656C42.1016 34.7656 42.4531 34.638 42.75 34.3828C42.901 34.2578 43.013 34.0938 43.0859 33.8906C43.1589 33.6979 43.1953 33.4635 43.1953 33.1875V32.0938C43.1849 31.5417 43.0365 31.138 42.75 30.8828C42.4531 30.638 42.1016 30.5156 41.6953 30.5156C41.2995 30.5156 40.9583 30.638 40.6719 30.8828C40.3594 31.138 40.1979 31.5417 40.1875 32.0938V33.1875ZM41.1016 32.2109C41.1016 31.6849 41.2995 31.4219 41.6953 31.4219C42.0911 31.4219 42.2891 31.6849 42.2891 32.2109V33.0703C42.2891 33.5964 42.0911 33.8594 41.6953 33.8594C41.2995 33.8594 41.1016 33.5964 41.1016 33.0703V32.2109ZM40.3047 42H41.3594L46.75 30.6094H45.6953L40.3047 42Z" fill="black"/>
<path d="M36 0C43.2165 8.60557e-08 50.2664 2.16884 56.235 6.2251L51.1763 13.6688C46.6998 10.6266 41.4124 9 36 9V0Z" fill="#246AD9"/>
<path d="M57.1638 6.87795C63.0015 11.1204 67.4295 17.0194 69.8732 23.8095L61.4049 26.8571C59.5721 21.7645 56.2511 17.3403 51.8728 14.1585L57.1638 6.87795Z" fill="#246AD9"/>
<path d="M70.1852 24.714C72.4475 31.5667 72.5982 38.9411 70.6176 45.8805L61.9632 43.4104C63.4486 38.2059 63.3357 32.675 61.6389 27.5355L70.1852 24.714Z" fill="#246AD9"/>
<path d="M70.3028 46.9233C68.1132 53.7995 63.9075 59.859 58.2314 64.3154L52.6736 57.2366C56.9306 53.8942 60.0849 49.3496 61.7271 44.1924L70.3028 46.9233Z" fill="#246AD9"/>
<path d="M57.3388 64.9941C51.5267 69.2716 44.5632 71.7036 37.3518 71.9746L37.0138 62.981C42.4224 62.7777 47.645 60.9537 52.0041 57.7456L57.3388 64.9941Z" fill="#246AD9"/>
<path d="M36 72C28.7835 72 21.7336 69.8312 15.765 65.7749L20.8237 58.3312C25.3002 61.3734 30.5876 63 36 63V72Z" fill="#246AD9"/>
<path d="M15.0285 65.2608C9.16294 61.0569 4.6962 55.1872 2.20785 48.4133L10.6559 45.31C12.5222 50.3904 15.8722 54.7927 20.2714 57.9456L15.0285 65.2608Z" fill="#246AD9"/>
<path d="M1.83696 47.3528C-0.438804 40.5046 -0.603867 33.1304 1.36318 26.1872L10.0224 28.6404C8.5471 33.8478 8.6709 39.3784 10.3777 44.5146L1.83696 47.3528Z" fill="#DAE5F9"/>
<path d="M1.83696 47.3528C0.609663 43.6596 -0.0106594 39.7919 0.000138568 35.9001L9.0001 35.9251C8.99201 38.8439 9.45725 41.7447 10.3777 44.5146L1.83696 47.3528Z" fill="#246AD9"/>
<path d="M1.67007 25.1623C3.84257 18.2806 8.03316 12.2106 13.6981 7.74006L19.2736 14.805C15.0249 18.158 11.8819 22.7104 10.2526 27.8717L1.67007 25.1623Z" fill="#DAE5F9"/>
<path d="M14.6391 7.02219C20.448 2.74024 27.4096 0.302901 34.6208 0.0264291L34.9656 9.01982C29.5572 9.22718 24.336 11.0552 19.9794 14.2666L14.6391 7.02219Z" fill="#DAE5F9"/>
</svg>
