<svg width="24" height="24" viewBox="0 0 24 24" fill="none" xmlns="http://www.w3.org/2000/svg">
<path d="M3 3.25C3 3.9375 3.57857 4.5 4.28571 4.5H19.7143C20.4214 4.5 21 3.9375 21 3.25C21 2.5625 20.4214 2 19.7143 2H4.28571C3.57857 2 3 2.5625 3 3.25ZM6.09857 14.5H8.14286V20.75C8.14286 21.4375 8.72143 22 9.42857 22H14.5714C15.2786 22 15.8571 21.4375 15.8571 20.75V14.5H17.9014C19.0457 14.5 19.6243 13.15 18.8143 12.3625L12.9129 6.625C12.7939 6.50912 12.6526 6.41719 12.4971 6.35446C12.3416 6.29173 12.1748 6.25945 12.0064 6.25945C11.838 6.25945 11.6713 6.29173 11.5158 6.35446C11.3602 6.41719 11.2189 6.50912 11.1 6.625L5.19857 12.3625C4.38857 13.15 4.95429 14.5 6.09857 14.5Z" fill="#457CE0"/>
</svg>
