<svg width="24" height="24" viewBox="0 0 24 24" fill="none" xmlns="http://www.w3.org/2000/svg">
<path d="M6.78947 21C6.29737 21 5.87625 20.8239 5.52611 20.4717C5.17537 20.1189 5 19.695 5 19.2V4.8C5 4.305 5.17537 3.8811 5.52611 3.5283C5.87625 3.1761 6.29737 3 6.78947 3H13.2092C13.4478 3 13.6754 3.045 13.8919 3.135C14.1078 3.225 14.2978 3.3525 14.4618 3.5175L18.8013 7.8825C18.9653 8.0475 19.0921 8.2386 19.1816 8.4558C19.2711 8.6736 19.3158 8.9025 19.3158 9.1425V11.19L12.1579 18.3675V21H6.78947ZM14.3947 21C14.2754 21 14.1711 20.955 14.0816 20.865C13.9921 20.775 13.9474 20.67 13.9474 20.55V19.47C13.9474 19.35 13.9736 19.23 14.0261 19.11C14.078 18.99 14.1412 18.8925 14.2158 18.8175L18.5553 14.43L20.4789 16.32L16.1171 20.73C16.0425 20.82 15.9456 20.8875 15.8263 20.9325C15.707 20.9775 15.5877 21 15.4684 21H14.3947ZM21.1276 15.69L19.2263 13.7775L19.8526 13.1475C20.0316 12.9675 20.2478 12.8775 20.5013 12.8775C20.7548 12.8775 20.9636 12.9675 21.1276 13.1475L21.7539 13.8C21.918 13.98 22 14.1936 22 14.4408C22 14.6886 21.918 14.895 21.7539 15.06L21.1276 15.69ZM13.9474 9.3H17.5263L13.0526 4.8V8.4C13.0526 8.655 13.1385 8.8686 13.3103 9.0408C13.4815 9.2136 13.6939 9.3 13.9474 9.3Z" fill="#457CE0"/>
</svg>
