<svg width="24" height="24" viewBox="0 0 24 24" fill="none" xmlns="http://www.w3.org/2000/svg">
<path d="M9.54986 13.1429C9.8566 13.1429 10.1139 13.0331 10.3218 12.8137C10.5289 12.595 10.6325 12.3238 10.6325 12C10.6325 11.6762 10.5289 11.4046 10.3218 11.1851C10.1139 10.9665 9.8566 10.8571 9.54986 10.8571C9.24311 10.8571 8.98581 10.9665 8.77795 11.1851C8.57081 11.4046 8.46724 11.6762 8.46724 12C8.46724 12.3238 8.57081 12.595 8.77795 12.8137C8.98581 13.0331 9.24311 13.1429 9.54986 13.1429ZM13.339 13.1429C13.6458 13.1429 13.9031 13.0331 14.1109 12.8137C14.3181 12.595 14.4217 12.3238 14.4217 12C14.4217 11.6762 14.3181 11.4046 14.1109 11.1851C13.9031 10.9665 13.6458 10.8571 13.339 10.8571C13.0323 10.8571 12.775 10.9665 12.5671 11.1851C12.36 11.4046 12.2564 11.6762 12.2564 12C12.2564 12.3238 12.36 12.595 12.5671 12.8137C12.775 13.0331 13.0323 13.1429 13.339 13.1429ZM17.1282 13.1429C17.4349 13.1429 17.6923 13.0331 17.9001 12.8137C18.1073 12.595 18.2108 12.3238 18.2108 12C18.2108 11.6762 18.1073 11.4046 17.9001 11.1851C17.6923 10.9665 17.4349 10.8571 17.1282 10.8571C16.8215 10.8571 16.5642 10.9665 16.3563 11.1851C16.1492 11.4046 16.0456 11.6762 16.0456 12C16.0456 12.3238 16.1492 12.595 16.3563 12.8137C16.5642 13.0331 16.8215 13.1429 17.1282 13.1429ZM9.00855 20C8.64767 20 8.30954 19.9143 7.99413 19.7429C7.67801 19.5714 7.4207 19.3333 7.22222 19.0286L3.40598 13.3143C3.13533 12.9143 3 12.4762 3 12C3 11.5238 3.13533 11.0857 3.40598 10.6857L7.22222 4.97143C7.4207 4.66667 7.67801 4.42857 7.99413 4.25714C8.30954 4.08571 8.64767 4 9.00855 4H19.8348C20.4302 4 20.9401 4.224 21.3645 4.672C21.7882 5.11924 22 5.65714 22 6.28571V17.7143C22 18.3429 21.7882 18.8811 21.3645 19.3291C20.9401 19.7764 20.4302 20 19.8348 20H9.00855Z" fill="#457CE0"/>
</svg>
