<svg width="185" height="174" viewBox="0 0 185 174" fill="none" xmlns="http://www.w3.org/2000/svg">
<path d="M126.61 38.855H94.8384V40.6754H126.61V38.855Z" fill="#EBEBEB"/>
<path d="M118.674 40.6978L119.791 43.1472H121.108L122.063 40.6978H118.674Z" fill="#EBEBEB"/>
<path d="M100.296 40.6978L101.413 43.1472H102.727L103.685 40.6978H100.296Z" fill="#EBEBEB"/>
<path d="M161.96 105.537V23.1968L128.338 23.1968V105.537H161.96Z" fill="#E0E0E0"/>
<path d="M160.118 25.043H130.185V103.69H160.118V25.043Z" fill="#F0F0F0"/>
<path d="M146.775 23.1968H144.548V105.537H146.775V23.1968Z" fill="#E0E0E0"/>
<path d="M83.979 105.537V23.1968L50.3571 23.1968L50.3571 105.537H83.979Z" fill="#E0E0E0"/>
<path d="M82.1361 25.043H52.2031V103.69H82.1361V25.043Z" fill="#F0F0F0"/>
<path d="M68.7943 23.1968H66.5669V105.537H68.7943V23.1968Z" fill="#E0E0E0"/>
<path d="M164.25 120.166H97.3728C96.7981 120.165 96.2471 119.936 95.8407 119.53C95.4343 119.124 95.2056 118.573 95.2046 117.998V20.5881C95.2046 20.0131 95.433 19.4616 95.8396 19.055C96.2463 18.6484 96.7978 18.4199 97.3728 18.4199H164.25C164.825 18.4199 165.377 18.6484 165.783 19.055C166.19 19.4616 166.418 20.0131 166.418 20.5881V117.998C166.418 118.573 166.189 119.124 165.782 119.53C165.376 119.936 164.825 120.165 164.25 120.166ZM97.3728 18.5124C96.8223 18.5124 96.2943 18.7311 95.905 19.1204C95.5158 19.5097 95.2971 20.0376 95.2971 20.5881V117.998C95.2971 118.549 95.5158 119.076 95.905 119.466C96.2943 119.855 96.8223 120.074 97.3728 120.074H164.25C164.801 120.074 165.329 119.855 165.718 119.466C166.107 119.076 166.326 118.549 166.326 117.998V20.5881C166.326 20.0376 166.107 19.5097 165.718 19.1204C165.329 18.7311 164.801 18.5124 164.25 18.5124H97.3728Z" fill="#E0E0E0"/>
<path d="M87.1311 120.166H20.2573C19.682 120.166 19.1301 119.938 18.7229 119.531C18.3157 119.125 18.0864 118.573 18.0854 117.998V20.5881C18.0854 20.3031 18.1417 20.0208 18.2508 19.7575C18.36 19.4942 18.5201 19.2551 18.7218 19.0537C18.9235 18.8523 19.163 18.6927 19.4265 18.5839C19.69 18.4752 19.9723 18.4194 20.2573 18.4199H87.1311C87.7062 18.4199 88.2577 18.6484 88.6643 19.055C89.0709 19.4616 89.2993 20.0131 89.2993 20.5881V117.998C89.2993 118.283 89.2433 118.565 89.1343 118.828C89.0253 119.091 88.8656 119.33 88.6643 119.531C88.463 119.733 88.2239 119.892 87.9609 120.001C87.6978 120.11 87.4159 120.166 87.1311 120.166ZM20.2573 18.5124C19.7065 18.5124 19.1782 18.731 18.7883 19.1202C18.3984 19.5093 18.1789 20.0373 18.1779 20.5881V117.998C18.1789 118.549 18.3984 119.077 18.7883 119.466C19.1782 119.855 19.7065 120.074 20.2573 120.074H87.1311C87.4037 120.074 87.6736 120.02 87.9255 119.916C88.1773 119.811 88.4061 119.659 88.5989 119.466C88.7916 119.273 88.9445 119.044 89.0488 118.792C89.1532 118.541 89.2068 118.271 89.2068 117.998V20.5881C89.2068 20.3155 89.1532 20.0456 89.0488 19.7938C88.9445 19.542 88.7916 19.3131 88.5989 19.1204C88.4061 18.9276 88.1773 18.7747 87.9255 18.6704C87.6736 18.5661 87.4037 18.5124 87.1311 18.5124H20.2573Z" fill="#E0E0E0"/>
<path d="M122.063 34.0747L120.698 38.8366H117.024L115.658 34.0747H122.063Z" fill="#E6E6E6"/>
<path d="M118.944 31.1259C118.944 31.1259 115.614 29.5534 115.581 26.8857C115.581 26.8857 118.77 28.1363 118.944 31.1259Z" fill="#E0E0E0"/>
<path d="M118.862 33.0867C118.862 33.0867 122.274 31.6733 122.418 29.0167C122.418 29.0056 119.192 30.1082 118.862 33.0867Z" fill="#E0E0E0"/>
<path d="M118.252 28.3025C118.252 28.3025 121.323 26.2453 120.938 23.6035C120.938 23.6035 117.989 25.3203 118.252 28.3025Z" fill="#E0E0E0"/>
<path d="M118.859 34.304L118.489 34.2263C119.444 29.6568 116.569 23.5333 116.539 23.4704L116.879 23.3076C117.005 23.5629 119.843 29.6087 118.859 34.304Z" fill="#E0E0E0"/>
<path d="M112.776 38.8551H105.376L103.985 31.5698H111.385L112.776 38.8551Z" fill="#F0F0F0"/>
<path d="M111.592 37.8781H106.186L105.868 36.2353L105.165 32.5464H110.574L110.919 34.3594L111.592 37.8781Z" fill="#FAFAFA"/>
<path d="M107.485 34.5001C107.789 34.5001 108.036 34.2532 108.036 33.9488C108.036 33.6443 107.789 33.3975 107.485 33.3975C107.18 33.3975 106.934 33.6443 106.934 33.9488C106.934 34.2532 107.18 34.5001 107.485 34.5001Z" fill="#E0E0E0"/>
<path d="M111.592 37.8784H106.19L105.872 36.2356C106.002 36.0229 106.182 35.8446 106.396 35.7158C106.609 35.5871 106.851 35.5115 107.1 35.4956C108.21 35.4956 109.179 36.2837 109.768 35.2292C110.055 34.8322 110.458 34.5337 110.922 34.3745L111.592 37.8784Z" fill="#E0E0E0"/>
<path d="M103.985 31.5698L102.024 38.8403H103.489H105.376L103.985 31.5698Z" fill="#E0E0E0"/>
<path d="M37.7875 40.8977C41.5856 39.2917 43.3627 34.9108 41.7568 31.1127C40.1508 27.3146 35.77 25.5375 31.9718 27.1434C28.1737 28.7494 26.3966 33.1303 28.0026 36.9284C29.6085 40.7265 33.9894 42.5036 37.7875 40.8977Z" fill="#E0E0E0"/>
<path d="M37.5127 40.3731C41.0223 38.9194 42.6889 34.8958 41.2352 31.3862C39.7815 27.8766 35.7579 26.21 32.2483 27.6637C28.7387 29.1174 27.072 33.141 28.5258 36.6506C29.9795 40.1602 34.0031 41.8269 37.5127 40.3731Z" fill="#FAFAFA"/>
<path d="M34.9021 27.7661H34.6431V29.2017H34.9021V27.7661Z" fill="#E0E0E0"/>
<path d="M34.9021 38.8032H34.6431V40.2388H34.9021V38.8032Z" fill="#E0E0E0"/>
<path d="M29.9698 33.875H28.5342V34.134H29.9698V33.875Z" fill="#E0E0E0"/>
<path d="M41.0069 33.875H39.5713V34.134H41.0069V33.875Z" fill="#E0E0E0"/>
<path d="M39.0897 29.4989L38.0747 30.5142L38.2579 30.6973L39.2728 29.682L39.0897 29.4989Z" fill="#E0E0E0"/>
<path d="M31.2845 37.3084L30.2695 38.3237L30.4527 38.5068L31.4677 37.4915L31.2845 37.3084Z" fill="#E0E0E0"/>
<path d="M30.4541 29.4975L30.271 29.6807L31.2863 30.6956L31.4694 30.5124L30.4541 29.4975Z" fill="#E0E0E0"/>
<path d="M38.2574 37.3091L38.0742 37.4922L39.0892 38.5075L39.2723 38.3244L38.2574 37.3091Z" fill="#E0E0E0"/>
<path d="M34.722 33.832L34.6406 34.0386L37.0712 34.9955L37.1526 34.789L34.722 33.832Z" fill="#E0E0E0"/>
<path d="M34.8799 34.1115H30.8691V33.8932H34.6616V30.7778H34.8799V34.1115Z" fill="#E0E0E0"/>
<path d="M185 142.762H0V142.855H185V142.762Z" fill="#E0E0E0"/>
<path d="M94.2427 157.873C138.193 157.873 173.822 156.851 173.822 155.59C173.822 154.329 138.193 153.307 94.2427 153.307C50.2921 153.307 14.6631 154.329 14.6631 155.59C14.6631 156.851 50.2921 157.873 94.2427 157.873Z" fill="#F5F5F5"/>
<path d="M26.0442 79.9433C24.9816 80.592 24.1272 81.5317 23.5822 82.6511C23.0373 83.7705 22.8247 85.0227 22.9695 86.2592C23.7909 92.8452 25.8703 108.659 27.2134 111.049C28.9117 114.076 52.3253 112.263 53.5426 109.506C54.7599 106.75 51.5261 79.9063 49.4726 77.7159C47.7891 75.8844 33.385 75.3442 26.0442 79.9433Z" fill="black"/>
<g opacity="0.6">
<path d="M26.0442 79.9433C24.9816 80.592 24.1272 81.5317 23.5822 82.6511C23.0373 83.7705 22.8247 85.0227 22.9695 86.2592C23.7909 92.8452 25.8703 108.659 27.2134 111.049C28.9117 114.076 52.3253 112.263 53.5426 109.506C54.7599 106.75 51.5261 79.9063 49.4726 77.7159C47.7891 75.8844 33.385 75.3442 26.0442 79.9433Z" fill="white"/>
</g>
<g opacity="0.5">
<path d="M28.7933 111.66C28.7637 111.479 25.6409 93.4744 25.2968 86.9069C24.9268 80.221 28.316 78.7003 28.4566 78.6411L28.6046 78.9815C28.5713 78.9815 25.3264 80.4615 25.6668 86.8884C26.0109 93.4337 29.1263 111.416 29.1596 111.597L28.7933 111.66Z" fill="white"/>
</g>
<path d="M42.5759 121.121H40.5039V150.55H42.5759V121.121Z" fill="black"/>
<g opacity="0.5">
<path d="M42.5759 121.121H40.5039V150.55H42.5759V121.121Z" fill="white"/>
</g>
<path d="M26.9843 150.998H25.3267V150.158C25.3267 148.686 25.9114 147.275 26.9522 146.234C27.993 145.193 29.4047 144.608 30.8767 144.608H39.6198V146.266H30.8804C29.847 146.268 28.8566 146.68 28.1263 147.411C27.3959 148.142 26.9852 149.132 26.9843 150.166V150.998Z" fill="black"/>
<g opacity="0.6">
<path d="M26.9843 150.998H25.3267V150.158C25.3267 148.686 25.9114 147.275 26.9522 146.234C27.993 145.193 29.4047 144.608 30.8767 144.608H39.6198V146.266H30.8804C29.847 146.268 28.8566 146.68 28.1263 147.411C27.3959 148.142 26.9852 149.132 26.9843 150.166V150.998Z" fill="white"/>
</g>
<path d="M28.9081 153.271C29.2667 151.751 28.3257 150.229 26.8063 149.87C25.2868 149.511 23.7643 150.452 23.4057 151.972C23.0471 153.491 23.9881 155.014 25.5076 155.372C27.027 155.731 28.5495 154.79 28.9081 153.271Z" fill="black"/>
<g opacity="0.4">
<path d="M28.9081 153.271C29.2667 151.751 28.3257 150.229 26.8063 149.87C25.2868 149.511 23.7643 150.452 23.4057 151.972C23.0471 153.491 23.9881 155.014 25.5076 155.372C27.027 155.731 28.5495 154.79 28.9081 153.271Z" fill="white"/>
</g>
<g opacity="0.5">
<path d="M26.1555 154.055C26.9422 154.055 27.58 153.417 27.58 152.63C27.58 151.843 26.9422 151.206 26.1555 151.206C25.3687 151.206 24.731 151.843 24.731 152.63C24.731 153.417 25.3687 154.055 26.1555 154.055Z" fill="white"/>
</g>
<path d="M43.5381 154.631C44.642 153.527 44.642 151.737 43.5381 150.633C42.4341 149.529 40.6443 149.529 39.5404 150.633C38.4364 151.737 38.4364 153.527 39.5404 154.631C40.6443 155.735 42.4341 155.735 43.5381 154.631Z" fill="black"/>
<g opacity="0.4">
<path d="M43.5381 154.63C44.642 153.526 44.642 151.736 43.5381 150.633C42.4341 149.529 40.6443 149.529 39.5404 150.632C38.4364 151.736 38.4364 153.526 39.5404 154.63C40.6443 155.734 42.4341 155.734 43.5381 154.63Z" fill="white"/>
</g>
<g opacity="0.5">
<path d="M41.5397 154.055C42.3265 154.055 42.9642 153.417 42.9642 152.63C42.9642 151.843 42.3265 151.206 41.5397 151.206C40.753 151.206 40.1152 151.843 40.1152 152.63C40.1152 153.417 40.753 154.055 41.5397 154.055Z" fill="white"/>
</g>
<path d="M57.5385 150.998H55.8698V150.158C55.8688 149.125 55.4581 148.134 54.7278 147.403C53.9975 146.672 53.007 146.261 51.9737 146.259H43.2417V144.601H51.9848C53.4567 144.601 54.8684 145.186 55.9092 146.227C56.9501 147.267 57.5348 148.679 57.5348 150.151L57.5385 150.998Z" fill="black"/>
<g opacity="0.6">
<path d="M57.5385 150.998H55.8698V150.158C55.8688 149.125 55.4581 148.134 54.7278 147.403C53.9975 146.672 53.007 146.261 51.9737 146.259H43.2417V144.601H51.9848C53.4567 144.601 54.8684 145.186 55.9092 146.227C56.9501 147.267 57.5348 148.679 57.5348 150.151L57.5385 150.998Z" fill="white"/>
</g>
<path d="M58.7464 154.596C59.8256 153.468 59.7859 151.679 58.6578 150.6C57.5297 149.521 55.7403 149.56 54.6611 150.688C53.5819 151.816 53.6216 153.606 54.7497 154.685C55.8778 155.764 57.6672 155.725 58.7464 154.596Z" fill="black"/>
<g opacity="0.4">
<path d="M58.7464 154.596C59.8256 153.468 59.7859 151.679 58.6578 150.6C57.5297 149.521 55.7403 149.56 54.6611 150.688C53.5819 151.816 53.6216 153.606 54.7497 154.685C55.8778 155.764 57.6672 155.725 58.7464 154.596Z" fill="white"/>
</g>
<g opacity="0.5">
<path d="M55.2852 152.63C55.2852 152.912 55.3687 153.187 55.5252 153.421C55.6818 153.656 55.9042 153.838 56.1645 153.946C56.4248 154.054 56.7112 154.082 56.9876 154.027C57.2639 153.972 57.5177 153.837 57.7169 153.637C57.9161 153.438 58.0518 153.184 58.1068 152.908C58.1617 152.632 58.1335 152.345 58.0257 152.085C57.9179 151.825 57.7353 151.602 57.5011 151.446C57.2668 151.289 56.9914 151.206 56.7097 151.206C56.3319 151.206 55.9695 151.356 55.7024 151.623C55.4352 151.89 55.2852 152.252 55.2852 152.63Z" fill="white"/>
</g>
<path d="M43.4562 142.829H39.623V148.449H43.4562V142.829Z" fill="black"/>
<g opacity="0.6">
<path d="M43.4562 142.829H39.623V148.449H43.4562V142.829Z" fill="white"/>
</g>
<path d="M43.4562 120.806H39.623V126.426H43.4562V120.806Z" fill="black"/>
<g opacity="0.6">
<path d="M43.4562 120.806H39.623V126.426H43.4562V120.806Z" fill="white"/>
</g>
<path d="M54.8822 111.164C54.8822 111.164 56.2845 111.386 59.8106 111.982C60.9872 112.182 62.1379 112.37 63.1406 112.529C64.1184 112.685 65.0085 113.185 65.6507 113.938C66.293 114.692 66.6454 115.65 66.6445 116.64C66.645 117.187 66.5377 117.729 66.3287 118.234C66.1198 118.74 65.8132 119.199 65.4267 119.586C65.0401 119.973 64.5811 120.28 64.0758 120.489C63.5705 120.698 63.029 120.806 62.482 120.806H33.9143C32.5053 120.816 31.1325 120.361 30.0077 119.512C28.8829 118.664 28.0687 117.468 27.6909 116.111C27.29 114.494 27.1366 112.827 27.2358 111.164H54.8822Z" fill="black"/>
<g opacity="0.5">
<path d="M54.8822 111.164C54.8822 111.164 56.2845 111.386 59.8106 111.982C60.9872 112.182 62.1379 112.37 63.1406 112.529C64.1184 112.685 65.0085 113.185 65.6507 113.938C66.293 114.692 66.6454 115.65 66.6445 116.64C66.645 117.187 66.5377 117.729 66.3287 118.234C66.1198 118.74 65.8132 119.199 65.4267 119.586C65.0401 119.973 64.5811 120.28 64.0758 120.489C63.5705 120.698 63.029 120.806 62.482 120.806H33.9143C32.5053 120.816 31.1325 120.361 30.0077 119.512C28.8829 118.664 28.0687 117.468 27.6909 116.111C27.29 114.494 27.1366 112.827 27.2358 111.164H54.8822Z" fill="white"/>
</g>
<path d="M49.0139 79.144C50.4754 81.3196 51.8888 83.6099 53.28 85.8299C53.9904 86.9399 54.6638 88.0499 55.3853 89.1155C55.7331 89.652 56.0883 90.1737 56.4398 90.6732C56.7913 91.1727 57.1465 91.65 57.461 92.0348L57.831 92.464C57.831 92.464 57.8532 92.4973 57.831 92.4899C57.8088 92.4825 57.7607 92.464 57.7607 92.4714C57.7697 92.4813 57.7772 92.4926 57.7829 92.5047L57.8902 92.5639C58.1086 92.6752 58.3349 92.7704 58.5673 92.8488L59.4146 93.1337C60.5986 93.5037 61.8899 93.8145 63.1738 94.1475C65.7638 94.7876 68.4093 95.4018 71.04 96.1122L70.855 98.5986C68.098 98.8798 65.3264 98.991 62.5559 98.9316C61.1536 98.9316 59.7624 98.8354 58.2935 98.6763C57.9235 98.6356 57.5535 98.5875 57.1576 98.5172C56.7281 98.4472 56.3031 98.3521 55.8848 98.2323L55.5148 98.1176C55.3668 98.0658 55.2225 98.0066 55.0782 97.9437C54.9007 97.8646 54.7277 97.7757 54.5602 97.6773C54.4011 97.5848 54.2753 97.5034 54.1495 97.4183C53.7445 97.1371 53.3577 96.8306 52.9914 96.5007C52.4086 95.969 51.8529 95.4084 51.3264 94.8209C50.8232 94.2659 50.357 93.7109 49.9019 93.1559C49.0176 92.0459 48.1555 90.9359 47.36 89.7815C45.7477 87.5231 44.2796 85.1653 42.9644 82.7219L49.0139 79.144Z" fill="#407BFF"/>
<path opacity="0.2" d="M49.4761 81.7045L47.8296 81.4307C47.8296 81.4307 47.0082 85.3601 46.3496 88.3312C46.6789 88.8159 47.0082 89.3006 47.3486 89.7853C48.1441 90.9323 49.0062 92.0386 49.8905 93.1597C50.3456 93.7147 50.8118 94.2697 51.315 94.8247C51.8416 95.4121 52.3973 95.9727 52.98 96.5045C53.3464 96.8344 53.7332 97.1408 54.1381 97.4221C54.2639 97.5072 54.3897 97.5886 54.5488 97.6811C54.7164 97.7794 54.8893 97.8683 55.0668 97.9475C55.2111 98.0104 55.3554 98.0696 55.5034 98.1214L55.8734 98.2361C56.2917 98.3558 56.7167 98.4509 57.1462 98.521C57.5347 98.5913 57.9121 98.6394 58.2821 98.6801C59.7288 98.8355 61.1015 98.9169 62.4779 98.9354H63.4325C62.082 98.8799 57.9528 98.5025 54.9225 95.9421C51.2262 92.86 49.4761 81.7045 49.4761 81.7045Z" fill="black"/>
<path d="M39.0571 75.8809C39.0571 75.8809 31.6571 76.6209 30.6285 80.4652C29.9218 83.1625 30.1327 98.9652 35.2572 108.519C36.7076 111.22 55.6368 106.572 54.8968 104.774C52.8211 99.7311 47.9482 87.6987 49.4763 81.7047C50.5493 77.5052 42.5758 76.0363 42.5758 76.0363L39.0571 75.8809Z" fill="#407BFF"/>
<path opacity="0.2" d="M37.0667 85.2642C37.0667 85.2642 36.2786 89.0382 37.6698 91.088C39.061 93.1378 42.1542 94.0147 43.9598 94.2552C45.7654 94.4957 35.5867 94.4957 35.5867 94.4957L34.0142 87.24L37.0667 85.2642Z" fill="black"/>
<g opacity="0.2">
<path d="M36.2304 107.586C34.7504 105.61 32.4305 94.4215 32.3306 93.9442L32.5119 93.9072C32.5341 94.0219 34.928 105.533 36.3821 107.475L36.2304 107.586Z" fill="white"/>
</g>
<g opacity="0.2">
<path d="M31.624 97.6035C31.624 97.6035 32.9301 101.722 38.0583 102.044C43.1865 102.365 52.8953 99.6311 52.8953 99.6311L52.6511 98.8911L31.624 97.6035Z" fill="black"/>
</g>
<path d="M40.6631 82.1299L41.7731 99.1018L44.8663 101.762L46.4499 97.9252C46.4499 97.9252 42.8535 87.5985 41.9211 81.438L40.6631 82.1299Z" fill="#263238"/>
<path d="M45.9502 62.2535C45.9502 62.2535 47.2452 63.2155 46.1352 65.3282L44.6182 62.2017L45.9502 62.2535Z" fill="#263238"/>
<path d="M36.4636 66.2978C36.4636 66.2978 34.8319 64.8437 34.9836 64.2258C35.1501 63.4858 35.99 63.7041 35.99 63.7041C35.99 63.7041 35.5608 60.8218 36.2453 60.178C36.8077 59.6452 37.655 60.548 37.655 60.548C37.655 60.548 39.5309 57.7656 40.6964 57.8137C41.8619 57.8618 41.2477 58.8312 41.2477 58.8312C41.2477 58.8312 44.2077 56.6815 45.2326 57.0922C46.2575 57.5029 45.6618 58.6166 45.6618 58.6166C45.6618 58.6166 47.8448 56.6889 48.4479 57.8766C49.051 59.0643 46.4462 60.9106 46.4462 60.9106C46.4462 60.9106 47.9262 61.2362 47.275 62.2019C47.1168 62.4685 46.8666 62.668 46.5714 62.7627C46.2763 62.8575 45.9567 62.8409 45.6729 62.7162L36.4636 66.2978Z" fill="#263238"/>
<path d="M42.7348 76.9797C42.4092 77.4126 41.758 77.9306 40.463 78.0897C38.8313 78.308 37.8397 77.2646 37.3291 76.7133C37.7838 74.1887 37.8088 71.6056 37.4031 69.0728L42.6201 73.4203C42.2612 74.6857 42.0762 75.9881 42.7348 76.9797Z" fill="#FF8B7B"/>
<g opacity="0.2">
<path d="M39.5309 70.8638L42.6204 73.4353C42.4766 73.9008 42.3775 74.3791 42.3244 74.8635C41.1441 74.6748 39.6826 73.7128 39.2386 72.4881C38.9611 71.7259 39.2386 70.9452 39.5309 70.8638Z" fill="black"/>
</g>
<path d="M36.5374 65.1582C36.4764 64.3478 36.6235 63.5352 36.9647 62.7975C37.306 62.0599 37.8301 61.4217 38.4873 60.9435C39.1445 60.4653 39.913 60.1631 40.7198 60.0654C41.5267 59.9676 42.3451 60.0777 43.0975 60.3852C46.5163 61.7801 46.9899 66.9601 46.2499 70.0829C45.4248 73.5646 41.1217 75.1741 38.4799 72.4842C36.7113 70.7008 36.7594 68.6473 36.5374 65.1582Z" fill="#FF8B7B"/>
<path d="M42.6607 67.1821C42.6322 67.1821 42.6044 67.1732 42.5811 67.1566C42.5579 67.14 42.5405 67.1166 42.5312 67.0896C42.5054 66.9881 42.4546 66.8947 42.3836 66.8178C42.3125 66.7409 42.2233 66.683 42.1242 66.6493C41.9558 66.6139 41.7802 66.643 41.6321 66.7307C41.6145 66.7551 41.5894 66.773 41.5607 66.7817C41.5319 66.7903 41.5011 66.7893 41.473 66.7788C41.4384 66.7662 41.4101 66.7406 41.3942 66.7074C41.3783 66.6742 41.376 66.636 41.3879 66.6012C41.436 66.468 41.7579 66.357 41.9799 66.357C42.1683 66.3547 42.3518 66.417 42.4998 66.5335C42.6479 66.6499 42.7517 66.8135 42.7939 66.9971C42.8058 67.0319 42.8036 67.0701 42.7877 67.1033C42.7717 67.1365 42.7434 67.1621 42.7088 67.1747L42.6607 67.1821Z" fill="#263238"/>
<path d="M44.8327 67.2374H44.7994C44.7819 67.2331 44.7654 67.2253 44.7509 67.2146C44.7364 67.2039 44.7241 67.1904 44.7148 67.1749C44.7055 67.1594 44.6994 67.1423 44.6968 67.1244C44.6941 67.1066 44.6951 67.0884 44.6995 67.0709C44.8253 66.5566 45.1472 66.4567 45.3285 66.4456C45.5098 66.4345 45.865 66.5455 45.9168 66.6713C45.9302 66.7057 45.9296 66.7439 45.9151 66.7779C45.9005 66.8118 45.8732 66.8386 45.8391 66.8526C45.8107 66.8632 45.7797 66.8646 45.7505 66.8567C45.7213 66.8487 45.6953 66.8317 45.6763 66.8082C45.6154 66.7694 45.5474 66.7432 45.4762 66.7311C45.405 66.719 45.3322 66.7213 45.2619 66.7379C45.182 66.7728 45.1126 66.8281 45.0606 66.8982C45.0087 66.9683 44.976 67.0508 44.9659 67.1375C44.9583 67.1668 44.941 67.1927 44.9168 67.2108C44.8926 67.229 44.8629 67.2383 44.8327 67.2374Z" fill="#263238"/>
<path d="M45.0176 70.0348C44.9161 70.2959 44.7508 70.5275 44.5369 70.7084C44.323 70.8894 44.0673 71.014 43.7929 71.0708C43.6615 71.0973 43.5269 71.1048 43.3933 71.093C43.1194 71.0925 42.8506 71.0179 42.6155 70.8773C42.3804 70.7366 42.1876 70.535 42.0576 70.2938C41.921 70.0422 41.8319 69.7675 41.7949 69.4835C41.7919 69.4564 41.7959 69.429 41.8065 69.4039C41.8171 69.3787 41.834 69.3568 41.8555 69.34C41.8771 69.3233 41.9025 69.3124 41.9295 69.3084C41.9565 69.3044 41.984 69.3073 42.0095 69.317C42.0095 69.317 42.0095 69.317 42.0317 69.317C42.9374 69.6564 43.8989 69.8221 44.8659 69.8054C44.9055 69.8055 44.9436 69.82 44.9732 69.8461C45.0015 69.8674 45.0214 69.898 45.0295 69.9324C45.0376 69.9669 45.0334 70.0031 45.0176 70.0348Z" fill="#263238"/>
<path d="M43.7929 71.071C43.6615 71.0974 43.5269 71.1049 43.3933 71.0932C43.1193 71.0926 42.8506 71.0181 42.6155 70.8774C42.3804 70.7367 42.1876 70.5351 42.0576 70.294C42.4768 70.2341 42.9041 70.2746 43.3045 70.4124C43.4471 70.4531 43.5722 70.5397 43.6605 70.6588C43.7488 70.7778 43.7954 70.9227 43.7929 71.071Z" fill="#FF5652"/>
<path d="M44.9737 69.8574C44.947 69.9149 44.9107 69.9675 44.8664 70.0128C44.5852 70.3014 42.3282 69.8315 42.1654 69.702C42.0744 69.6008 42.0266 69.468 42.0322 69.332C42.9378 69.6714 43.8994 69.8371 44.8664 69.8204C44.9054 69.8195 44.9435 69.8326 44.9737 69.8574Z" fill="white"/>
<path d="M36.4782 65.9241C36.4782 66.0869 37.2441 67.4337 38.1913 67.1599C39.1385 66.8861 38.5613 64.3072 38.5613 64.3072C38.5613 64.3072 40.4113 64.4848 39.8637 62.9308C40.3055 63.2062 40.829 63.3198 41.3452 63.2523C41.8613 63.1848 42.3381 62.9405 42.6942 62.5608C42.6942 62.5608 44.8846 63.9113 45.9465 63.0973C45.9465 63.0973 46.0723 60.0004 42.5647 59.2012C40.5889 58.7683 36.197 60.3001 36.4782 65.9241Z" fill="#263238"/>
<path d="M35.0464 68.0703C35.2935 68.9117 35.8625 69.6217 36.63 70.0461C37.6586 70.5937 38.4245 69.7353 38.3468 68.6364C38.2802 67.6448 37.6623 66.1648 36.5301 66.0686C35.3979 65.9724 34.7393 67.038 35.0501 68.074" fill="#FF8B7B"/>
<path d="M45.9911 65.5654C45.9669 65.5618 45.944 65.5521 45.9246 65.5372C45.9051 65.5223 45.8898 65.5028 45.8801 65.4803C45.837 65.3924 45.7763 65.3142 45.7019 65.2506C45.6274 65.1869 45.5407 65.1392 45.4472 65.1103C45.2555 65.0715 45.0563 65.1016 44.8848 65.1954C44.8534 65.2141 44.8158 65.2195 44.7804 65.2105C44.7451 65.2014 44.7147 65.1787 44.6961 65.1473C44.6774 65.1159 44.672 65.0784 44.681 65.043C44.69 65.0076 44.7128 64.9773 44.7442 64.9586C44.9789 64.8223 45.2565 64.78 45.5212 64.8402C45.6498 64.8794 45.7692 64.9442 45.8722 65.0307C45.9752 65.1172 46.0597 65.2235 46.1206 65.3434C46.1297 65.3592 46.1357 65.3766 46.1381 65.3947C46.1404 65.4127 46.1392 65.4311 46.1343 65.4487C46.1295 65.4662 46.1212 65.4827 46.11 65.497C46.0987 65.5113 46.0847 65.5233 46.0688 65.5321C46.048 65.5527 46.0203 65.5646 45.9911 65.5654Z" fill="#263238"/>
<path d="M41.1475 65.6763C41.1279 65.6797 41.1079 65.6797 41.0883 65.6763C41.0719 65.6684 41.0572 65.6574 41.0452 65.6438C41.0331 65.6301 41.0239 65.6143 41.018 65.597C41.0122 65.5798 41.0098 65.5616 41.0111 65.5434C41.0123 65.5253 41.0172 65.5076 41.0254 65.4913C41.1474 65.249 41.3561 65.0615 41.61 64.9659C41.7395 64.9271 41.8757 64.9153 42.0099 64.9312C42.1442 64.9471 42.2738 64.9904 42.3907 65.0584C42.418 65.078 42.4375 65.1067 42.4455 65.1394C42.4535 65.172 42.4495 65.2064 42.4343 65.2364C42.4191 65.2664 42.3936 65.2899 42.3626 65.3028C42.3315 65.3156 42.2968 65.3169 42.2649 65.3063C42.1804 65.2565 42.0868 65.224 41.9896 65.2106C41.8925 65.1973 41.7936 65.2034 41.6988 65.2286C41.5182 65.2987 41.3678 65.4296 41.2733 65.5986C41.2613 65.6217 41.2433 65.6411 41.2211 65.6548C41.199 65.6685 41.1735 65.6759 41.1475 65.6763Z" fill="#263238"/>
<path d="M42.0724 68.0403C41.7221 68.0378 41.3871 67.8963 41.1411 67.6468C40.8951 67.3974 40.7583 67.0604 40.7608 66.7101C40.7632 66.3598 40.9047 66.0248 41.1542 65.7788C41.4037 65.5328 41.7406 65.396 42.0909 65.3985C42.2644 65.4004 42.4359 65.4368 42.5953 65.5053C42.7547 65.5739 42.8989 65.6734 43.0196 65.7981C43.2008 65.9842 43.3231 66.2197 43.3712 66.475C43.4192 66.7303 43.3909 66.9941 43.2898 67.2334C43.1887 67.4727 43.0193 67.6769 42.8028 67.8204C42.5863 67.9639 42.3322 68.0404 42.0724 68.0403ZM42.0909 65.5835C41.7897 65.5835 41.5007 65.7031 41.2877 65.9162C41.0747 66.1292 40.955 66.4181 40.955 66.7194C40.955 67.0206 41.0747 67.3095 41.2877 67.5226C41.5007 67.7356 41.7897 67.8553 42.0909 67.8553C42.3878 67.8553 42.6728 67.7392 42.8851 67.5318C43.0974 67.3243 43.2201 67.042 43.2268 66.7453C43.2308 66.4459 43.1164 66.1571 42.9086 65.9416C42.7007 65.7261 42.4162 65.6014 42.1168 65.5946L42.0909 65.5835Z" fill="white"/>
<path d="M45.488 67.8593C45.3144 67.858 45.1428 67.822 44.9833 67.7533C44.8238 67.6847 44.6796 67.5849 44.5593 67.4597C44.3837 67.2733 44.2663 67.0396 44.2215 66.7875C44.1767 66.5353 44.2063 66.2755 44.3068 66.04C44.4074 65.8044 44.5744 65.6032 44.7874 65.4611C45.0005 65.319 45.2504 65.2421 45.5065 65.2397C45.6801 65.2411 45.8517 65.2771 46.0112 65.3458C46.1707 65.4144 46.3148 65.5142 46.4352 65.6393C46.6776 65.8901 46.8106 66.2267 46.8052 66.5754C46.8028 66.7489 46.7663 66.9202 46.6977 67.0795C46.6292 67.2389 46.5299 67.3832 46.4056 67.5041C46.1577 67.7376 45.8284 67.8651 45.488 67.8593ZM45.488 65.4062C45.3014 65.4055 45.1176 65.4508 44.9527 65.538C44.7878 65.6252 44.6469 65.7517 44.5425 65.9063C44.438 66.0609 44.3733 66.2389 44.354 66.4244C44.3346 66.6099 44.3613 66.7974 44.4316 66.9702C44.5019 67.143 44.6137 67.2958 44.757 67.4152C44.9004 67.5345 45.071 67.6167 45.2537 67.6545C45.4364 67.6923 45.6255 67.6845 45.8045 67.6318C45.9835 67.5791 46.1467 67.4832 46.2798 67.3524C46.3876 67.2497 46.4736 67.1263 46.5327 66.9897C46.5918 66.853 46.6228 66.7058 46.6239 66.5569C46.6288 66.2573 46.5148 65.9679 46.3067 65.7522C46.0986 65.5365 45.8135 65.4121 45.5139 65.4062H45.488Z" fill="white"/>
<path d="M43.7744 66.3975C44.1542 66.9926 44.6094 67.5361 45.1286 68.0144C45.8427 68.6101 44.0186 69.0282 44.0186 69.0282L43.7744 66.3975Z" fill="#FF5652"/>
<path d="M44.2591 66.6158C44.2436 66.6212 44.2266 66.6212 44.211 66.6158C44.0884 66.5255 43.9408 66.4753 43.7885 66.472C43.6362 66.4687 43.4866 66.5124 43.36 66.5973C43.3409 66.613 43.3163 66.6205 43.2917 66.6181C43.2671 66.6156 43.2444 66.6035 43.2287 66.5844C43.213 66.5652 43.2055 66.5407 43.208 66.516C43.2104 66.4914 43.2225 66.4687 43.2416 66.453C43.3982 66.3428 43.5849 66.2837 43.7763 66.2837C43.9677 66.2837 44.1544 66.3428 44.3109 66.453C44.3211 66.4594 44.3299 66.4678 44.3368 66.4776C44.3436 66.4875 44.3484 66.4986 44.3508 66.5104C44.3532 66.5221 44.3532 66.5343 44.3508 66.546C44.3484 66.5578 44.3437 66.569 44.3368 66.5788C44.3279 66.5908 44.3161 66.6005 44.3026 66.6069C44.289 66.6134 44.2741 66.6164 44.2591 66.6158Z" fill="white"/>
<path d="M40.8663 66.5677C40.8447 66.5669 40.8239 66.5591 40.8071 66.5455C40.4023 66.2254 39.9031 66.0483 39.3871 66.0416C38.8711 66.0349 38.3674 66.199 37.9544 66.5085C37.9445 66.5156 37.9332 66.5207 37.9213 66.5234C37.9094 66.5261 37.8971 66.5265 37.885 66.5244C37.873 66.5223 37.8615 66.5179 37.8512 66.5114C37.8408 66.5048 37.8319 66.4963 37.8249 66.4863C37.8115 66.4659 37.8063 66.4412 37.8105 66.4172C37.8146 66.3931 37.8277 66.3716 37.8471 66.3568C38.2958 66.0293 38.8389 65.8569 39.3944 65.8655C39.9498 65.8742 40.4873 66.0636 40.9255 66.4049C40.9344 66.4132 40.9414 66.4232 40.9462 66.4344C40.9511 66.4455 40.9535 66.4575 40.9535 66.4697C40.9535 66.4818 40.9511 66.4938 40.9462 66.5049C40.9414 66.5161 40.9344 66.5261 40.9255 66.5344C40.9107 66.5526 40.8896 66.5645 40.8663 66.5677Z" fill="white"/>
<path d="M37.4366 75.3701C37.4366 75.3701 35.4275 75.4478 34.8799 77.2867L39.2866 82.0523L40.4632 78.1081C40.4632 78.1081 37.74 77.1461 37.4366 75.3701Z" fill="#407BFF"/>
<path d="M39.1533 82.0006H39.1089C36.7298 80.7685 34.9168 77.4866 34.8983 77.4533C34.8875 77.4316 34.8852 77.4065 34.8921 77.3832C34.899 77.3598 34.9144 77.3399 34.9353 77.3275C34.9571 77.3167 34.9822 77.3144 35.0055 77.3213C35.0289 77.3282 35.0487 77.3436 35.0611 77.3645C35.0611 77.3978 36.8667 80.6316 39.194 81.8378C39.212 81.8475 39.2262 81.8627 39.2345 81.8813C39.2429 81.8998 39.2449 81.9206 39.2403 81.9404C39.2356 81.9602 39.2246 81.9779 39.2089 81.9908C39.1932 82.0037 39.1737 82.0111 39.1533 82.0117V82.0006Z" fill="white"/>
<path d="M42.9198 81.0203C42.9054 81.0203 42.8913 81.0169 42.8784 81.0105C42.8656 81.0041 42.8544 80.9948 42.8458 80.9833C42.8288 80.966 42.8193 80.9427 42.8193 80.9185C42.8193 80.8943 42.8288 80.8711 42.8458 80.8538C43.9558 79.988 44.8882 77.0391 44.8993 77.0095C44.9061 76.9859 44.9221 76.9661 44.9436 76.9543C44.9651 76.9425 44.9904 76.9397 45.014 76.9466C45.0378 76.9542 45.0577 76.9709 45.0695 76.993C45.0812 77.0151 45.0839 77.0409 45.0769 77.065C45.0362 77.1871 44.1334 80.099 42.9568 81.0018C42.946 81.0106 42.9333 81.017 42.9198 81.0203Z" fill="white"/>
<path d="M42.2315 75.7032C42.2315 75.7032 41.7505 77.5162 40.4629 78.1082L42.7458 80.6427C42.7458 80.6427 44.8363 77.9343 44.6217 76.5727C44.3253 76.2426 43.9522 75.9906 43.5353 75.839C43.1185 75.6874 42.6707 75.6407 42.2315 75.7032Z" fill="#407BFF"/>
<path d="M40.4632 78.1084L39.2866 82.0526L41.4733 83.7546L42.7461 80.6429L40.4632 78.1084Z" fill="#263238"/>
<path d="M45.2326 106.413C45.2326 106.413 41.0072 115.992 50.0722 118.408C56.2697 120.062 65.2977 115.9 69.2937 117.217C69.2937 117.217 67.551 117.831 65.5345 124.58C63.518 131.329 59.6145 147.701 59.6145 147.701L64.4245 147.897C64.4245 147.897 77.7038 117.887 77.9628 113.117C78.2218 108.348 54.4604 104.94 54.4604 104.94L45.2326 106.413Z" fill="#263238"/>
<path d="M70.444 113.41C70.185 118.172 54.0049 147.864 54.0049 147.864L49.6426 147.75H49.4502L48.022 147.713C48.022 147.713 52.9097 132.154 54.9188 125.42C56.7466 119.304 59.0887 118.623 59.5105 118.549C54.127 119.115 47.4781 119.811 40.215 119.045C30.8207 118.054 34.8944 107.782 34.8944 107.782L36.5076 107.571L36.7111 107.546L45.2211 106.436C45.2211 106.436 70.6993 108.648 70.444 113.41Z" fill="#263238"/>
<g opacity="0.2">
<path d="M37.5549 111.431C37.075 111.427 36.5971 111.368 36.1304 111.257L36.1711 111.075C37.6289 111.412 38.8795 111.242 39.8711 110.565C41.7211 109.333 42.1466 106.813 42.1503 106.787L42.3316 106.817C42.3316 106.846 41.8839 109.44 39.9747 110.72C39.2567 111.193 38.4142 111.44 37.5549 111.431Z" fill="white"/>
</g>
<g opacity="0.2">
<path d="M61.5123 118.168C59.2263 121.249 57.3159 124.591 55.8217 128.125C53.3723 133.923 49.935 146.658 49.6427 147.735V147.809C49.6366 147.829 49.6243 147.846 49.6077 147.859C49.5912 147.871 49.571 147.878 49.5502 147.879H49.528C49.5048 147.871 49.4852 147.855 49.4729 147.834C49.4607 147.813 49.4566 147.788 49.4614 147.764V147.735C49.6501 147.039 53.1614 133.948 55.6626 128.043C57.163 124.499 59.0795 121.145 61.3717 118.053C62.2301 116.858 62.7962 116.07 62.6889 115.696C62.6693 115.64 62.6365 115.59 62.5934 115.55C62.5502 115.509 62.498 115.479 62.441 115.463C61.9082 115.241 59.481 115.504 56.3915 115.833C50.6602 116.455 42.8125 117.313 38.8794 116.059C38.383 115.912 37.9222 115.664 37.5256 115.331C37.1291 114.998 36.8053 114.587 36.5743 114.124C35.4014 111.819 36.2487 108.467 36.5188 107.542L36.7223 107.516C36.4966 108.282 35.5753 111.756 36.7223 114.042C36.9426 114.485 37.2513 114.877 37.6293 115.195C38.0074 115.514 38.4467 115.751 38.9201 115.892C42.8162 117.132 50.6454 116.281 56.3582 115.659C59.5883 115.308 61.9082 115.056 62.4965 115.289C62.5842 115.315 62.6639 115.363 62.7286 115.427C62.7932 115.492 62.8406 115.572 62.8665 115.659C62.9849 116.114 62.4632 116.843 61.5123 118.168Z" fill="white"/>
</g>
<path d="M48.6809 147.709L47.9224 151.557H51.0563L52.8323 148.153L48.6809 147.709Z" fill="#FF8B7B"/>
<path d="M47.9115 150.772C47.9115 150.772 47.1936 150.661 47.2306 151.557C47.2676 152.452 46.4906 154.609 46.5276 155.438H56.1476C56.1476 155.438 56.4584 153.385 54.712 153.322C52.3736 153.24 51.5781 151.897 51.5781 151.897C51.4412 150.957 50.7678 151.272 49.7799 151.372C48.8919 151.464 47.9115 150.772 47.9115 150.772Z" fill="#407BFF"/>
<path d="M52.0925 152.43C51.9605 152.451 51.834 152.497 51.7203 152.567C51.6065 152.637 51.5079 152.729 51.4302 152.837" fill="black"/>
<path d="M51.4301 152.93C51.4145 152.934 51.3977 152.934 51.382 152.93C51.3614 152.916 51.3468 152.895 51.3413 152.871C51.3358 152.847 51.3398 152.821 51.3524 152.8C51.4402 152.681 51.5509 152.581 51.678 152.505C51.8051 152.43 51.946 152.38 52.0924 152.36C52.1164 152.358 52.1402 152.365 52.1589 152.38C52.1775 152.395 52.1895 152.417 52.1923 152.441C52.1939 152.453 52.193 152.466 52.1897 152.477C52.1865 152.489 52.1809 152.5 52.1733 152.51C52.1657 152.52 52.1563 152.528 52.1456 152.534C52.1349 152.54 52.1231 152.543 52.1109 152.545C51.9908 152.563 51.8755 152.605 51.772 152.669C51.6684 152.732 51.5786 152.816 51.5078 152.915C51.4969 152.923 51.4842 152.929 51.4707 152.931C51.4572 152.934 51.4433 152.933 51.4301 152.93Z" fill="black"/>
<path d="M52.5401 152.637C52.4069 152.655 52.2786 152.7 52.1629 152.769C52.0473 152.837 51.9465 152.929 51.8667 153.037" fill="black"/>
<path d="M51.8701 153.129C51.8542 153.133 51.8378 153.133 51.822 153.129C51.8013 153.116 51.7867 153.095 51.7812 153.071C51.7757 153.046 51.7797 153.021 51.7924 153C51.8802 152.881 51.9909 152.781 52.1179 152.705C52.245 152.629 52.3859 152.58 52.5324 152.56C52.5569 152.557 52.5814 152.564 52.6005 152.58C52.6196 152.596 52.6317 152.618 52.6341 152.643C52.6366 152.667 52.6292 152.692 52.6136 152.711C52.598 152.73 52.5754 152.742 52.5509 152.745C52.4309 152.763 52.3157 152.806 52.2122 152.869C52.1087 152.933 52.0188 153.016 51.9478 153.115C51.9368 153.123 51.9241 153.129 51.9107 153.131C51.8972 153.134 51.8833 153.133 51.8701 153.129Z" fill="black"/>
<path d="M53.0984 152.904C52.9658 152.922 52.8381 152.967 52.7231 153.036C52.6081 153.104 52.508 153.195 52.4287 153.303" fill="black"/>
<path d="M52.4292 153.396C52.4135 153.401 52.3967 153.401 52.3811 153.396C52.3604 153.382 52.3458 153.361 52.3403 153.337C52.3348 153.313 52.3388 153.288 52.3515 153.266C52.4393 153.147 52.5499 153.047 52.677 152.972C52.8041 152.896 52.945 152.846 53.0915 152.826C53.1158 152.824 53.1401 152.831 53.1594 152.846C53.1786 152.861 53.1914 152.883 53.1951 152.907C53.1966 152.92 53.1957 152.932 53.1925 152.944C53.1892 152.956 53.1836 152.967 53.176 152.976C53.1685 152.986 53.159 152.994 53.1483 153C53.1376 153.006 53.1258 153.01 53.1137 153.011C52.9935 153.029 52.8783 153.072 52.7747 153.135C52.6711 153.199 52.5813 153.282 52.5106 153.381C52.4991 153.39 52.4857 153.395 52.4716 153.398C52.4575 153.401 52.4429 153.4 52.4292 153.396Z" fill="black"/>
<path d="M56.0773 154.879H46.5905C46.566 154.879 46.5425 154.87 46.5251 154.852C46.5078 154.835 46.498 154.811 46.498 154.787C46.498 154.762 46.5078 154.739 46.5251 154.721C46.5425 154.704 46.566 154.694 46.5905 154.694H56.0773C56.1019 154.694 56.1254 154.704 56.1428 154.721C56.1601 154.739 56.1698 154.762 56.1698 154.787C56.1698 154.811 56.1601 154.835 56.1428 154.852C56.1254 154.87 56.1019 154.879 56.0773 154.879Z" fill="black"/>
<path d="M54.4823 149.374H47.0527L47.5226 147.087H54.9485L54.4823 149.374Z" fill="#263238"/>
<g opacity="0.3">
<path d="M54.4823 149.374H47.0527L47.5226 147.087H54.9485L54.4823 149.374Z" fill="white"/>
</g>
<path d="M60.1694 147.709L59.5737 151.557H62.7076L64.0433 148.12L60.1694 147.709Z" fill="#FF8B7B"/>
<path d="M59.5328 150.772C59.5328 150.772 58.7928 150.661 58.8816 151.557C58.9704 152.452 58.2711 154.609 58.3414 155.438H67.9614C67.9614 155.438 68.1834 153.385 66.4333 153.322C64.0949 153.24 63.2402 151.897 63.2402 151.897C63.0663 150.957 62.404 151.272 61.4198 151.372C60.5392 151.464 59.5328 150.772 59.5328 150.772Z" fill="#407BFF"/>
<path d="M63.7843 152.43C63.6534 152.448 63.5277 152.493 63.4149 152.561C63.3022 152.63 63.205 152.721 63.1294 152.83" fill="black"/>
<path d="M63.1295 152.93C63.1139 152.935 63.0971 152.935 63.0814 152.93C63.0709 152.924 63.0618 152.916 63.0546 152.906C63.0474 152.896 63.0422 152.885 63.0395 152.873C63.0367 152.862 63.0364 152.849 63.0385 152.837C63.0406 152.825 63.0452 152.814 63.0518 152.804C63.1364 152.682 63.2461 152.579 63.3738 152.502C63.5014 152.425 63.6439 152.377 63.7918 152.36C63.816 152.359 63.8399 152.366 63.8589 152.381C63.878 152.396 63.891 152.418 63.8954 152.441C63.8976 152.466 63.8904 152.49 63.8752 152.509C63.8601 152.529 63.8382 152.541 63.814 152.545C63.6962 152.563 63.5834 152.605 63.4828 152.669C63.3822 152.732 63.2959 152.816 63.2294 152.915C63.2156 152.926 63.199 152.933 63.1815 152.936C63.1639 152.939 63.146 152.936 63.1295 152.93Z" fill="black"/>
<path d="M64.2394 152.637C64.1085 152.655 63.9827 152.7 63.87 152.768C63.7573 152.837 63.6601 152.929 63.5845 153.037" fill="black"/>
<path d="M63.5846 153.129C63.57 153.132 63.5548 153.132 63.5402 153.129C63.5192 153.117 63.5039 153.097 63.4977 153.073C63.4915 153.05 63.4948 153.025 63.5069 153.003C63.5918 152.881 63.7017 152.779 63.8292 152.702C63.9568 152.625 64.0992 152.577 64.2469 152.559C64.2713 152.557 64.2956 152.565 64.3148 152.58C64.3341 152.595 64.3469 152.617 64.3505 152.641C64.3521 152.653 64.3512 152.665 64.3479 152.677C64.3447 152.689 64.3391 152.7 64.3315 152.71C64.3239 152.719 64.3145 152.727 64.3038 152.733C64.2931 152.739 64.2813 152.743 64.2691 152.744C64.1529 152.76 64.0411 152.799 63.9406 152.86C63.8401 152.92 63.7529 153.001 63.6845 153.096C63.6729 153.111 63.6573 153.122 63.6395 153.127C63.6218 153.133 63.6027 153.134 63.5846 153.129Z" fill="black"/>
<path d="M64.8092 152.904C64.6783 152.921 64.5526 152.966 64.4398 153.035C64.3271 153.104 64.2299 153.195 64.1543 153.303" fill="black"/>
<path d="M64.1545 153.396C64.1388 153.401 64.122 153.401 64.1063 153.396C64.086 153.383 64.0715 153.362 64.0659 153.339C64.0604 153.315 64.0643 153.291 64.0767 153.27C64.1596 153.15 64.2666 153.049 64.3908 152.972C64.515 152.896 64.6538 152.846 64.7983 152.826C64.8226 152.824 64.8469 152.831 64.8662 152.846C64.8854 152.861 64.8982 152.883 64.9019 152.907C64.904 152.932 64.8968 152.956 64.8817 152.975C64.8665 152.995 64.8447 153.007 64.8205 153.011C64.7027 153.029 64.5899 153.071 64.4892 153.135C64.3886 153.198 64.3023 153.282 64.2359 153.381C64.2241 153.389 64.2108 153.395 64.1968 153.397C64.1827 153.4 64.1683 153.399 64.1545 153.396Z" fill="black"/>
<path d="M67.8654 154.879H58.3786C58.3541 154.879 58.3306 154.87 58.3132 154.852C58.2959 154.835 58.2861 154.811 58.2861 154.787C58.2861 154.762 58.2959 154.739 58.3132 154.721C58.3306 154.704 58.3541 154.694 58.3786 154.694H67.8654C67.89 154.694 67.9135 154.704 67.9308 154.721C67.9482 154.739 67.9579 154.762 67.9579 154.787C67.9579 154.811 67.9482 154.835 67.9308 154.852C67.9135 154.87 67.89 154.879 67.8654 154.879Z" fill="black"/>
<path d="M65.2345 149.374H58.6152L58.9445 147.087H65.5638L65.2345 149.374Z" fill="#263238"/>
<g opacity="0.3">
<path d="M65.2345 149.374H58.6152L58.9445 147.087H65.5638L65.2345 149.374Z" fill="white"/>
</g>
<path d="M37.8249 83.3254L37.6769 83.6732L37.503 84.0987C37.392 84.3836 37.2773 84.6759 37.17 84.9682C36.9628 85.5565 36.7593 86.1448 36.6039 86.7294C36.2864 87.796 36.0964 88.8964 36.0378 90.0076C36.0246 90.429 36.0556 90.8507 36.1303 91.2656C36.1785 91.5515 36.2695 91.8284 36.4004 92.087C36.5301 92.3094 36.698 92.5073 36.8962 92.6716C37.1963 92.9077 37.534 93.0915 37.8952 93.2155C38.3763 93.3834 38.8717 93.5072 39.3752 93.5855L39.5898 93.6225L39.8562 93.6632L40.389 93.7409L41.4583 93.8926C42.8865 94.0949 44.3196 94.2922 45.7577 94.4846C48.6289 94.8731 51.5445 95.2246 54.4157 95.6538L54.486 99.5018C51.5124 99.9633 48.5159 100.262 45.5098 100.397C44.0113 100.464 42.5128 100.516 41.0069 100.516H39.0311H38.6981C37.7492 100.463 36.8082 100.313 35.8898 100.068C34.8315 99.7982 33.819 99.373 32.8854 98.8062C32.3734 98.4929 31.8926 98.1311 31.4498 97.7258C31.0008 97.3045 30.5932 96.8411 30.2325 96.342C29.5479 95.3756 29.0393 94.2959 28.7303 93.1526C28.4582 92.1385 28.3128 91.0945 28.2974 90.0446C28.284 88.2142 28.5332 86.3912 29.0374 84.6315C29.2625 83.8094 29.5292 82.9993 29.8366 82.2043C29.9883 81.8121 30.1474 81.4199 30.3213 81.0314L30.5951 80.4468L30.7394 80.1471L30.917 79.7993L37.8249 83.3254Z" fill="#407BFF"/>
<g opacity="0.2">
<path d="M35.0022 99.8233C35.0022 99.8048 34.9504 98.1028 33.8108 97.0631C32.6712 96.0234 30.7287 96.7227 30.7065 96.7301L30.6436 96.5562C30.7287 96.5266 32.723 95.8162 33.9329 96.9262C35.1428 98.0362 35.1872 99.7456 35.1872 99.8196L35.0022 99.8233Z" fill="white"/>
</g>
<path d="M61.827 99.5201H58.201L54.4418 99.3462L54.02 96.7932C54.02 96.7932 57.5572 96.4861 58.6043 96.7932C58.6043 96.7932 61.2683 98.0808 61.6198 98.5396C61.7224 98.6788 61.794 98.8383 61.8297 99.0074C61.8655 99.1765 61.8645 99.3514 61.827 99.5201Z" fill="#FF8B7B"/>
<path d="M52.4177 99.5942C52.4048 99.5941 52.3921 99.591 52.3806 99.5852C52.369 99.5795 52.3589 99.5711 52.3511 99.5609C51.637 98.7395 51.5704 96.1532 51.5704 96.0422C51.5699 96.0302 51.5718 96.0183 51.5761 96.0071C51.5803 95.9959 51.5868 95.9857 51.5951 95.977C51.6033 95.9684 51.6133 95.9615 51.6243 95.9568C51.6354 95.9521 51.6472 95.9497 51.6592 95.9497C51.6831 95.9497 51.7061 95.9589 51.7233 95.9755C51.7406 95.992 51.7507 96.0146 51.7517 96.0385C51.7517 96.0644 51.8183 98.6692 52.4917 99.4388C52.5089 99.4567 52.5185 99.4806 52.5185 99.5054C52.5185 99.5302 52.5089 99.5541 52.4917 99.572C52.4814 99.5804 52.4696 99.5867 52.4569 99.5906C52.4442 99.5944 52.4309 99.5956 52.4177 99.5942Z" fill="white"/>
<path d="M51.8997 98.2693C51.8877 98.2698 51.8758 98.2679 51.8646 98.2637C51.8534 98.2594 51.8432 98.253 51.8345 98.2447C51.8259 98.2364 51.819 98.2264 51.8143 98.2154C51.8096 98.2044 51.8072 98.1925 51.8072 98.1806C51.8067 98.1684 51.8086 98.1563 51.8128 98.1449C51.817 98.1334 51.8234 98.123 51.8317 98.114C51.8399 98.1051 51.8498 98.0979 51.8609 98.0928C51.8719 98.0877 51.8839 98.0848 51.896 98.0843L54.2233 97.9845C54.2355 97.984 54.2476 97.9859 54.259 97.9901C54.2704 97.9942 54.2809 98.0007 54.2898 98.0089C54.2988 98.0171 54.306 98.0271 54.3111 98.0381C54.3162 98.0492 54.319 98.0611 54.3195 98.0732C54.3205 98.0852 54.3191 98.0973 54.3153 98.1086C54.3115 98.12 54.3055 98.1306 54.2975 98.1396C54.2896 98.1485 54.2799 98.1558 54.269 98.161C54.2582 98.1661 54.2464 98.169 54.2344 98.1695L51.9034 98.2693H51.8997Z" fill="white"/>
<path d="M78.418 98.78H74.57L70.5814 98.5913L70.1226 95.9051C70.1226 95.9051 73.8744 95.5758 74.9881 95.9051C74.9881 95.9051 77.8149 97.2741 78.1849 97.7551C78.2938 97.8999 78.3709 98.066 78.4111 98.2426C78.4513 98.4193 78.4536 98.6024 78.418 98.78Z" fill="#FF8B7B"/>
<path d="M80.4233 77.4824C80.4233 77.4824 80.1014 105.602 80.4233 113.054C80.76 120.824 82.758 147.464 82.7802 147.361H87.5606C87.5606 147.361 91.5233 95.1499 91.8933 89.6591C92.0765 86.1887 91.5904 82.7154 90.4614 79.4286L80.4233 77.4824Z" fill="#407BFF"/>
<path d="M102.12 80.472C102.12 80.472 104.477 106.572 104.862 114.001C105.247 121.431 106.279 147.62 106.279 147.62L101.195 147.331C101.195 147.331 92.0301 94.791 91.0829 89.3224C90.1357 83.8538 91.2679 80.4424 91.2679 80.4424L102.12 80.472Z" fill="#407BFF"/>
<g opacity="0.2">
<path d="M102.649 87.7244C102.233 87.7397 101.818 87.6668 101.431 87.5106C101.045 87.3544 100.696 87.1184 100.407 86.8179C98.9826 85.3157 99.1824 82.5074 99.1898 82.3779H99.3748C99.3748 82.4075 99.175 85.2232 100.544 86.6662C100.828 86.9577 101.172 87.1843 101.552 87.3305C101.932 87.4767 102.339 87.5392 102.746 87.5135V87.6985L102.649 87.7244Z" fill="white"/>
</g>
<g opacity="0.2">
<path d="M92.7074 89.4149C92.5423 89.4127 92.3786 89.384 92.2227 89.3298L92.2819 89.1559C92.5092 89.249 92.7617 89.2604 92.9965 89.1883C93.2312 89.1161 93.4337 88.9647 93.5695 88.76C93.8026 88.4279 93.9232 88.0298 93.9136 87.6241V82.396H94.0986V87.6241C94.1107 88.0685 93.9811 88.5052 93.7286 88.871C93.6147 89.0372 93.4624 89.1734 93.2846 89.2681C93.1068 89.3628 92.9088 89.4132 92.7074 89.4149Z" fill="white"/>
</g>
<g opacity="0.2">
<path d="M92.3447 82.0005H92.1597V92.0608H92.3447V82.0005Z" fill="white"/>
</g>
<g opacity="0.2">
<path d="M102.76 147.52C102.739 147.52 102.718 147.513 102.702 147.499C102.686 147.486 102.675 147.467 102.671 147.446L93.0513 92.5525C93.0469 92.5285 93.0523 92.5037 93.0662 92.4836C93.08 92.4635 93.1013 92.4497 93.1253 92.4452C93.1374 92.4431 93.1499 92.4434 93.1619 92.4462C93.174 92.449 93.1853 92.4542 93.1953 92.4614C93.2053 92.4687 93.2137 92.4778 93.2201 92.4884C93.2265 92.499 93.2308 92.5107 93.2326 92.5229L102.853 147.412C102.855 147.425 102.854 147.437 102.852 147.449C102.849 147.461 102.844 147.472 102.836 147.482C102.829 147.492 102.82 147.501 102.809 147.507C102.799 147.514 102.787 147.518 102.775 147.52H102.76Z" fill="white"/>
</g>
<path d="M87.0983 147.609L86.9984 151.505H83.8608L83.1504 148.023L87.0983 147.609Z" fill="#CE7A63"/>
<path d="M87.1794 150.713C87.1794 150.713 87.9194 150.598 87.6863 151.505C87.4532 152.411 87.7492 154.598 87.5272 155.438H77.9072C77.9072 155.438 78.0589 153.359 79.8164 153.296C82.1733 153.211 83.2685 151.849 83.2685 151.849C83.6126 150.898 84.2194 151.22 85.1851 151.32C86.0472 151.412 87.1794 150.713 87.1794 150.713Z" fill="#263238"/>
<path d="M82.6284 152.4C82.7506 152.416 82.8673 152.46 82.9685 152.531C83.0696 152.601 83.1523 152.695 83.2093 152.804" fill="black"/>
<path d="M83.2095 152.892C83.1921 152.892 83.1752 152.886 83.1608 152.876C83.1464 152.866 83.1351 152.853 83.1281 152.837C83.0777 152.74 83.0053 152.656 82.9166 152.591C82.828 152.527 82.7256 152.484 82.6175 152.467C82.606 152.466 82.5948 152.463 82.5845 152.457C82.5743 152.452 82.5652 152.444 82.558 152.435C82.5507 152.426 82.5453 152.416 82.5422 152.405C82.5391 152.394 82.5383 152.382 82.5398 152.371C82.5435 152.347 82.5558 152.326 82.5744 152.312C82.593 152.298 82.6163 152.291 82.6397 152.293C82.7776 152.31 82.909 152.361 83.0226 152.441C83.1362 152.521 83.2283 152.628 83.2909 152.752C83.2995 152.773 83.2993 152.797 83.2903 152.819C83.2813 152.84 83.2643 152.857 83.2428 152.866L83.2095 152.892Z" fill="white"/>
<path d="M82.1401 152.6C82.2623 152.615 82.379 152.66 82.4802 152.73C82.5814 152.801 82.664 152.894 82.721 153.003" fill="black"/>
<path d="M82.7173 153.092C82.6998 153.092 82.683 153.086 82.6686 153.076C82.6542 153.067 82.6428 153.053 82.6359 153.037C82.5842 152.943 82.511 152.862 82.4223 152.802C82.3336 152.741 82.2318 152.703 82.1253 152.689C82.1017 152.686 82.0803 152.674 82.0657 152.655C82.0512 152.636 82.0446 152.613 82.0476 152.589C82.0505 152.566 82.0627 152.544 82.0814 152.53C82.1002 152.515 82.1239 152.508 82.1475 152.511C82.285 152.53 82.4161 152.581 82.5295 152.661C82.6429 152.741 82.7353 152.847 82.7987 152.97C82.8073 152.992 82.807 153.016 82.7981 153.037C82.7891 153.059 82.772 153.076 82.7506 153.085C82.7405 153.091 82.7289 153.093 82.7173 153.092Z" fill="white"/>
<path d="M81.5186 152.87C81.6405 152.886 81.7568 152.931 81.8578 153.001C81.9588 153.072 82.0417 153.165 82.0995 153.273" fill="black"/>
<path d="M82.0997 153.362C82.082 153.363 82.0647 153.357 82.0501 153.347C82.0355 153.338 82.0244 153.323 82.0183 153.307C81.9666 153.213 81.8934 153.132 81.8047 153.072C81.716 153.011 81.6142 152.973 81.5077 152.959C81.496 152.958 81.4847 152.954 81.4744 152.948C81.4641 152.942 81.4551 152.935 81.4479 152.925C81.4407 152.916 81.4354 152.905 81.4323 152.894C81.4292 152.883 81.4284 152.871 81.43 152.859C81.4336 152.836 81.4461 152.815 81.4648 152.802C81.4835 152.788 81.5069 152.782 81.5299 152.785C81.6675 152.801 81.7991 152.851 81.9127 152.931C82.0263 153.01 82.1185 153.116 82.1811 153.24C82.1897 153.262 82.1895 153.286 82.1805 153.307C82.1715 153.329 82.1544 153.346 82.133 153.355C82.1229 153.361 82.1113 153.363 82.0997 153.362Z" fill="white"/>
<path d="M87.6051 154.864H78.122C78.109 154.867 78.0957 154.867 78.0829 154.864C78.0701 154.86 78.0581 154.854 78.0479 154.846C78.0377 154.838 78.0294 154.827 78.0237 154.815C78.0181 154.803 78.0151 154.79 78.0151 154.777C78.0151 154.764 78.0181 154.751 78.0237 154.739C78.0294 154.727 78.0377 154.717 78.0479 154.708C78.0581 154.7 78.0701 154.694 78.0829 154.691C78.0957 154.688 78.109 154.688 78.122 154.69H87.6051C87.618 154.688 87.6313 154.688 87.6441 154.691C87.657 154.694 87.6689 154.7 87.6792 154.708C87.6894 154.717 87.6976 154.727 87.7033 154.739C87.709 154.751 87.7119 154.764 87.7119 154.777C87.7119 154.79 87.709 154.803 87.7033 154.815C87.6976 154.827 87.6894 154.838 87.6792 154.846C87.6689 154.854 87.657 154.86 87.6441 154.864C87.6313 154.867 87.618 154.867 87.6051 154.864Z" fill="white"/>
<path d="M82.1885 149.292H88.349L88.4341 146.979H82.1367L82.1885 149.292Z" fill="#263238"/>
<path d="M101.665 147.612L102.668 151.468H105.802L105.709 148.023L101.665 147.612Z" fill="#CE7A63"/>
<path d="M102.49 150.672C102.49 150.672 101.75 150.561 101.983 151.468C102.217 152.374 101.924 154.557 102.146 155.401H111.766C111.766 155.401 111.618 153.318 109.861 153.255C107.504 153.173 106.405 151.812 106.405 151.812C106.061 150.861 105.458 151.179 104.492 151.283C103.6 151.372 102.49 150.672 102.49 150.672Z" fill="#263238"/>
<path d="M107.038 152.359C106.915 152.375 106.798 152.42 106.697 152.49C106.595 152.56 106.511 152.654 106.453 152.763" fill="black"/>
<path d="M106.453 152.852C106.471 152.852 106.489 152.847 106.504 152.837C106.519 152.827 106.531 152.813 106.538 152.796C106.589 152.702 106.663 152.621 106.751 152.561C106.84 152.5 106.942 152.462 107.049 152.448C107.06 152.447 107.071 152.443 107.081 152.437C107.092 152.432 107.1 152.424 107.107 152.414C107.114 152.405 107.119 152.394 107.122 152.383C107.124 152.372 107.125 152.36 107.123 152.348C107.122 152.337 107.119 152.326 107.113 152.316C107.108 152.306 107.1 152.297 107.091 152.29C107.082 152.283 107.072 152.278 107.06 152.275C107.049 152.273 107.038 152.272 107.026 152.274C106.888 152.29 106.756 152.34 106.642 152.42C106.528 152.499 106.435 152.605 106.372 152.729C106.363 152.751 106.363 152.775 106.372 152.797C106.381 152.818 106.398 152.835 106.42 152.844C106.43 152.85 106.441 152.853 106.453 152.852Z" fill="white"/>
<path d="M107.53 152.563C107.407 152.576 107.289 152.62 107.188 152.691C107.086 152.761 107.004 152.856 106.949 152.966" fill="black"/>
<path d="M106.949 153.055C106.966 153.055 106.983 153.049 106.998 153.039C107.012 153.029 107.023 153.016 107.03 153C107.082 152.905 107.155 152.825 107.244 152.764C107.332 152.704 107.434 152.665 107.541 152.652C107.552 152.65 107.564 152.647 107.574 152.641C107.584 152.635 107.593 152.627 107.6 152.618C107.608 152.609 107.613 152.598 107.616 152.587C107.619 152.576 107.62 152.564 107.619 152.552C107.617 152.54 107.613 152.529 107.608 152.519C107.602 152.509 107.594 152.5 107.585 152.492C107.575 152.485 107.565 152.48 107.553 152.477C107.542 152.474 107.53 152.473 107.519 152.474C107.38 152.492 107.248 152.542 107.134 152.622C107.02 152.702 106.927 152.809 106.864 152.933C106.855 152.955 106.855 152.979 106.864 153C106.873 153.022 106.89 153.039 106.912 153.048L106.949 153.055Z" fill="white"/>
<path d="M108.148 152.833C108.025 152.848 107.908 152.893 107.806 152.963C107.704 153.033 107.621 153.127 107.563 153.236" fill="black"/>
<path d="M107.563 153.325C107.581 153.325 107.599 153.32 107.614 153.31C107.629 153.3 107.641 153.286 107.648 153.27C107.699 153.175 107.772 153.094 107.861 153.033C107.95 152.973 108.052 152.935 108.158 152.922C108.182 152.919 108.203 152.907 108.218 152.888C108.233 152.869 108.239 152.846 108.236 152.822C108.233 152.798 108.221 152.777 108.202 152.763C108.184 152.748 108.16 152.741 108.136 152.744C107.998 152.761 107.866 152.812 107.752 152.892C107.637 152.972 107.545 153.079 107.481 153.203C107.473 153.225 107.473 153.249 107.482 153.27C107.491 153.292 107.508 153.309 107.529 153.318L107.563 153.325Z" fill="white"/>
<path d="M102.057 154.828H111.54C111.564 154.828 111.586 154.818 111.603 154.801C111.62 154.785 111.629 154.762 111.629 154.739C111.629 154.715 111.62 154.693 111.603 154.676C111.586 154.659 111.564 154.65 111.54 154.65H102.057C102.034 154.65 102.011 154.659 101.994 154.676C101.978 154.693 101.968 154.715 101.968 154.739C101.968 154.762 101.978 154.785 101.994 154.801C102.011 154.818 102.034 154.828 102.057 154.828Z" fill="white"/>
<path d="M107.174 149.292L100.792 149.366L100.37 147.057L107.093 146.979L107.174 149.292Z" fill="#263238"/>
<path d="M99.9888 46.3247L101.258 47.9083L102.553 49.5104C103.415 50.576 104.292 51.6231 105.173 52.6406C106.053 53.6581 106.941 54.646 107.844 55.5118C108.288 55.9447 108.728 56.3591 109.146 56.6921C109.35 56.8586 109.55 57.0103 109.72 57.125C109.812 57.1953 109.872 57.2212 109.949 57.2767L110.023 57.3211L110.057 57.3433H110.075C110.075 57.3433 110.038 57.3433 110.023 57.3433C109.631 57.2582 109.594 57.3433 109.653 57.3433C109.814 57.3507 109.975 57.3345 110.131 57.2952C110.663 57.1687 111.184 56.9979 111.688 56.7846C112.897 56.2782 114.077 55.7051 115.222 55.0678C117.605 53.7617 120.032 52.2632 122.392 50.798L124.775 53.6026C122.771 55.7853 120.6 57.8091 118.282 59.6558C117.071 60.6311 115.793 61.5188 114.456 62.3124C113.696 62.764 112.897 63.1466 112.069 63.4557C111.549 63.6527 111.009 63.7965 110.46 63.8849C109.633 64.0297 108.785 63.9867 107.977 63.7591C107.412 63.5815 106.864 63.3511 106.342 63.0709C105.89 62.8341 105.494 62.5936 105.117 62.3309C104.415 61.866 103.739 61.362 103.093 60.8213C101.908 59.8218 100.779 58.757 99.7113 57.6319C98.6605 56.5441 97.68 55.4119 96.7254 54.2834C96.2592 53.7099 95.7893 53.1364 95.3379 52.5481L94.6645 51.6601L93.9985 50.7314L99.9888 46.3247Z" fill="#263238"/>
<path d="M122.4 50.791C122.4 50.791 124.035 49.3961 124.62 48.4341C125.205 47.4721 128.279 50.6541 128.32 51.1092C128.361 51.5643 124.786 53.5956 124.786 53.5956L122.4 50.791Z" fill="#CE7A63"/>
<path d="M124.279 48.3857C124.279 48.3857 127.154 44.7782 127.872 44.3897C128.59 44.0012 126.74 47.42 126.74 47.42C126.74 47.42 129.226 48.8001 129.282 49.714C129.337 50.6279 128.812 51.4826 128.205 51.6491C128.009 51.6803 127.808 51.6584 127.623 51.5855C127.438 51.5126 127.276 51.3915 127.154 51.2347L124.279 48.3857Z" fill="#CE7A63"/>
<path d="M122.988 50.6094C122.988 50.6094 123.225 46.8872 123.832 46.8058C124.439 46.7244 125.682 48.6077 125.682 48.6077L122.988 50.6094Z" fill="#CE7A63"/>
<path d="M87.7568 43.9678C87.7568 43.9678 80.7268 46.3765 80.2717 48.1562C79.8166 49.9359 80.9303 63.8553 80.9895 66.5045C81.0487 69.1537 78.8768 78.9439 80.3827 80.8235C81.9959 82.84 102.046 83.9463 102.394 81.545C102.845 78.437 101.724 68.4285 101.843 64.9505C101.961 61.4725 100.877 47.6752 100.111 46.3358C99.3452 44.9964 92.3855 44.2786 92.3855 44.2786L87.7568 43.9678Z" fill="#263238"/>
<g opacity="0.2">
<path d="M81.3744 81.1158C80.8268 79.6358 81.6852 74.1894 82.3179 70.2082C82.4733 69.2129 82.6102 68.3582 82.6879 67.6737C83.1541 64.3437 81.8591 56.8993 81.8443 56.8216L82.0256 56.792C82.0256 56.866 83.3391 64.3548 82.8729 67.6996C82.7767 68.3804 82.6435 69.2425 82.4844 70.2378C81.8924 73.9748 81.0044 79.6247 81.5335 81.0492L81.3744 81.1158Z" fill="white"/>
</g>
<path d="M86.88 34.7698C86.88 34.7698 85.9624 32.0133 86.3176 30.8922C86.6728 29.7711 87.4646 29.6231 87.4646 29.6231C87.4646 29.6231 87.9123 26.6409 90.8612 26.8185C93.8101 26.9961 97.2363 25.9342 97.8912 27.4697C98.5461 29.0052 96.204 30.0079 96.204 30.0079C96.204 30.0079 97.129 31.1179 96.7775 32.0133C96.426 32.9087 95.6083 32.0725 95.6083 32.0725L86.88 34.7698Z" fill="#263238"/>
<path d="M93.3068 45.4628C92.9812 45.8957 92.6112 46.7578 91.3162 46.9428C89.6845 47.1611 87.8197 45.4369 87.6162 44.7228C88.0787 42.3881 88.3562 39.6945 87.9862 37.5781L90.1137 39.3504L93.2032 41.9219C93.2032 41.9774 93.1699 42.0403 93.1514 42.0958C93.1329 42.1513 93.1181 42.2512 93.0996 42.3289C93.0574 42.5158 93.0253 42.7047 93.0034 42.895C92.9849 43.0467 92.9738 43.1984 92.9701 43.3464C92.9572 43.7934 92.9957 44.2403 93.0848 44.6784C93.1375 44.9455 93.2117 45.2078 93.3068 45.4628Z" fill="#CE7A63"/>
<path d="M91.1757 50.4321C90.4543 50.4385 89.7536 50.1909 89.1962 49.7328C87.2611 48.1603 87.0169 44.5195 87.0095 44.3641C87.0079 44.352 87.0089 44.3398 87.0125 44.3281C87.0161 44.3165 87.0221 44.3057 87.0301 44.2966C87.0382 44.2875 87.0481 44.2802 87.0593 44.2753C87.0704 44.2703 87.0824 44.2678 87.0946 44.2679C87.1069 44.2664 87.1193 44.2674 87.1311 44.2709C87.143 44.2744 87.154 44.2804 87.1634 44.2884C87.1728 44.2964 87.1804 44.3063 87.1857 44.3174C87.1911 44.3285 87.1941 44.3407 87.1945 44.353C87.1945 44.39 87.4387 48.053 89.3146 49.5885C89.6455 49.858 90.0308 50.0527 90.444 50.1594C90.8572 50.266 91.2885 50.2821 91.7085 50.2064C92.0198 50.1732 92.3194 50.0697 92.5848 49.9037C92.8502 49.7377 93.0743 49.5135 93.2403 49.2481C94.2615 47.5942 93.2403 44.4381 93.2218 44.3863C93.2172 44.3749 93.2151 44.3627 93.2157 44.3505C93.2163 44.3382 93.2195 44.3263 93.2251 44.3154C93.2307 44.3045 93.2386 44.2949 93.2483 44.2874C93.2579 44.2798 93.2691 44.2744 93.281 44.2716C93.2924 44.2676 93.3045 44.266 93.3166 44.2668C93.3286 44.2677 93.3404 44.271 93.3511 44.2765C93.3619 44.282 93.3714 44.2897 93.379 44.299C93.3867 44.3084 93.3924 44.3192 93.3957 44.3308C93.4401 44.464 94.465 47.6201 93.3957 49.3443C93.2169 49.6343 92.9737 49.8793 92.6849 50.0602C92.3962 50.2412 92.0697 50.3532 91.7307 50.3877C91.5471 50.4167 91.3616 50.4315 91.1757 50.4321Z" fill="white"/>
<g opacity="0.2">
<path d="M93.0772 44.6786C91.9228 44.4381 90.4872 43.502 90.0728 42.3291C89.799 41.5669 90.0728 40.7899 90.3688 40.7085L92.9958 42.8952C92.9773 43.0469 92.9662 43.1986 92.9625 43.3466C92.9496 43.7935 92.9881 44.2405 93.0772 44.6786Z" fill="black"/>
</g>
<path d="M87.1093 33.6597C87.049 32.8491 87.1968 32.0366 87.5385 31.299C87.8803 30.5615 88.4047 29.9235 89.0621 29.4454C89.7195 28.9674 90.4881 28.6651 91.2951 28.5674C92.102 28.4696 92.9206 28.5795 93.6731 28.8867C97.0919 30.2705 97.5803 35.4468 96.8366 38.5844C96.0115 42.0698 91.7084 43.6756 89.0666 40.9894C87.3017 39.2023 87.3498 37.1488 87.1241 33.6597" fill="#CE7A63"/>
<g opacity="0.2">
<path d="M90.2393 31.6655C90.2393 31.6655 90.909 33.0715 89.9581 33.4489C89.0072 33.8263 89.9581 35.5357 89.9581 35.5357L87.9638 36.2757C87.3271 35.5904 86.9649 34.6948 86.9463 33.7597C86.9463 32.2464 87.0314 31.2437 87.0314 31.2437L90.2393 31.6655Z" fill="black"/>
</g>
<path d="M86.9502 31.7284C86.9502 31.7284 89.0777 32.3204 89.962 31.906C90.8463 31.4916 89.4884 30.8441 90.1692 30.2817C90.85 29.7193 94.6499 29.9635 95.7192 30.5222C96.7885 31.0809 95.7821 28.5131 93.6583 28.1875C91.5345 27.8619 87.3202 28.3355 86.9502 31.7284Z" fill="#263238"/>
<path d="M88.4744 36.0388C88.4744 36.0388 86.4468 37.9147 88.1414 40.7082C89.2144 42.4768 92.2114 43.9975 94.091 43.7274C96.7513 43.3574 96.9992 37.7223 96.9992 37.7223C96.7725 37.4819 96.4684 37.329 96.1403 37.2905C95.8121 37.2519 95.4809 37.3301 95.2047 37.5114C94.1946 38.1589 93.2696 36.8343 92.4556 36.8343C91.6416 36.8343 90.8609 38.0775 90.2356 37.5743C89.6103 37.0711 89.9544 35.5356 89.9544 35.5356L88.4744 36.0388Z" fill="#263238"/>
<path d="M85.6183 35.9724C85.8698 36.815 86.4444 37.524 87.2167 37.9445C88.2416 38.4921 89.0075 37.6337 88.9335 36.5348C88.8632 35.5432 88.249 34.0632 87.1168 33.967C85.9846 33.8708 85.3223 34.9364 85.6368 35.9724" fill="#CE7A63"/>
<path d="M92.4556 35.3395C92.4556 35.6244 92.6073 35.8538 92.7923 35.8538C92.9773 35.8538 93.129 35.6244 93.129 35.3395C93.129 35.0546 92.9773 34.8252 92.7886 34.8252C92.5999 34.8252 92.4556 35.0546 92.4556 35.3395Z" fill="#263238"/>
<path d="M95.5674 35.2951C95.5674 35.58 95.7191 35.8094 95.9078 35.8094C96.0965 35.8094 96.2408 35.5763 96.2408 35.2951C96.2408 35.0139 96.0891 34.7808 95.9041 34.7808C95.7191 34.7808 95.5674 35.0102 95.5674 35.2951Z" fill="#263238"/>
<path d="M92.6924 37.9146C93.5835 38.2583 94.5478 38.3678 95.4933 38.2328C95.4933 38.2328 95.312 39.4612 94.1835 39.4834C92.8219 39.5167 92.6924 37.9146 92.6924 37.9146Z" fill="white"/>
<path d="M96.57 34.0484C96.5456 34.0495 96.5214 34.0434 96.5004 34.0309C96.4793 34.0184 96.4624 34.0001 96.4516 33.9781C96.4085 33.8902 96.3479 33.812 96.2734 33.7484C96.199 33.6847 96.1123 33.637 96.0187 33.6081C95.8259 33.569 95.6254 33.5991 95.4526 33.6932C95.4371 33.7025 95.4199 33.7085 95.402 33.7111C95.3841 33.7137 95.3658 33.7127 95.3483 33.7083C95.3308 33.7038 95.3143 33.6959 95.2998 33.6851C95.2854 33.6742 95.2732 33.6607 95.2639 33.6451C95.2547 33.6296 95.2486 33.6124 95.246 33.5945C95.2435 33.5766 95.2444 33.5583 95.2489 33.5408C95.2534 33.5233 95.2612 33.5068 95.2721 33.4923C95.2829 33.4779 95.2965 33.4657 95.312 33.4564C95.5479 33.3235 95.8243 33.2814 96.089 33.338C96.2189 33.3766 96.3395 33.4415 96.4433 33.5288C96.547 33.616 96.6317 33.7236 96.6921 33.8449C96.7097 33.8769 96.7141 33.9145 96.7044 33.9498C96.6948 33.985 96.6718 34.0151 96.6403 34.0336C96.6183 34.0439 96.5943 34.0489 96.57 34.0484Z" fill="#263238"/>
<path d="M91.7232 34.1594C91.7024 34.1628 91.6811 34.1628 91.6603 34.1594C91.6279 34.1427 91.6032 34.1141 91.5915 34.0796C91.5797 34.0451 91.5819 34.0074 91.5974 33.9744C91.7226 33.7331 91.9319 33.5462 92.1857 33.449C92.3148 33.4111 92.4501 33.3998 92.5837 33.4157C92.7172 33.4316 92.8462 33.4744 92.9627 33.5415C92.9954 33.5589 93.0202 33.5881 93.0319 33.6233C93.0436 33.6584 93.0413 33.6967 93.0256 33.7302C93.0083 33.7629 92.9788 33.7875 92.9434 33.7986C92.9081 33.8096 92.8698 33.8063 92.8369 33.7894C92.7535 33.7387 92.6605 33.7056 92.5638 33.6922C92.467 33.6789 92.3686 33.6855 92.2745 33.7117C92.0932 33.7821 91.9417 33.9127 91.8453 34.0817C91.8346 34.105 91.8174 34.1248 91.7957 34.1386C91.7741 34.1523 91.7489 34.1596 91.7232 34.1594Z" fill="#263238"/>
<path d="M94.3501 34.8809C94.5082 35.4527 94.8281 35.9666 95.2714 36.3609C95.9855 36.9566 94.5795 37.4931 94.5795 37.4931L94.3501 34.8809Z" fill="#BA4D3C"/>
<path d="M86.3397 52.367L80.2384 58.5386C79.2431 59.5783 78.233 60.5958 77.2784 61.6429C76.3617 62.6152 75.4972 63.6354 74.6884 64.6991C74.5071 64.9396 74.3443 65.1727 74.2185 65.3651C74.0927 65.5575 74.0076 65.7351 74.0002 65.687C73.9928 65.6389 74.0002 65.6389 74.0002 65.5538V65.4983C74.002 65.4675 74.002 65.4366 74.0002 65.4058C74.0002 65.3429 74.0002 65.2763 74.0002 65.2282C73.9907 65.1056 73.9567 64.9861 73.9003 64.8767C73.8485 64.8101 73.8818 64.9507 73.9743 65.1172C74.2563 65.5828 74.5889 66.0159 74.9659 66.4085C75.3951 66.871 75.8724 67.3446 76.3756 67.8145C78.4032 69.6645 80.749 71.4849 83.0356 73.235L81.2522 76.454C79.7981 75.8657 78.4365 75.2219 77.0601 74.5189C75.6636 73.8069 74.3051 73.0227 72.9901 72.1694C72.3204 71.7254 71.6507 71.2592 70.9884 70.719C70.2468 70.1327 69.5685 69.4705 68.9645 68.7432C68.5438 68.2328 68.2032 67.6614 67.9544 67.0486C67.7687 66.5915 67.6539 66.1086 67.614 65.6167C67.6046 65.4652 67.6046 65.3132 67.614 65.1616V64.9285L67.6325 64.7398C67.6583 64.511 67.6966 64.2837 67.7472 64.059C67.8974 63.4607 68.1081 62.8793 68.3762 62.3237C68.5945 61.8649 68.8128 61.4579 69.0348 61.0731C69.8826 59.6777 70.8156 58.3357 71.8283 57.0549C72.8014 55.8302 73.7782 54.6425 74.7883 53.5066C75.7984 52.3707 76.8381 51.257 77.8926 50.1766C78.9471 49.0962 80.0127 48.038 81.1671 46.9946L86.3397 52.367Z" fill="#263238"/>
<path d="M80.6049 71.481C80.6049 71.481 82.651 72.7982 82.7842 74.0303C82.9174 75.2624 82.0035 78.1003 81.1451 77.9671C80.2867 77.8339 79.6355 77.6933 79.2396 76.4538C78.8437 75.2143 80.6049 71.481 80.6049 71.481Z" fill="#CE7A63"/>
<g opacity="0.2">
<path d="M80.3384 87.7205V87.5392C84.0162 87.2432 83.9052 81.9263 83.9015 81.8745H84.0865C84.0754 81.9226 84.1901 87.4134 80.3384 87.7205Z" fill="white"/>
</g>
<path d="M87.6565 99.8308H65.2123C65.0884 99.8301 64.9664 99.8001 64.8563 99.7432C64.7462 99.6863 64.6512 99.6041 64.579 99.5034C64.5068 99.4026 64.4595 99.2863 64.441 99.1637C64.4224 99.0412 64.4332 98.916 64.4723 98.7984L69.3452 83.9541C69.3963 83.7974 69.4951 83.6607 69.6278 83.5632C69.7606 83.4656 69.9205 83.4121 70.0852 83.4102H92.5294C92.6534 83.4108 92.7754 83.4408 92.8854 83.4977C92.9955 83.5546 93.0906 83.6368 93.1628 83.7375C93.235 83.8383 93.2823 83.9547 93.3008 84.0772C93.3194 84.1997 93.3086 84.3249 93.2694 84.4425L88.3965 99.2906C88.3444 99.4462 88.2452 99.5818 88.1126 99.6786C87.98 99.7753 87.8207 99.8285 87.6565 99.8308Z" fill="#407BFF"/>
<g opacity="0.6">
<path d="M87.6565 99.8308H65.2123C65.0884 99.8301 64.9664 99.8001 64.8563 99.7432C64.7462 99.6863 64.6512 99.6041 64.579 99.5034C64.5068 99.4026 64.4595 99.2863 64.441 99.1637C64.4224 99.0412 64.4332 98.916 64.4723 98.7984L69.3452 83.9541C69.3963 83.7974 69.4951 83.6607 69.6278 83.5632C69.7606 83.4656 69.9205 83.4121 70.0852 83.4102H92.5294C92.6534 83.4108 92.7754 83.4408 92.8854 83.4977C92.9955 83.5546 93.0906 83.6368 93.1628 83.7375C93.235 83.8383 93.2823 83.9547 93.3008 84.0772C93.3194 84.1997 93.3086 84.3249 93.2694 84.4425L88.3965 99.2906C88.3444 99.4462 88.2452 99.5818 88.1126 99.6786C87.98 99.7753 87.8207 99.8285 87.6565 99.8308Z" fill="white"/>
</g>
<g opacity="0.5">
<path d="M81.1038 91.9092C81.0031 92.3995 80.7396 92.8414 80.356 93.1632C79.9725 93.4849 79.4915 93.6675 78.9911 93.6815C78.7683 93.6902 78.5464 93.6476 78.3425 93.5571C78.1387 93.4665 77.9584 93.3304 77.8154 93.1592C77.6724 92.988 77.5707 92.7863 77.5179 92.5696C77.4652 92.3529 77.4629 92.1269 77.5111 91.9092C77.611 91.4188 77.8737 90.9765 78.2565 90.6541C78.6393 90.3317 79.1199 90.1482 79.6201 90.1332C79.8424 90.1281 80.063 90.1732 80.2654 90.2651C80.4679 90.357 80.6471 90.4933 80.7896 90.6639C80.9322 90.8346 81.0344 91.0351 81.0888 91.2507C81.1432 91.4663 81.1484 91.6914 81.1038 91.9092Z" fill="white"/>
</g>
<path d="M57.2167 99.52L56.7431 100.948C56.7096 101.049 56.7006 101.156 56.7168 101.261C56.7329 101.366 56.7737 101.465 56.8359 101.551C56.898 101.637 56.9797 101.707 57.0742 101.756C57.1687 101.804 57.2734 101.829 57.3795 101.829H87.1053C87.2464 101.83 87.3842 101.786 87.4987 101.704C87.6132 101.621 87.6983 101.504 87.7417 101.37L88.3596 99.52H57.2167Z" fill="#407BFF"/>
<g opacity="0.6">
<path d="M57.2167 99.52L56.7431 100.948C56.7096 101.049 56.7006 101.156 56.7168 101.261C56.7329 101.366 56.7737 101.465 56.8359 101.551C56.898 101.637 56.9797 101.707 57.0742 101.756C57.1687 101.804 57.2734 101.829 57.3795 101.829H87.1053C87.2464 101.83 87.3842 101.786 87.4987 101.704C87.6132 101.621 87.6983 101.504 87.7417 101.37L88.3596 99.52H57.2167Z" fill="white"/>
</g>
<path d="M88.2967 99.5942H64.5686C64.544 99.5942 64.5205 99.5844 64.5032 99.5671C64.4858 99.5497 64.4761 99.5262 64.4761 99.5017C64.4761 99.4771 64.4858 99.4536 64.5032 99.4363C64.5205 99.4189 64.544 99.4092 64.5686 99.4092H88.2967C88.3212 99.4092 88.3447 99.4189 88.3621 99.4363C88.3794 99.4536 88.3892 99.4771 88.3892 99.5017C88.3892 99.5262 88.3794 99.5497 88.3621 99.5671C88.3447 99.5844 88.3212 99.5942 88.2967 99.5942Z" fill="#407BFF"/>
<path d="M103.267 99.8308H125.711C125.835 99.8301 125.957 99.8001 126.067 99.7432C126.177 99.6863 126.272 99.6041 126.344 99.5034C126.417 99.4026 126.464 99.2863 126.483 99.1637C126.501 99.0412 126.49 98.916 126.451 98.7984L121.578 83.9541C121.527 83.7974 121.428 83.6607 121.296 83.5632C121.163 83.4656 121.003 83.4121 120.838 83.4102H98.394C98.2704 83.4116 98.1488 83.4421 98.0392 83.4993C97.9295 83.5564 97.8349 83.6385 97.7628 83.739C97.6908 83.8395 97.6434 83.9556 97.6245 84.0778C97.6056 84.2 97.6157 84.3249 97.654 84.4425L102.527 99.2906C102.579 99.4462 102.678 99.5818 102.811 99.6786C102.943 99.7753 103.103 99.8285 103.267 99.8308Z" fill="#407BFF"/>
<g opacity="0.6">
<path d="M103.267 99.8308H125.711C125.835 99.8301 125.957 99.8001 126.067 99.7432C126.177 99.6863 126.272 99.6041 126.344 99.5034C126.417 99.4026 126.464 99.2863 126.483 99.1637C126.501 99.0412 126.49 98.916 126.451 98.7984L121.578 83.9541C121.527 83.7974 121.428 83.6607 121.296 83.5632C121.163 83.4656 121.003 83.4121 120.838 83.4102H98.394C98.2704 83.4116 98.1488 83.4421 98.0392 83.4993C97.9295 83.5564 97.8349 83.6385 97.7628 83.739C97.6908 83.8395 97.6434 83.9556 97.6245 84.0778C97.6056 84.2 97.6157 84.3249 97.654 84.4425L102.527 99.2906C102.579 99.4462 102.678 99.5818 102.811 99.6786C102.943 99.7753 103.103 99.8285 103.267 99.8308Z" fill="white"/>
</g>
<g opacity="0.4">
<path d="M105.295 98.3213H123.617C123.718 98.3211 123.818 98.297 123.908 98.2509C123.998 98.2048 124.075 98.138 124.135 98.0561C124.194 97.9741 124.233 97.8793 124.248 97.7795C124.264 97.6796 124.255 97.5774 124.224 97.4814L120.25 85.3639C120.208 85.2351 120.126 85.1228 120.017 85.0431C119.907 84.9633 119.775 84.9202 119.639 84.9199H101.317C101.216 84.9202 101.115 84.9444 101.025 84.9907C100.935 85.037 100.857 85.104 100.797 85.1863C100.738 85.2685 100.698 85.3637 100.683 85.464C100.667 85.5644 100.675 85.667 100.707 85.7635L104.688 97.881C104.729 98.0092 104.81 98.1209 104.919 98.2C105.029 98.2791 105.16 98.3216 105.295 98.3213Z" fill="white"/>
</g>
<path d="M133.707 99.52L134.18 100.948C134.214 101.049 134.223 101.156 134.207 101.261C134.191 101.366 134.15 101.465 134.088 101.551C134.025 101.637 133.944 101.707 133.849 101.756C133.755 101.804 133.65 101.829 133.544 101.829H103.818C103.677 101.83 103.539 101.786 103.425 101.704C103.31 101.621 103.225 101.504 103.182 101.37L102.564 99.52H133.707Z" fill="#407BFF"/>
<g opacity="0.4">
<path d="M133.707 99.52L134.18 100.948C134.214 101.049 134.223 101.156 134.207 101.261C134.191 101.366 134.15 101.465 134.088 101.551C134.025 101.637 133.944 101.707 133.849 101.756C133.755 101.804 133.65 101.829 133.544 101.829H103.818C103.677 101.83 103.539 101.786 103.425 101.704C103.31 101.621 103.225 101.504 103.182 101.37L102.564 99.52H133.707Z" fill="white"/>
</g>
<path d="M146.494 101.81H56.4136V104.533H146.494V101.81Z" fill="black"/>
<g opacity="0.8">
<path d="M146.494 101.81H56.4136V104.533H146.494V101.81Z" fill="white"/>
</g>
<path d="M62.3634 104.533L54.2715 155.419L55.8958 155.456L65.9228 104.533H62.3634Z" fill="black"/>
<g opacity="0.8">
<path d="M62.3634 104.533L54.2715 155.416L55.8958 155.456L65.9228 104.533H62.3634Z" fill="white"/>
</g>
<path d="M138.991 104.533L147.082 155.419L145.458 155.456L135.431 104.533H138.991Z" fill="black"/>
<g opacity="0.8">
<path d="M138.991 104.533L147.082 155.416L145.458 155.456L135.431 104.533H138.991Z" fill="white"/>
</g>
<path d="M137.229 107.349H62.4668V108.393H137.229V107.349Z" fill="black"/>
<g opacity="0.8">
<path d="M137.229 107.349H62.4668V108.393H137.229V107.349Z" fill="white"/>
</g>
<path d="M146.86 106.413C146.86 106.413 151.086 115.992 142.021 118.408C135.823 120.062 126.795 115.9 122.799 117.217C122.799 117.217 124.542 117.831 126.558 124.58C128.575 131.329 132.034 143.931 132.034 143.931L127.224 144.127C127.224 144.127 114.37 117.887 114.111 113.125C113.852 108.363 137.64 104.948 137.64 104.948L146.86 106.413Z" fill="#263238"/>
<path d="M157.198 107.767C157.198 107.767 161.268 118.038 151.873 119.03C144.584 119.8 137.91 119.093 132.515 118.527C132.515 118.527 135.157 118.656 137.173 125.405C139.19 132.154 142.971 143.979 142.971 143.979H137.051C137.051 143.979 121.911 118.153 121.652 113.391C121.393 108.629 146.864 106.395 146.864 106.395L157.198 107.767Z" fill="#263238"/>
<g opacity="0.2">
<path d="M130.55 144.63C130.14 143.52 120.435 117.62 120.435 115.985C120.435 114.35 134.842 112.422 136.485 112.211L136.507 112.396C130.121 113.21 120.62 114.856 120.62 115.985C120.62 117.572 130.61 144.297 130.724 144.567L130.55 144.63Z" fill="white"/>
</g>
<path d="M142.413 144.597L143.168 148.445H140.034L138.258 145.041L142.413 144.597Z" fill="#B55B52"/>
<path d="M143.167 147.801C143.282 148.734 140.178 147.96 139.863 148.445C139.549 148.93 139.123 150.55 138.646 151.368C138.169 152.186 135.431 154.813 135.431 154.813H141.258L142.139 153.544L142.427 154.813H144.037C144.037 154.813 143.426 148.456 143.167 147.801Z" fill="#263238"/>
<path d="M136.607 146.262H144.037L143.567 143.979H136.141L136.607 146.262Z" fill="#263238"/>
<g opacity="0.3">
<path d="M136.607 146.262H144.037L143.567 143.979H136.141L136.607 146.262Z" fill="white"/>
</g>
<path d="M130.395 69.365C130.367 69.375 130.337 69.3775 130.308 69.3723C130.279 69.3671 130.251 69.3544 130.229 69.3354C130.193 69.3058 130.171 69.2636 130.167 69.2178C130.163 69.1721 130.177 69.1265 130.206 69.0912C130.377 68.878 130.597 68.7094 130.847 68.5998C131.097 68.4903 131.37 68.443 131.642 68.4622C131.664 68.4644 131.686 68.4712 131.706 68.482C131.725 68.4928 131.742 68.5074 131.756 68.525C131.77 68.5427 131.78 68.5629 131.786 68.5845C131.792 68.6061 131.793 68.6287 131.79 68.6509C131.788 68.6733 131.781 68.695 131.77 68.7148C131.76 68.7345 131.745 68.752 131.727 68.7661C131.71 68.7802 131.69 68.7907 131.668 68.797C131.646 68.8032 131.624 68.8051 131.601 68.8026C131.386 68.7921 131.171 68.8329 130.974 68.9217C130.777 69.0104 130.604 69.1446 130.469 69.3132C130.452 69.3387 130.425 69.3571 130.395 69.365Z" fill="#263238"/>
<path d="M130.717 70.1123C130.584 70.7975 130.358 71.4612 130.043 72.0844C130.205 72.1603 130.381 72.1996 130.56 72.1996C130.738 72.1996 130.914 72.1603 131.076 72.0844L130.717 70.1123Z" fill="#A02724"/>
<path d="M131.168 70.1974C131.246 70.4786 131.168 70.7487 130.98 70.8042C130.791 70.8597 130.584 70.671 130.502 70.3898C130.421 70.1086 130.502 69.8385 130.687 69.7867C130.872 69.7349 131.087 69.9162 131.168 70.1974Z" fill="#263238"/>
<path d="M130.773 69.7793H130.033C130.033 69.7793 130.529 70.2048 130.773 69.7793Z" fill="#263238"/>
<path d="M130.795 65.5278C130.795 65.5278 129.185 65.9385 130.506 68.3546L131.708 65.883L130.795 65.5278Z" fill="#263238"/>
<path d="M137.658 62.9638C137.658 62.9638 136.289 57.6099 140.655 58.0058C145.021 58.4017 144.252 62.0758 144.252 62.0758C144.252 62.0758 146.883 62.1683 145.691 65.1838C144.5 68.1993 139.808 66.2753 139.808 66.2753C138.691 65.5538 138.036 64.3883 137.658 62.9638Z" fill="#263238"/>
<path d="M139.542 78.8884C138.63 78.7667 137.703 78.9268 136.885 79.3472C137.429 78.3186 136.974 77.1531 136.363 76.0912L139.386 71.5439C139.571 73.7639 140.256 77.7044 142.117 78.6849C142.117 78.6849 142.727 79.214 139.542 78.8884Z" fill="#B55B52"/>
<g opacity="0.2">
<path d="M138.154 73.3979L136.363 76.0879C136.572 76.4415 136.749 76.8129 136.892 77.1979C137.747 76.8279 138.694 75.4885 138.524 74.5265C138.468 74.1372 138.343 73.7612 138.154 73.4165" fill="black"/>
</g>
<path d="M140.193 67.2964C140.603 70.7818 140.855 72.2507 139.453 74.3264C137.314 77.464 132.941 77.2087 131.494 73.9157C130.188 70.9557 129.733 65.7424 132.859 63.7592C133.548 63.3233 134.336 63.0696 135.15 63.0219C135.964 62.9742 136.777 63.1342 137.512 63.4867C138.247 63.8392 138.88 64.3728 139.352 65.0372C139.824 65.7017 140.12 66.4752 140.211 67.2853" fill="#B55B52"/>
<path d="M134.732 62.2495C134.732 62.2495 137.906 61.3652 140.108 63.3595C142.309 65.3538 142.89 70.5893 139.586 74.0895C139.69 75.1514 135.098 75.6842 133.666 72.7094C133.148 71.629 132.412 70.9297 132.068 67.1964L130.736 66.8782C129.629 66.412 129.74 61.9387 134.732 62.2495Z" fill="#263238"/>
<path d="M135.286 70.0752C135.166 70.7425 134.785 71.3346 134.228 71.7217C133.488 72.2323 132.822 71.6366 132.789 70.7819C132.759 70.016 133.107 68.8283 133.969 68.6618C134.158 68.6282 134.353 68.6425 134.535 68.7033C134.717 68.7642 134.881 68.8697 135.012 69.0102C135.143 69.1507 135.237 69.3218 135.285 69.5078C135.333 69.6938 135.333 69.8889 135.286 70.0752Z" fill="#B55B52"/>
<path d="M133.1 71.8956C133.127 72.0083 133.187 72.1105 133.272 72.1891C133.357 72.2677 133.464 72.3192 133.579 72.337C133.693 72.3549 133.81 72.3383 133.915 72.2893C134.021 72.2404 134.109 72.1613 134.169 72.0621C134.229 71.9629 134.258 71.8482 134.253 71.7324C134.247 71.6166 134.208 71.505 134.139 71.4118C134.07 71.3186 133.975 71.248 133.865 71.2089C133.756 71.1699 133.638 71.1642 133.526 71.1926C133.376 71.2302 133.248 71.3251 133.168 71.4567C133.089 71.5883 133.064 71.746 133.1 71.8956Z" fill="white"/>
<path d="M141.543 66.8379C137.325 66.4679 137.366 62.0982 137.369 62.0538C137.369 62.041 137.371 62.0283 137.376 62.0164C137.38 62.0045 137.387 61.9937 137.397 61.9846C137.406 61.9756 137.416 61.9685 137.428 61.9639C137.44 61.9592 137.453 61.9571 137.466 61.9576C137.479 61.9576 137.491 61.9602 137.503 61.9653C137.515 61.9703 137.526 61.9777 137.535 61.9871C137.544 61.9964 137.551 62.0074 137.556 62.0195C137.56 62.0316 137.562 62.0446 137.562 62.0575C137.562 62.2277 137.525 66.2718 141.562 66.6455C141.587 66.6455 141.612 66.6556 141.63 66.6737C141.648 66.6917 141.658 66.7162 141.658 66.7417C141.658 66.7672 141.648 66.7917 141.63 66.8097C141.612 66.8278 141.587 66.8379 141.562 66.8379H141.543Z" fill="#407BFF"/>
<path d="M137.455 63.3078C136.951 63.2597 134.421 62.9822 134.199 62.3606C134.18 62.2938 134.181 62.2229 134.203 62.1569C134.225 62.091 134.266 62.0331 134.321 61.9906C135.168 61.1581 137.562 63.0599 137.651 63.1413C137.66 63.1499 137.667 63.1603 137.672 63.1717C137.677 63.1832 137.679 63.1955 137.679 63.2079C137.679 63.2204 137.677 63.2327 137.672 63.2441C137.667 63.2555 137.66 63.2659 137.651 63.2745C137.633 63.2917 137.609 63.3013 137.584 63.3013C137.559 63.3013 137.536 63.2917 137.518 63.2745C137.51 63.2843 137.501 63.2923 137.49 63.2981C137.479 63.3038 137.467 63.3071 137.455 63.3078ZM134.894 61.9647C134.812 61.9597 134.73 61.9712 134.652 61.9985C134.575 62.0258 134.504 62.0684 134.443 62.1238C134.343 62.22 134.365 62.2792 134.369 62.2977C134.502 62.6677 136.156 62.9748 137.284 63.0969C136.663 62.6418 135.582 61.9647 134.894 61.9647Z" fill="#407BFF"/>
<path d="M137.455 63.0969C137.43 63.0969 137.406 63.0873 137.388 63.07C137.37 63.0528 137.36 63.0292 137.359 63.0044C137.344 63.0043 137.33 63.0005 137.317 62.9934C137.304 62.9863 137.293 62.9761 137.285 62.9637C136.992 62.5493 135.542 60.4588 135.868 59.8853C135.905 59.8235 135.961 59.7752 136.027 59.7473C136.094 59.7193 136.167 59.7132 136.238 59.7299C137.422 59.8224 137.551 62.8786 137.559 63.0081C137.559 63.0207 137.557 63.0333 137.553 63.0452C137.548 63.0571 137.542 63.0679 137.533 63.0772C137.524 63.0865 137.514 63.094 137.503 63.0993C137.491 63.1045 137.479 63.1075 137.466 63.108L137.455 63.0969ZM136.178 59.9075C136.071 59.9075 136.045 59.9519 136.034 59.9667C135.842 60.3108 136.693 61.7612 137.34 62.6936C137.263 61.7205 136.97 59.9704 136.23 59.9075H136.178Z" fill="#407BFF"/>
<path d="M149.753 103.22C147.274 107.575 132.456 106.971 131.642 106.039C130.828 105.107 134.028 93.7291 134.021 90.9282C134.002 88.1421 131.187 84.9675 132.223 82.9066C132.737 82.0297 133.398 81.2475 134.176 80.5941C134.829 80.0091 135.512 79.4583 136.222 78.9439L136.356 78.8514C136.485 78.7552 136.604 78.6738 136.707 78.6035C136.951 78.4333 137.099 78.3408 137.099 78.3408C138.783 77.949 140.493 77.6843 142.216 77.549L142.683 77.5231C143.68 77.4551 144.681 77.5111 145.665 77.6896C148.836 78.3556 149.365 81.1713 149.476 84.3163C149.587 87.4613 152.232 98.8684 149.753 103.22Z" fill="#407BFF"/>
<g opacity="0.2">
<path d="M133.337 106.421H133.155C133.337 103.716 136.822 88.7049 136.855 88.5532L137.037 88.5976C137 88.7345 133.522 103.727 133.337 106.421Z" fill="white"/>
</g>
<g opacity="0.2">
<path d="M142.69 77.5083C142.69 77.5083 142.69 77.5268 142.69 77.5379C142.542 78.1188 140.603 79.6728 138.82 79.6136C137.218 79.5581 136.382 79.0438 136.23 78.9365L136.363 78.844C136.493 78.7478 136.611 78.6664 136.715 78.5961C137.571 78.8579 138.466 78.9693 139.36 78.9254C140.459 78.8618 141.487 78.3656 142.22 77.5453L142.69 77.5083Z" fill="black"/>
</g>
<path d="M138.498 85.2379C138.239 88.9712 135.435 90.4179 134.021 90.9322C134.003 88.1461 131.187 84.9715 132.223 82.9106C132.737 82.0337 133.398 81.2515 134.177 80.5981C136.101 80.9496 138.724 82.0337 138.498 85.2379Z" fill="#B55B52"/>
<path d="M137.037 84.4091C136.66 86.7842 136.13 89.1324 135.449 91.4391C135.103 92.6446 134.682 93.8273 134.188 94.98C133.908 95.6395 133.574 96.2744 133.189 96.8781C132.93 97.2804 132.627 97.6527 132.286 97.9881L132.116 98.1435L131.916 98.3063C131.775 98.4154 131.625 98.5131 131.468 98.5986C131.335 98.6726 131.202 98.7392 131.065 98.8058L130.728 98.9353C130.61 98.9834 130.51 99.013 130.414 99.0426L130.121 99.1277C129.933 99.1758 129.752 99.2128 129.574 99.2535L129.063 99.3423L128.571 99.4126C127.927 99.4903 127.31 99.5384 126.695 99.5717C125.474 99.6346 124.283 99.6309 123.099 99.605C120.727 99.5495 118.6 99.6457 116.254 99.346L116.087 96.756C118.363 96.497 120.661 95.9605 122.903 95.683C124.013 95.5387 125.141 95.3833 126.214 95.1909C126.751 95.0984 127.276 94.9948 127.768 94.8764L128.138 94.7839L128.475 94.684L128.764 94.5841L128.882 94.536C128.914 94.5242 128.945 94.5093 128.974 94.4916L129.037 94.4546H129.015C129.015 94.4546 128.938 94.499 128.926 94.5101L128.893 94.5323C128.936 94.4434 128.985 94.357 129.037 94.2733C129.239 93.8826 129.415 93.4798 129.566 93.0671C129.911 92.1347 130.21 91.0876 130.488 90.0331C131.039 87.9204 131.509 85.6819 131.968 83.5322L137.037 84.4091Z" fill="#B55B52"/>
<path d="M108.869 99.5197L112.428 99.3458H116.254L116.687 96.8113C116.687 96.8113 113.149 96.5042 112.102 96.8113C112.102 96.8113 109.438 98.0989 109.087 98.5577C108.985 98.6937 108.913 98.8497 108.875 99.0154C108.838 99.1812 108.835 99.353 108.869 99.5197Z" fill="#B55B52"/>
<path d="M136.737 78.6405C136.737 78.6405 136.6 77.8561 137.055 77.6082C137.51 77.3603 139.42 75.9284 140.178 75.8359C140.937 75.7434 141.699 77.5638 142.22 77.5342C142.742 77.5046 138.028 79.0364 136.737 78.6405Z" fill="#407BFF"/>
<path d="M166.6 79.847C169.127 80.92 169.597 82.6331 169.275 85.212C168.42 92.0644 166.252 108.522 164.857 111.008C163.085 114.161 138.258 114.486 136.992 111.615C135.727 108.744 139.664 84.5202 141.802 82.2299C143.56 80.3244 159.374 76.7686 166.6 79.847Z" fill="black"/>
<g opacity="0.6">
<path d="M166.6 79.847C169.127 80.92 169.597 82.6331 169.275 85.212C168.42 92.0644 166.252 108.522 164.857 111.008C163.085 114.161 138.258 114.486 136.992 111.615C135.727 108.744 139.664 84.5202 141.802 82.2299C143.56 80.3244 159.374 76.7686 166.6 79.847Z" fill="white"/>
</g>
<g opacity="0.5">
<path d="M139.346 111.175L138.976 111.156C138.976 111.005 139.716 95.6165 142.084 86.5441C143.541 80.9941 145.891 80.4243 145.987 80.4058L146.065 80.7758C146.043 80.7758 143.845 81.3419 142.442 86.6514C140.074 95.6868 139.349 111.02 139.346 111.175Z" fill="white"/>
</g>
<path d="M137.229 111.164C137.229 111.164 135.827 111.386 132.301 111.981C131.124 112.181 129.973 112.37 128.971 112.529C127.993 112.685 127.103 113.184 126.461 113.938C125.818 114.691 125.466 115.649 125.467 116.64C125.466 117.187 125.574 117.728 125.783 118.234C125.992 118.739 126.298 119.198 126.685 119.585C127.071 119.972 127.53 120.279 128.036 120.489C128.541 120.698 129.082 120.806 129.629 120.806H158.208C159.617 120.815 160.99 120.36 162.115 119.512C163.24 118.663 164.054 117.468 164.432 116.11C164.832 114.494 164.986 112.826 164.887 111.164H137.229Z" fill="black"/>
<g opacity="0.5">
<path d="M137.229 111.164C137.229 111.164 135.827 111.386 132.301 111.981C131.124 112.181 129.973 112.37 128.971 112.529C127.993 112.685 127.103 113.184 126.461 113.938C125.818 114.691 125.466 115.649 125.467 116.64C125.466 117.187 125.574 117.728 125.783 118.234C125.992 118.739 126.298 119.198 126.685 119.585C127.071 119.972 127.53 120.279 128.036 120.489C128.541 120.698 129.082 120.806 129.629 120.806H158.208C159.617 120.815 160.99 120.36 162.115 119.512C163.24 118.663 164.054 117.468 164.432 116.11C164.832 114.494 164.986 112.826 164.887 111.164H137.229Z" fill="white"/>
</g>
<path d="M152.025 121.121H149.953V150.55H152.025V121.121Z" fill="black"/>
<g opacity="0.5">
<path d="M152.025 121.121H149.953V150.55H152.025V121.121Z" fill="white"/>
</g>
<path d="M165.545 150.998H167.203V150.158C167.203 148.686 166.618 147.274 165.577 146.233C164.536 145.193 163.125 144.608 161.653 144.608H152.906V146.266H161.649C162.682 146.267 163.673 146.679 164.403 147.41C165.133 148.141 165.544 149.132 165.545 150.165V150.998Z" fill="black"/>
<g opacity="0.6">
<path d="M165.545 150.998H167.203V150.158C167.203 148.686 166.618 147.274 165.577 146.233C164.536 145.193 163.125 144.608 161.653 144.608H152.906V146.266H161.649C162.682 146.267 163.673 146.679 164.403 147.41C165.133 148.141 165.544 149.132 165.545 150.165V150.998Z" fill="white"/>
</g>
<path d="M168.373 154.63C169.476 153.526 169.476 151.736 168.373 150.632C167.269 149.528 165.479 149.528 164.375 150.632C163.271 151.736 163.271 153.526 164.375 154.63C165.479 155.734 167.269 155.734 168.373 154.63Z" fill="black"/>
<g opacity="0.4">
<path d="M168.373 154.63C169.476 153.526 169.476 151.736 168.373 150.632C167.269 149.528 165.479 149.528 164.375 150.632C163.271 151.736 163.271 153.526 164.375 154.63C165.479 155.734 167.269 155.734 168.373 154.63Z" fill="white"/>
</g>
<g opacity="0.5">
<path d="M164.949 152.63C164.949 152.911 165.033 153.187 165.189 153.421C165.346 153.655 165.568 153.838 165.829 153.946C166.089 154.053 166.375 154.082 166.652 154.027C166.928 153.972 167.182 153.836 167.381 153.637C167.58 153.438 167.716 153.184 167.771 152.907C167.826 152.631 167.798 152.345 167.69 152.084C167.582 151.824 167.399 151.602 167.165 151.445C166.931 151.289 166.655 151.205 166.374 151.205C166.187 151.205 166.001 151.242 165.829 151.314C165.656 151.385 165.499 151.49 165.366 151.622C165.234 151.755 165.129 151.912 165.058 152.084C164.986 152.257 164.949 152.443 164.949 152.63Z" fill="white"/>
</g>
<path d="M151.444 155.42C152.985 155.17 154.031 153.717 153.78 152.176C153.53 150.635 152.077 149.589 150.536 149.84C148.995 150.091 147.949 151.543 148.2 153.084C148.451 154.625 149.903 155.671 151.444 155.42Z" fill="black"/>
<g opacity="0.4">
<path d="M151.444 155.42C152.985 155.17 154.031 153.717 153.78 152.176C153.53 150.635 152.077 149.589 150.536 149.84C148.995 150.091 147.949 151.543 148.2 153.084C148.451 154.625 149.903 155.671 151.444 155.42Z" fill="white"/>
</g>
<g opacity="0.5">
<path d="M150.989 154.054C151.776 154.054 152.414 153.416 152.414 152.63C152.414 151.843 151.776 151.205 150.989 151.205C150.203 151.205 149.565 151.843 149.565 152.63C149.565 153.416 150.203 154.054 150.989 154.054Z" fill="white"/>
</g>
<path d="M134.991 150.998H136.648V150.158C136.649 149.125 137.06 148.134 137.79 147.403C138.521 146.672 139.511 146.26 140.544 146.258H149.288V144.601H140.544C139.072 144.601 137.661 145.185 136.62 146.226C135.579 147.267 134.994 148.679 134.994 150.151L134.991 150.998Z" fill="black"/>
<g opacity="0.6">
<path d="M134.991 150.998H136.648V150.158C136.649 149.125 137.06 148.134 137.79 147.403C138.521 146.672 139.511 146.26 140.544 146.258H149.288V144.601H140.544C139.072 144.601 137.661 145.185 136.62 146.226C135.579 147.267 134.994 148.679 134.994 150.151L134.991 150.998Z" fill="white"/>
</g>
<path d="M138.574 153.289C138.934 151.77 137.995 150.246 136.476 149.886C134.956 149.526 133.433 150.466 133.073 151.985C132.713 153.504 133.653 155.028 135.172 155.388C136.691 155.748 138.214 154.808 138.574 153.289Z" fill="black"/>
<g opacity="0.4">
<path d="M138.574 153.289C138.934 151.77 137.995 150.246 136.476 149.886C134.956 149.526 133.433 150.466 133.073 151.985C132.713 153.504 133.653 155.028 135.172 155.388C136.691 155.748 138.214 154.808 138.574 153.289Z" fill="white"/>
</g>
<g opacity="0.5">
<path d="M135.82 154.054C136.606 154.054 137.244 153.416 137.244 152.63C137.244 151.843 136.606 151.205 135.82 151.205C135.033 151.205 134.395 151.843 134.395 152.63C134.395 153.416 135.033 154.054 135.82 154.054Z" fill="white"/>
</g>
<path d="M152.906 142.828H149.073V148.448H152.906V142.828Z" fill="black"/>
<g opacity="0.6">
<path d="M152.906 142.828H149.073V148.448H152.906V142.828Z" fill="white"/>
</g>
<path d="M152.906 120.806H149.073V126.426H152.906V120.806Z" fill="black"/>
<g opacity="0.6">
<path d="M152.906 120.806H149.073V126.426H152.906V120.806Z" fill="white"/>
</g>
<path d="M132.434 144.597L133.192 148.445H130.055L128.279 145.041L132.434 144.597Z" fill="#B55B52"/>
<path d="M133.2 147.801C133.314 148.734 130.21 147.96 129.892 148.445C129.574 148.93 129.152 150.55 128.674 151.368C128.197 152.186 125.463 154.813 125.463 154.813H131.287L132.167 153.544L132.456 154.813H134.065C134.065 154.813 133.447 148.456 133.2 147.801Z" fill="#263238"/>
<path d="M126.629 146.262H134.058L133.592 143.979H126.163L126.629 146.262Z" fill="#263238"/>
<g opacity="0.3">
<path d="M126.629 146.262H134.058L133.592 143.979H126.163L126.629 146.262Z" fill="white"/>
</g>
</svg>
