<svg width="400" height="400" viewBox="0 0 400 400" fill="none" xmlns="http://www.w3.org/2000/svg">
<g clip-path="url(#clip0_1176_59873)">
<path d="M400 328.726H-34.8296V328.943H400V328.726Z" fill="#EBEBEB"/>
<path d="M39.5958 337.006H10.7927V337.223H39.5958V337.006Z" fill="#EBEBEB"/>
<path d="M121.561 334.649H98.6108V334.866H121.561V334.649Z" fill="#EBEBEB"/>
<path d="M83.3486 342.136H43.4138V342.354H83.3486V342.136Z" fill="#EBEBEB"/>
<path d="M356.43 343.624H337.645V343.841H356.43V343.624Z" fill="#EBEBEB"/>
<path d="M333.419 343.624H305.616V343.841H333.419V343.624Z" fill="#EBEBEB"/>
<path d="M254.184 339.954H206.249V340.171H254.184V339.954Z" fill="#EBEBEB"/>
<path d="M171.28 289.94H3.3572C2.04171 289.937 0.780886 289.413 -0.148493 288.482C-1.07787 287.551 -1.59986 286.289 -1.59985 284.974V48.9223C-1.5884 47.6143 -1.06137 46.3637 -0.133223 45.4421C0.79492 44.5205 2.04921 44.0022 3.3572 44H171.28C172.597 44 173.86 44.5232 174.791 45.4544C175.722 46.3857 176.245 47.6488 176.245 48.9658V284.974C176.245 286.291 175.722 287.554 174.791 288.485C173.86 289.416 172.597 289.94 171.28 289.94ZM3.3572 44.1739C2.09937 44.1762 0.893848 44.6775 0.00524235 45.5678C-0.883364 46.458 -1.38244 47.6644 -1.38244 48.9223V284.974C-1.38244 286.232 -0.883364 287.438 0.00524235 288.328C0.893848 289.219 2.09937 289.72 3.3572 289.722H171.28C172.538 289.72 173.745 289.219 174.635 288.329C175.525 287.439 176.026 286.232 176.028 284.974V48.9223C176.026 47.6636 175.525 46.4572 174.635 45.5672C173.745 44.6772 172.538 44.1762 171.28 44.1739H3.3572Z" fill="#EBEBEB"/>
<path d="M359.396 289.94H191.465C190.148 289.937 188.887 289.413 187.956 288.483C187.025 287.552 186.501 286.29 186.499 284.974V48.9223C186.513 47.6135 187.041 46.3629 187.971 45.4415C188.901 44.5202 190.156 44.0022 191.465 44H359.396C360.702 44.0045 361.954 44.5238 362.881 45.4451C363.807 46.3665 364.333 47.6158 364.344 48.9223V284.974C364.344 286.288 363.823 287.548 362.896 288.479C361.968 289.41 360.71 289.935 359.396 289.94ZM191.465 44.1739C190.206 44.1762 188.999 44.6772 188.109 45.5672C187.219 46.4572 186.718 47.6636 186.716 48.9223V284.974C186.718 286.232 187.219 287.439 188.109 288.329C188.999 289.219 190.206 289.72 191.465 289.722H359.396C360.654 289.72 361.861 289.219 362.751 288.329C363.641 287.439 364.142 286.232 364.144 284.974V48.9223C364.142 47.6636 363.641 46.4572 362.751 45.5672C361.861 44.6772 360.654 44.1762 359.396 44.1739H191.465Z" fill="#EBEBEB"/>
<path d="M40.1697 190.094L324.235 190.094V66.8722L40.1697 66.8722V190.094Z" fill="#E6E6E6"/>
<path d="M36.2564 190.094L322.531 190.094V66.8722L36.2564 66.8722V190.094Z" fill="#F5F5F5"/>
<path d="M315.504 182.989V73.9775L43.2745 73.9775V182.989H315.504Z" fill="#FAFAFA"/>
<path d="M159.026 182.989L127.979 73.9858H106.316L137.363 182.989H159.026Z" fill="white"/>
<path d="M131.214 182.989L100.176 73.9858H85.2529L116.3 182.989H131.214Z" fill="white"/>
<path d="M289.362 182.989L258.324 73.9858H236.652L267.699 182.989H289.362Z" fill="white"/>
<path d="M261.559 182.989L230.512 73.9858H215.597L246.636 182.989H261.559Z" fill="white"/>
<path d="M103.455 182.989V73.9775H95.0713V182.989H103.455Z" fill="#E6E6E6"/>
<path d="M269.325 182.998V73.9858H260.941V182.998H269.325Z" fill="#E6E6E6"/>
<path d="M101.942 187.503L101.942 68.6987H91.3492V187.503H101.942Z" fill="#F5F5F5"/>
<path d="M267.82 187.503V68.6987H257.228V187.503H267.82Z" fill="#F5F5F5"/>
<path d="M44.0222 182.998L44.0222 73.9858H43.2743L43.2743 182.998H44.0222Z" fill="#E6E6E6"/>
<path d="M33.2996 57.7407H331.871C332.102 57.7407 332.323 57.8323 332.486 57.9954C332.649 58.1585 332.741 58.3797 332.741 58.6104C332.741 58.841 332.649 59.0622 332.486 59.2253C332.323 59.3884 332.102 59.48 331.871 59.48H33.2996C33.0689 59.48 32.8477 59.3884 32.6847 59.2253C32.5216 59.0622 32.4299 58.841 32.4299 58.6104C32.4299 58.3797 32.5216 58.1585 32.6847 57.9954C32.8477 57.8323 33.0689 57.7407 33.2996 57.7407Z" fill="#E6E6E6"/>
<path d="M324.227 63.7148C324.55 63.7148 324.861 63.5868 325.091 63.3588C325.32 63.1307 325.45 62.821 325.453 62.4973V59.8883C325.453 59.5631 325.324 59.2512 325.094 59.0213C324.864 58.7913 324.552 58.6621 324.227 58.6621C323.903 58.6644 323.593 58.7946 323.365 59.0243C323.137 59.254 323.009 59.5646 323.009 59.8883V62.4973C323.009 62.8202 323.137 63.1299 323.366 63.3582C323.594 63.5866 323.904 63.7148 324.227 63.7148Z" fill="#E6E6E6"/>
<path d="M46.9619 63.7148C47.2856 63.7148 47.5962 63.5868 47.8259 63.3588C48.0556 63.1307 48.1858 62.821 48.1881 62.4973V59.8883C48.1881 59.5631 48.0589 59.2512 47.829 59.0213C47.599 58.7913 47.2871 58.6621 46.9619 58.6621C46.6382 58.6644 46.3285 58.7946 46.1005 59.0243C45.8724 59.254 45.7444 59.5646 45.7444 59.8883V62.4973C45.7444 62.8202 45.8727 63.1299 46.101 63.3582C46.3293 63.5866 46.639 63.7148 46.9619 63.7148Z" fill="#E6E6E6"/>
<path opacity="0.6" d="M33.5864 89.4658L319.739 89.4658V58.6451L33.5864 58.6451V89.4658Z" fill="#E0E0E0"/>
<path d="M134.545 284.635C137.633 283.591 139.868 280.617 137.911 277.564C134.667 272.52 142.781 271.477 140.52 263.015C137.311 251.101 127.336 261.424 124.866 249.97C123.066 241.648 109.09 236.195 108.542 247.152C107.942 259.145 101.933 251.309 100.594 264.65C99.6719 273.868 112.769 275.208 108.882 278.095C106.02 280.2 104.325 283.869 108.316 286.383C113.76 289.801 108.621 292.47 112.325 294.853C116.03 297.236 116.622 293.436 122.361 295.288C127.492 296.94 131.841 291.87 130.823 288.696C129.84 285.765 131.449 285.687 134.545 284.635Z" fill="#E6E6E6"/>
<path d="M104.881 290.113C104.881 290.113 105.299 328.726 121.483 328.726C137.667 328.726 138.085 290.113 138.085 290.113H104.881Z" fill="#F0F0F0"/>
<path d="M89.4795 284.635C92.5581 283.591 94.8018 280.617 92.8364 277.564C89.5925 272.52 97.7151 271.477 95.4453 263.015C92.2276 251.101 82.2526 261.424 79.7915 249.97C77.9913 241.648 64.0159 236.195 63.468 247.152C62.8679 259.145 56.8586 251.309 55.5193 264.65C54.5974 273.868 67.6945 275.208 63.8071 278.095C60.946 280.2 59.2501 283.869 63.2506 286.383C68.6859 289.801 63.5549 292.47 67.251 294.853C70.947 297.236 71.5471 293.436 77.2868 295.288C82.4265 296.94 86.7748 291.87 85.7486 288.696C84.7659 285.765 86.3748 285.687 89.4795 284.635Z" fill="#E6E6E6"/>
<path d="M59.8066 290.113C59.8066 290.113 60.2328 328.726 76.4084 328.726C92.5841 328.726 93.0102 290.113 93.0102 290.113H59.8066Z" fill="#F0F0F0"/>
<path d="M230.982 247.396C233.313 221.593 234.939 179.71 233.678 165.7C233.658 165.463 233.59 165.233 233.478 165.024C233.366 164.814 233.212 164.63 233.026 164.482C232.775 164.285 232.473 164.167 232.155 164.141C231.838 164.115 231.52 164.184 231.242 164.338C230.963 164.492 230.736 164.725 230.59 165.007C230.443 165.29 230.383 165.61 230.417 165.926C230.643 172.883 230.895 190.216 229.547 220.149C228.86 235.047 227.868 245.248 228.547 247.396H230.982Z" fill="#F0F0F0"/>
<path d="M238.165 193.964C243.748 187.007 255.141 181.997 266.751 182.024C271.308 182.024 252.88 190.155 245.218 199.121C239.27 206.078 232.556 217.801 230.277 224.298C231.747 210.618 232.591 200.956 238.165 193.964Z" fill="#F0F0F0"/>
<path d="M226.503 193.894C220.99 186.207 208.24 180.293 194.456 179.623C189.038 179.362 209.64 189.007 217.32 198.895C223.294 206.574 229.417 219.306 231.095 226.281C231.504 211.844 232.026 201.582 226.503 193.894Z" fill="#F0F0F0"/>
<path d="M238.165 205.192C243.748 198.234 255.141 193.225 266.751 193.251C271.308 193.251 252.88 201.382 245.218 210.349C239.27 217.306 232.556 229.029 230.277 235.569C231.747 221.845 232.591 212.184 238.165 205.192Z" fill="#F0F0F0"/>
<path d="M226.503 205.756C220.99 198.068 208.24 192.155 194.456 191.485C189.038 191.224 209.64 200.869 217.32 210.757C223.294 218.445 229.417 231.168 231.095 238.142C231.504 223.654 232.026 213.435 226.503 205.756Z" fill="#F0F0F0"/>
<path d="M237.165 167.552C240.818 162.334 248.636 158.299 256.802 157.751C260.011 157.534 247.366 164.152 242.322 170.796C238.4 176.014 234.13 184.554 232.756 189.242C233.286 179.58 233.504 172.709 237.165 167.552Z" fill="#F0F0F0"/>
<path d="M229.895 169.744C226.007 164.326 217.024 160.178 207.283 159.691C203.466 159.508 217.98 166.309 223.398 173.275C227.607 178.684 231.921 187.659 233.104 192.573C233.417 182.372 233.791 175.162 229.895 169.744Z" fill="#F0F0F0"/>
<path d="M238.417 174.292C243.14 168.37 252.784 164.16 262.62 164.178C266.481 164.178 250.879 171.065 244.357 178.658C239.313 184.554 233.634 194.477 231.695 199.982C233.025 188.363 233.695 180.206 238.417 174.292Z" fill="#F0F0F0"/>
<path d="M228.825 177.441C224.146 170.97 213.353 165.926 201.717 165.361C197.134 165.135 214.571 173.31 221.076 181.676C226.068 188.181 231.286 198.956 232.712 204.887C233.025 192.607 233.495 183.954 228.825 177.441Z" fill="#F0F0F0"/>
<path d="M238.73 182.502C243.826 176.119 254.236 171.57 264.82 171.596C268.986 171.596 252.158 179.023 245.157 187.25C239.722 193.616 233.591 204.313 231.503 210.253C232.869 197.721 233.634 188.885 238.73 182.502Z" fill="#F0F0F0"/>
<path d="M228.086 185.998C222.868 178.771 210.918 173.214 197.952 172.588C192.864 172.335 212.223 181.406 219.45 190.703C225.068 197.93 230.825 209.896 232.408 216.453C232.782 202.834 233.277 193.233 228.086 185.998Z" fill="#F0F0F0"/>
<path d="M215.293 243.039L216.163 250.283C216.209 251.066 216.553 251.802 217.123 252.34C217.694 252.878 218.448 253.178 219.233 253.179H240.852C241.637 253.178 242.391 252.878 242.962 252.34C243.532 251.802 243.876 251.066 243.922 250.283L244.792 243.039C244.816 242.621 244.754 242.203 244.61 241.81C244.466 241.418 244.244 241.058 243.957 240.755C243.669 240.451 243.323 240.209 242.938 240.044C242.554 239.879 242.14 239.794 241.722 239.795H218.363C217.945 239.794 217.531 239.879 217.147 240.044C216.762 240.209 216.416 240.451 216.128 240.755C215.841 241.058 215.618 241.418 215.475 241.81C215.331 242.203 215.269 242.621 215.293 243.039Z" fill="#E6E6E6"/>
<path d="M214.006 244.57H246.07C246.297 244.569 246.516 244.486 246.686 244.335C246.855 244.185 246.964 243.977 246.992 243.752L247.757 236.847C247.771 236.718 247.757 236.587 247.717 236.464C247.676 236.34 247.611 236.226 247.524 236.129C247.437 236.033 247.331 235.955 247.212 235.902C247.094 235.849 246.965 235.821 246.835 235.821H213.24C213.111 235.821 212.982 235.849 212.864 235.902C212.745 235.955 212.639 236.033 212.552 236.129C212.465 236.226 212.4 236.34 212.359 236.464C212.319 236.587 212.305 236.718 212.319 236.847L213.084 243.752C213.112 243.977 213.22 244.185 213.39 244.335C213.56 244.486 213.779 244.569 214.006 244.57Z" fill="#F5F5F5"/>
<path d="M166.009 328.726H179.941V253.179H166.009V328.726Z" fill="#E6E6E6"/>
<path d="M170.184 328.727H166.009V314.264H174.558L170.184 328.727Z" fill="#F0F0F0"/>
<path d="M339.567 328.726H353.499V253.179H339.567V328.726Z" fill="#E6E6E6"/>
<path d="M166.01 319.855H343.22V253.179L166.01 253.179V319.855Z" fill="#F0F0F0"/>
<path d="M339.037 328.727H343.211V314.264H334.662L339.037 328.727Z" fill="#F0F0F0"/>
<path d="M169.245 284.557H339.976V257.876H169.245V284.557Z" fill="#E6E6E6"/>
<path d="M194.265 266.163H312.164C316.234 266.163 320.13 262.867 322.939 257.058H183.498C186.299 262.867 190.195 266.163 194.265 266.163Z" fill="#F0F0F0"/>
<path d="M169.245 315.542H339.976V288.861H169.245V315.542Z" fill="#E6E6E6"/>
<path d="M194.265 297.149H312.164C316.234 297.149 320.13 293.862 322.939 288.052H183.498C186.299 293.862 190.195 297.149 194.265 297.149Z" fill="#F0F0F0"/>
<path d="M341.072 235.473C341.072 235.473 340.306 253.179 311.103 253.179C281.9 253.179 281.144 235.473 281.144 235.473H341.072Z" fill="#F5F5F5"/>
<path d="M341.072 226.281C341.072 226.281 340.306 244.022 311.103 244.022C281.9 244.022 281.144 226.316 281.144 226.316L341.072 226.281Z" fill="#F5F5F5"/>
<path d="M182.585 368C275.71 368 351.203 363.593 351.203 358.156C351.203 352.719 275.71 348.311 182.585 348.311C89.46 348.311 13.967 352.719 13.967 358.156C13.967 363.593 89.46 368 182.585 368Z" fill="#F5F5F5"/>
<path d="M285.118 113.894C279.9 116.747 278.161 125.2 280.605 128.878C271.56 131.592 276.256 147.141 291.04 148.011C305.825 148.881 317.078 143.48 309.816 131.948C317 122.269 313.695 111.459 307.399 112.651C300.642 99.11 278.013 99.51 285.118 113.894Z" fill="#263238"/>
<path d="M300.859 149.054C298.578 149.047 296.342 148.422 294.389 147.246C294.357 147.234 294.329 147.216 294.306 147.193C294.282 147.169 294.264 147.141 294.253 147.109C294.242 147.078 294.238 147.045 294.241 147.012C294.244 146.979 294.254 146.947 294.271 146.918C294.288 146.889 294.311 146.865 294.339 146.846C294.366 146.827 294.397 146.815 294.43 146.81C294.463 146.805 294.496 146.807 294.528 146.816C294.56 146.825 294.59 146.841 294.615 146.863C297.134 148.371 300.112 148.925 303.005 148.424C305.899 147.923 308.516 146.4 310.382 144.132C312.756 141.193 313.86 136.479 309.712 132.079C309.692 132.058 309.676 132.033 309.666 132.006C309.656 131.978 309.651 131.949 309.652 131.92C309.652 131.891 309.659 131.863 309.671 131.836C309.683 131.81 309.7 131.786 309.721 131.766C309.742 131.746 309.767 131.73 309.794 131.72C309.821 131.709 309.85 131.704 309.879 131.705C309.908 131.706 309.937 131.712 309.963 131.724C309.99 131.736 310.014 131.753 310.034 131.774C314.33 136.384 313.208 141.341 310.721 144.41C309.516 145.858 308.009 147.024 306.305 147.826C304.601 148.629 302.742 149.048 300.859 149.054Z" fill="#263238"/>
<path d="M278.97 131.766C278.925 131.765 278.882 131.75 278.846 131.723C278.811 131.697 278.784 131.66 278.77 131.618C276.456 124.991 279.552 116.095 285.022 113.66C285.076 113.641 285.134 113.642 285.187 113.662C285.24 113.683 285.283 113.722 285.309 113.773C285.321 113.799 285.327 113.827 285.328 113.856C285.328 113.884 285.323 113.913 285.313 113.94C285.302 113.966 285.286 113.991 285.266 114.011C285.246 114.032 285.223 114.048 285.196 114.06C279.909 116.408 276.926 125.035 279.178 131.453C279.188 131.48 279.192 131.509 279.19 131.538C279.188 131.567 279.18 131.595 279.167 131.621C279.154 131.647 279.136 131.67 279.114 131.689C279.092 131.708 279.067 131.722 279.039 131.731L278.97 131.766Z" fill="#263238"/>
<path d="M277.552 122.191H277.474C277.421 122.17 277.378 122.129 277.354 122.077C277.33 122.026 277.326 121.967 277.343 121.913C278.909 117.764 281.866 114.608 285.049 113.668C285.104 113.652 285.163 113.659 285.214 113.686C285.265 113.714 285.302 113.761 285.318 113.816C285.334 113.872 285.328 113.931 285.3 113.982C285.272 114.032 285.226 114.07 285.17 114.086C282.118 114.955 279.274 118.043 277.752 122.069C277.734 122.107 277.705 122.138 277.67 122.159C277.635 122.181 277.594 122.192 277.552 122.191Z" fill="#263238"/>
<path d="M289.727 353.52L284.701 353.529L283.857 334.648L292.319 334.857L289.727 353.52Z" fill="#FFB573"/>
<path d="M280.987 190.598C280.987 190.598 280.544 242.995 279.439 265.806C279.396 266.484 279.396 267.164 279.439 267.841C281.091 290.705 283.831 334.648 283.831 334.648L292.345 334.866C292.345 334.866 299.763 299.775 295.171 267.989C302.555 232.037 306.529 199.956 299.841 190.589L280.987 190.598Z" fill="#407BFF"/>
<path opacity="0.2" d="M295.25 211.409C292.641 220.158 295.18 248.283 296.528 261.258C298.363 251.883 299.929 242.865 301.085 234.551L295.25 211.409Z" fill="black"/>
<path d="M284.135 351.085H290.667C290.804 351.08 290.938 351.127 291.041 351.218C291.145 351.308 291.21 351.435 291.223 351.572L291.884 356.92C291.888 357.086 291.858 357.25 291.797 357.404C291.736 357.558 291.645 357.698 291.529 357.817C291.413 357.935 291.275 358.029 291.122 358.093C290.97 358.157 290.806 358.19 290.64 358.19C287.762 358.19 286.388 357.981 282.761 357.99C280.526 357.99 279.178 358.216 276.091 358.216C273.004 358.216 273.004 355.259 274.3 354.99C280.118 353.781 280.865 353.111 282.892 351.511C283.247 351.235 283.685 351.085 284.135 351.085Z" fill="#263238"/>
<path d="M286.283 152.038C285.962 153.838 285.596 155.516 285.205 157.256C284.814 158.995 284.414 160.734 283.953 162.474C283.039 165.952 282.092 169.361 280.839 172.805C280.211 174.586 279.479 176.328 278.648 178.023C278.187 178.964 277.655 179.868 277.056 180.728C276.882 180.963 276.726 181.189 276.5 181.45C276.283 181.726 276.042 181.983 275.778 182.215C275.111 182.845 274.307 183.312 273.43 183.58C272.51 183.858 271.534 183.897 270.595 183.693C269.855 183.522 269.15 183.228 268.507 182.824C267.533 182.2 266.669 181.418 265.951 180.51C264.717 178.976 263.734 177.256 263.037 175.414C262.884 175.023 262.871 174.59 263 174.19C263.129 173.79 263.391 173.447 263.744 173.218C264.096 172.989 264.517 172.889 264.935 172.934C265.353 172.979 265.742 173.167 266.038 173.466L266.142 173.579C267.221 174.719 268.384 175.777 269.621 176.745C270.104 177.114 270.641 177.407 271.212 177.614C271.421 177.667 271.569 177.667 271.586 177.614C271.603 177.562 271.464 177.527 271.343 177.536C271.221 177.545 271.143 177.588 271.177 177.536C271.218 177.46 271.265 177.388 271.316 177.319C271.403 177.213 271.479 177.1 271.543 176.98C271.907 176.381 272.227 175.756 272.499 175.11C273.132 173.62 273.69 172.099 274.169 170.553C275.16 167.37 276.065 164.056 276.848 160.726C277.63 157.395 278.404 153.994 279.1 150.672C279.314 149.754 279.876 148.954 280.668 148.442C281.459 147.929 282.419 147.743 283.345 147.924C284.27 148.104 285.09 148.636 285.632 149.408C286.173 150.18 286.394 151.132 286.249 152.064L286.283 152.038Z" fill="#FFB573"/>
<path d="M278.378 183.485C278.378 185.624 311.721 186.041 311.721 183.215L294.685 178.867L278.378 183.485Z" fill="#263238"/>
<path d="M284.501 146.428C293.292 144.958 302.273 145.046 311.034 146.689C311.548 146.771 312.04 146.956 312.479 147.235C312.918 147.514 313.296 147.88 313.588 148.31C313.881 148.74 314.082 149.226 314.18 149.737C314.277 150.248 314.269 150.773 314.156 151.281C309.442 172.388 309.712 179.484 310.164 190.598H280.996C279.535 172.057 278.761 161.474 278.57 155.464C278.413 150.881 279.987 147.098 284.501 146.428Z" fill="#FFB573"/>
<path opacity="0.2" d="M310.947 152.559C310.763 155.505 311.153 158.458 312.095 161.256C312.469 159.247 312.903 157.09 313.399 154.733L310.947 152.559Z" fill="black"/>
<path d="M301.459 131.018C300.589 135.235 299.798 142.984 302.755 145.802C302.755 145.802 301.598 150.089 293.754 150.089C285.118 150.089 289.623 145.802 289.623 145.802C294.336 144.671 294.215 141.175 293.397 137.897L301.459 131.018Z" fill="#FFB573"/>
<path opacity="0.2" d="M298.172 133.827L293.397 137.923C293.6 138.687 293.737 139.466 293.806 140.253C295.606 139.993 298.076 138.018 298.267 136.131C298.374 135.364 298.342 134.583 298.172 133.827Z" fill="black"/>
<path d="M306.016 123.695C304.399 130.574 303.868 133.522 299.746 136.488C293.554 140.958 285.449 137.479 284.962 130.252C284.527 123.756 287.232 113.59 294.528 111.99C296.131 111.628 297.799 111.682 299.375 112.147C300.951 112.611 302.382 113.47 303.533 114.642C304.683 115.815 305.515 117.262 305.95 118.846C306.385 120.431 306.407 122.1 306.016 123.695Z" fill="#FFB573"/>
<path d="M303.39 113.346C296.102 114.155 298.32 127.739 303.799 129.052C310.217 125.913 314.174 113.99 303.39 113.346Z" fill="#263238"/>
<path d="M339.063 341.084L334.028 342.615L326.679 327.222L334.428 325.108L339.063 341.084Z" fill="#FFB573"/>
<path d="M332.575 341.075L339.046 338.57C339.159 338.527 339.284 338.525 339.398 338.565C339.513 338.604 339.61 338.683 339.672 338.788L342.568 343.675C342.637 343.797 342.68 343.933 342.692 344.072C342.704 344.212 342.686 344.353 342.639 344.485C342.592 344.617 342.517 344.737 342.419 344.838C342.321 344.938 342.203 345.016 342.072 345.067C339.802 345.937 338.706 346.38 335.863 347.484C334.123 348.163 331.393 350.424 328.975 351.354C326.557 352.285 325.496 350.076 326.366 349.311C328.722 347.254 330.578 344.688 331.793 341.806C331.866 341.637 331.974 341.485 332.108 341.359C332.243 341.234 332.402 341.137 332.575 341.075Z" fill="#263238"/>
<path d="M288.997 190.598C288.997 190.598 299.719 245.447 303.781 267.128C307.981 289.739 326.696 327.186 326.696 327.186L334.462 325.064C334.462 325.064 323.826 285.008 318.869 265.154C317.895 229.202 319.043 199.929 310.173 190.563L288.997 190.598Z" fill="#407BFF"/>
<path d="M294.606 123.652C294.511 124.217 294.137 124.626 293.737 124.521C293.337 124.417 293.145 123.947 293.241 123.382C293.337 122.817 293.719 122.408 294.111 122.469C294.502 122.53 294.711 123.086 294.606 123.652Z" fill="#263238"/>
<path d="M288.214 122.565C288.119 123.13 287.736 123.539 287.345 123.434C286.953 123.33 286.753 122.869 286.849 122.295C286.945 121.721 287.327 121.321 287.719 121.425C288.11 121.53 288.31 121.999 288.214 122.565Z" fill="#263238"/>
<path d="M287.875 121.487L286.579 120.86C286.579 120.86 287.101 122.043 287.875 121.487Z" fill="#263238"/>
<path d="M290.005 123.921C289.287 125.124 288.41 126.224 287.396 127.191C287.65 127.445 287.955 127.641 288.292 127.765C288.628 127.89 288.987 127.94 289.345 127.913L290.005 123.921Z" fill="#ED893E"/>
<path d="M292.04 130.652C291.749 130.653 291.458 130.626 291.171 130.574C291.149 130.571 291.128 130.563 291.109 130.552C291.09 130.541 291.074 130.526 291.061 130.508C291.048 130.49 291.039 130.47 291.034 130.448C291.029 130.427 291.028 130.405 291.032 130.383C291.04 130.34 291.065 130.301 291.1 130.276C291.135 130.25 291.179 130.238 291.223 130.244C291.925 130.377 292.649 130.345 293.336 130.148C294.023 129.952 294.655 129.598 295.18 129.113C295.195 129.096 295.214 129.083 295.235 129.074C295.256 129.064 295.279 129.06 295.302 129.06C295.325 129.06 295.347 129.064 295.368 129.074C295.389 129.083 295.408 129.096 295.423 129.113C295.453 129.145 295.469 129.187 295.469 129.231C295.469 129.274 295.453 129.316 295.423 129.348C294.513 130.213 293.296 130.682 292.04 130.652Z" fill="#263238"/>
<path d="M307.007 129.626C306.314 130.804 305.187 131.662 303.868 132.018C302.129 132.461 301.259 130.887 301.798 129.252C302.259 127.782 303.738 125.774 305.486 126.043C305.865 126.112 306.222 126.275 306.523 126.516C306.824 126.757 307.061 127.069 307.212 127.425C307.363 127.78 307.423 128.167 307.387 128.551C307.352 128.935 307.221 129.305 307.007 129.626Z" fill="#FFB573"/>
<path d="M297.38 122.782C297.31 122.781 297.242 122.758 297.185 122.716C297.129 122.674 297.088 122.615 297.067 122.547C296.606 121.06 294.702 120.417 294.684 120.417C294.641 120.404 294.602 120.382 294.567 120.354C294.533 120.325 294.505 120.29 294.484 120.25C294.464 120.21 294.452 120.167 294.449 120.122C294.446 120.077 294.452 120.033 294.467 119.99C294.48 119.948 294.501 119.908 294.53 119.873C294.558 119.839 294.594 119.811 294.633 119.79C294.673 119.77 294.717 119.758 294.761 119.755C294.806 119.752 294.851 119.758 294.893 119.773C294.98 119.773 297.145 120.53 297.711 122.382C297.724 122.425 297.729 122.47 297.725 122.515C297.721 122.559 297.708 122.603 297.687 122.642C297.666 122.682 297.637 122.717 297.602 122.745C297.568 122.774 297.528 122.795 297.485 122.808L297.38 122.782Z" fill="#263238"/>
<path d="M286.788 119.277C286.73 119.276 286.673 119.261 286.623 119.232C286.572 119.203 286.53 119.162 286.501 119.112C286.457 119.034 286.446 118.941 286.471 118.855C286.495 118.768 286.553 118.695 286.631 118.651C287.089 118.374 287.607 118.211 288.141 118.174C288.675 118.138 289.21 118.23 289.701 118.442C289.78 118.483 289.84 118.554 289.868 118.638C289.895 118.723 289.888 118.815 289.849 118.895C289.808 118.974 289.738 119.033 289.653 119.061C289.568 119.089 289.476 119.082 289.397 119.042C289.004 118.882 288.579 118.815 288.156 118.849C287.733 118.882 287.324 119.014 286.962 119.234C286.909 119.265 286.849 119.28 286.788 119.277Z" fill="#263238"/>
<path d="M313.417 147.898C315.895 151.142 318.148 154.42 320.287 157.882C321.348 159.621 322.392 161.36 323.348 163.213C324.388 165.132 325.246 167.144 325.914 169.222C326.009 169.5 326.079 169.822 326.157 170.092L326.218 170.344L326.296 170.709C326.332 170.937 326.355 171.166 326.366 171.396C326.406 172.151 326.351 172.908 326.201 173.649C325.953 174.823 325.583 175.969 325.096 177.066C324.239 179.005 323.226 180.872 322.07 182.65C319.868 186.065 317.393 189.296 314.669 192.311C314.371 192.646 313.959 192.857 313.513 192.905C313.068 192.953 312.621 192.834 312.258 192.571C311.896 192.307 311.643 191.919 311.551 191.481C311.458 191.043 311.531 190.586 311.756 190.198V190.155C313.678 186.807 315.582 183.363 317.226 179.954C318.032 178.31 318.732 176.617 319.322 174.884C319.576 174.148 319.751 173.387 319.844 172.614C319.876 172.386 319.876 172.155 319.844 171.927V171.874V171.77C319.783 171.596 319.739 171.44 319.661 171.257C318.984 169.627 318.187 168.048 317.278 166.535C316.321 164.926 315.304 163.317 314.26 161.708C312.138 158.525 309.912 155.325 307.651 152.229C307.109 151.452 306.891 150.495 307.043 149.56C307.195 148.625 307.705 147.786 308.465 147.221C309.224 146.656 310.174 146.408 311.113 146.531C312.053 146.655 312.907 147.138 313.495 147.881L313.417 147.898Z" fill="#FFB573"/>
<path d="M294.276 122.573L292.98 121.947C292.98 121.947 293.493 123.139 294.276 122.573Z" fill="#263238"/>
<path d="M279.387 153.385C279.925 151.191 280.616 149.038 281.457 146.941C282.791 146.543 284.155 146.252 285.536 146.072C288.348 148.564 290.662 151.569 292.354 154.925C296.085 151.15 303.225 147.333 307.573 145.941C309.044 145.848 310.519 146.034 311.921 146.489C308.956 155.847 305.929 165.256 311.295 167.674C311.199 172.118 311.452 177.632 311.678 183.206C306.608 182.649 286.501 181.684 278.335 183.476C277.918 177.823 277.77 173.04 277.796 168.909C273.995 164.065 277.805 157.473 279.387 153.385Z" fill="#263238"/>
<mask id="mask0_1176_59873" style="mask-type:luminance" maskUnits="userSpaceOnUse" x="276" y="145" width="36" height="39">
<path d="M279.387 153.385C279.925 151.191 280.616 149.038 281.457 146.941C282.791 146.543 284.155 146.252 285.536 146.072C288.348 148.564 290.662 151.569 292.354 154.925C296.085 151.15 303.225 147.333 307.573 145.941C309.044 145.848 310.519 146.034 311.921 146.489C308.956 155.847 305.929 165.256 311.295 167.674C311.199 172.118 311.452 177.632 311.678 183.206C306.608 182.649 286.501 181.684 278.335 183.476C277.918 177.823 277.77 173.04 277.796 168.909C273.995 164.065 277.805 157.473 279.387 153.385Z" fill="white"/>
</mask>
<g mask="url(#mask0_1176_59873)">
<g opacity="0.2">
<path d="M287.38 170.787C287.334 170.793 287.291 170.81 287.254 170.838C287.218 170.865 287.189 170.902 287.171 170.944C286.554 172.674 286.573 174.566 287.223 176.284C286.623 175.779 286.032 175.283 285.484 174.779C285.974 173.732 286.163 172.569 286.031 171.421C285.899 170.272 285.451 169.183 284.736 168.274C284.708 168.238 284.673 168.21 284.632 168.192C284.591 168.174 284.546 168.166 284.501 168.17C284.455 168.173 284.411 168.19 284.374 168.218C284.337 168.245 284.309 168.283 284.292 168.326C283.656 170.104 283.696 172.055 284.405 173.805C283.623 173.092 282.875 172.379 282.188 171.692C282.701 170.639 282.908 169.463 282.783 168.299C282.658 167.134 282.208 166.028 281.483 165.108C281.456 165.073 281.42 165.045 281.379 165.026C281.338 165.008 281.293 165.001 281.249 165.004C281.202 165.008 281.158 165.024 281.121 165.052C281.084 165.08 281.056 165.117 281.04 165.161C280.407 166.942 280.448 168.894 281.153 170.648C279.961 169.405 278.97 168.274 278.231 167.335C277.965 166.283 277.437 165.316 276.697 164.524C275.956 163.731 275.027 163.14 273.996 162.804C273.954 162.796 273.91 162.799 273.87 162.812C273.829 162.824 273.792 162.846 273.761 162.876C273.731 162.906 273.708 162.942 273.694 162.983C273.68 163.023 273.676 163.066 273.682 163.108C274.465 166.961 277.3 167.63 277.874 167.726C278.283 168.239 278.744 168.804 279.3 169.413C277.937 168.802 276.421 168.62 274.952 168.891C274.908 168.902 274.867 168.924 274.835 168.957C274.802 168.989 274.78 169.03 274.77 169.074C274.757 169.117 274.754 169.163 274.764 169.207C274.773 169.251 274.793 169.292 274.822 169.326C275.569 170.179 276.54 170.806 277.625 171.136C278.71 171.466 279.866 171.487 280.962 171.196C281.449 171.7 281.97 172.214 282.518 172.744C280.677 172.217 278.71 172.334 276.944 173.074C276.902 173.097 276.867 173.13 276.842 173.17C276.818 173.211 276.805 173.258 276.805 173.305C276.805 173.352 276.818 173.399 276.842 173.439C276.867 173.48 276.902 173.513 276.944 173.535C277.937 174.154 279.074 174.501 280.243 174.542C281.412 174.583 282.571 174.317 283.605 173.77C284.336 174.457 285.11 175.144 285.91 175.831C284.128 175.027 282.112 174.909 280.248 175.501C280.205 175.518 280.167 175.547 280.138 175.583C280.109 175.62 280.09 175.663 280.083 175.71C280.079 175.755 280.085 175.8 280.102 175.843C280.118 175.885 280.145 175.923 280.179 175.953C281.094 176.695 282.197 177.168 283.365 177.322C284.533 177.475 285.721 177.303 286.797 176.823L286.867 176.779C286.894 176.75 286.912 176.714 286.919 176.675L287.901 177.475C287.932 177.516 287.974 177.546 288.023 177.562C288.545 177.979 289.075 178.388 289.615 178.788C289.662 178.829 289.722 178.851 289.784 178.851C289.846 178.851 289.907 178.829 289.954 178.788C289.974 178.76 289.988 178.729 289.996 178.695C290.004 178.662 290.005 178.627 289.999 178.593C289.994 178.559 289.981 178.526 289.963 178.497C289.945 178.468 289.921 178.443 289.893 178.423C289.397 178.049 288.902 177.675 288.423 177.284C288.875 176.248 289.038 175.109 288.894 173.988C288.75 172.867 288.305 171.806 287.606 170.918C287.583 170.878 287.55 170.845 287.51 170.822C287.47 170.799 287.425 170.787 287.38 170.787Z" fill="white"/>
<path d="M278.805 157.316C278.85 157.311 278.893 157.294 278.93 157.266C278.967 157.239 278.995 157.202 279.013 157.16C279.63 155.43 279.612 153.538 278.961 151.82C279.561 152.325 280.153 152.82 280.701 153.325C280.211 154.372 280.021 155.535 280.153 156.683C280.286 157.832 280.734 158.921 281.448 159.83C281.476 159.865 281.512 159.893 281.553 159.912C281.594 159.93 281.639 159.938 281.683 159.934C281.729 159.93 281.773 159.914 281.81 159.886C281.847 159.858 281.876 159.821 281.892 159.778C282.529 157.999 282.488 156.049 281.779 154.299C282.562 155.012 283.31 155.725 283.997 156.412C283.483 157.464 283.277 158.641 283.401 159.805C283.526 160.97 283.976 162.075 284.701 162.995C284.728 163.031 284.764 163.059 284.805 163.077C284.846 163.095 284.891 163.103 284.936 163.1C284.982 163.096 285.026 163.079 285.063 163.052C285.1 163.024 285.128 162.986 285.145 162.943C285.777 161.161 285.737 159.21 285.031 157.456C286.223 158.699 287.214 159.83 287.954 160.769C288.219 161.821 288.747 162.788 289.488 163.58C290.228 164.372 291.158 164.964 292.189 165.3C292.231 165.307 292.274 165.304 292.315 165.292C292.355 165.279 292.392 165.257 292.423 165.228C292.454 165.198 292.477 165.161 292.49 165.121C292.504 165.081 292.508 165.038 292.502 164.996C291.719 161.143 288.884 160.473 288.31 160.378C287.901 159.865 287.44 159.299 286.884 158.69C288.246 159.304 289.764 159.483 291.232 159.204C291.276 159.196 291.317 159.175 291.35 159.144C291.382 159.113 291.405 159.074 291.415 159.03C291.428 158.987 291.43 158.941 291.421 158.897C291.412 158.853 291.392 158.812 291.363 158.777C290.615 157.925 289.644 157.298 288.559 156.968C287.474 156.637 286.319 156.617 285.223 156.908C284.736 156.403 284.214 155.89 283.666 155.36C285.508 155.886 287.474 155.77 289.241 155.029C289.282 155.007 289.318 154.974 289.342 154.933C289.366 154.893 289.379 154.846 289.379 154.799C289.379 154.751 289.366 154.705 289.342 154.664C289.318 154.624 289.282 154.591 289.241 154.568C288.248 153.95 287.11 153.603 285.941 153.562C284.772 153.521 283.613 153.787 282.579 154.333C281.849 153.646 281.075 152.959 280.274 152.272C282.056 153.077 284.073 153.194 285.936 152.603C285.978 152.584 286.015 152.555 286.044 152.519C286.073 152.482 286.093 152.44 286.101 152.394C286.106 152.349 286.099 152.303 286.083 152.261C286.066 152.219 286.04 152.181 286.006 152.151C285.09 151.409 283.987 150.935 282.819 150.782C281.651 150.628 280.463 150.801 279.387 151.281L279.318 151.324C279.29 151.353 279.272 151.39 279.266 151.429L278.283 150.629C278.252 150.588 278.21 150.557 278.161 150.542C277.639 150.124 277.109 149.716 276.57 149.316C276.522 149.275 276.462 149.253 276.4 149.253C276.338 149.253 276.278 149.275 276.231 149.316C276.191 149.372 276.175 149.441 276.184 149.509C276.194 149.576 276.229 149.638 276.283 149.681C276.787 150.055 277.283 150.429 277.761 150.82C277.309 151.856 277.147 152.995 277.291 154.116C277.435 155.237 277.88 156.298 278.579 157.186C278.602 157.226 278.634 157.259 278.674 157.282C278.714 157.304 278.759 157.316 278.805 157.316Z" fill="white"/>
<path d="M305.616 177.136C305.572 177.142 305.53 177.159 305.494 177.185C305.458 177.21 305.428 177.244 305.408 177.284C304.798 179.015 304.817 180.905 305.46 182.624C304.86 182.128 304.268 181.624 303.72 181.119C304.21 180.074 304.4 178.912 304.268 177.765C304.136 176.618 303.687 175.53 302.972 174.623C302.946 174.587 302.91 174.559 302.869 174.541C302.828 174.523 302.783 174.516 302.739 174.52C302.694 174.524 302.651 174.54 302.615 174.566C302.578 174.591 302.548 174.626 302.529 174.666C301.897 176.448 301.937 178.4 302.642 180.154C301.859 179.432 301.111 178.728 300.424 178.041C300.94 176.99 301.148 175.815 301.023 174.651C300.899 173.488 300.447 172.383 299.72 171.466C299.694 171.428 299.659 171.399 299.617 171.38C299.576 171.362 299.53 171.355 299.485 171.362C299.441 171.367 299.399 171.383 299.362 171.409C299.326 171.435 299.296 171.469 299.276 171.509C298.644 173.291 298.684 175.243 299.389 176.997C298.198 175.762 297.207 174.623 296.467 173.684C296.199 172.633 295.67 171.668 294.93 170.876C294.19 170.084 293.262 169.491 292.232 169.153C292.19 169.144 292.147 169.146 292.106 169.158C292.065 169.17 292.028 169.192 291.997 169.222C291.966 169.254 291.942 169.292 291.929 169.334C291.915 169.377 291.912 169.422 291.919 169.466C292.702 173.31 295.546 173.979 296.111 174.075C296.52 174.588 296.981 175.162 297.537 175.771C296.174 175.16 294.658 174.977 293.189 175.249C293.145 175.261 293.105 175.284 293.073 175.316C293.041 175.348 293.018 175.388 293.006 175.432C292.993 175.473 292.991 175.518 293 175.56C293.009 175.603 293.029 175.643 293.058 175.675C293.802 176.534 294.772 177.164 295.859 177.495C296.945 177.826 298.103 177.843 299.198 177.545C299.685 178.049 300.207 178.571 300.755 179.102C298.914 178.57 296.946 178.687 295.18 179.432C295.141 179.456 295.107 179.489 295.083 179.528C295.059 179.567 295.044 179.612 295.041 179.658C295.04 179.704 295.052 179.75 295.075 179.789C295.098 179.829 295.131 179.862 295.172 179.884C296.164 180.503 297.301 180.851 298.47 180.894C299.639 180.937 300.798 180.672 301.833 180.128C302.564 180.806 303.338 181.493 304.138 182.189C302.356 181.385 300.34 181.267 298.476 181.858C298.433 181.876 298.395 181.904 298.366 181.941C298.337 181.978 298.318 182.021 298.311 182.067C298.306 182.112 298.313 182.157 298.331 182.199C298.35 182.24 298.379 182.276 298.415 182.302C299.331 183.043 300.434 183.517 301.602 183.671C302.77 183.824 303.958 183.651 305.034 183.172L305.094 183.119C305.12 183.091 305.14 183.059 305.155 183.024L306.138 183.824C306.165 183.864 306.205 183.895 306.251 183.911C306.773 184.328 307.303 184.737 307.843 185.146C307.89 185.186 307.95 185.208 308.012 185.208C308.074 185.208 308.135 185.186 308.182 185.146C308.223 185.09 308.241 185.021 308.231 184.952C308.222 184.884 308.185 184.822 308.13 184.78C307.625 184.407 307.138 184.024 306.651 183.641C307.105 182.606 307.27 181.468 307.127 180.346C306.985 179.225 306.541 178.164 305.842 177.275C305.82 177.235 305.787 177.2 305.748 177.176C305.708 177.152 305.663 177.138 305.616 177.136Z" fill="white"/>
<path d="M322.34 183.145C322.294 183.149 322.25 183.165 322.213 183.193C322.176 183.221 322.147 183.258 322.131 183.302C321.511 185.03 321.526 186.923 322.175 188.641C321.575 188.137 320.992 187.632 320.435 187.137C320.927 186.091 321.119 184.928 320.988 183.779C320.858 182.631 320.41 181.541 319.696 180.632C319.668 180.595 319.631 180.566 319.588 180.548C319.545 180.529 319.499 180.522 319.453 180.527C319.407 180.534 319.365 180.551 319.328 180.579C319.292 180.606 319.263 180.642 319.244 180.684C318.611 182.463 318.652 184.412 319.357 186.163C318.574 185.45 317.835 184.737 317.148 184.049C317.662 182.997 317.868 181.821 317.743 180.656C317.619 179.492 317.168 178.386 316.444 177.466C316.416 177.431 316.38 177.402 316.339 177.384C316.298 177.366 316.253 177.358 316.209 177.362C316.163 177.365 316.119 177.382 316.082 177.41C316.045 177.437 316.016 177.475 316 177.518C315.364 179.3 315.404 181.252 316.113 183.006C314.922 181.762 313.922 180.632 313.191 179.692C312.925 178.641 312.398 177.674 311.657 176.881C310.916 176.089 309.987 175.497 308.956 175.162C308.914 175.152 308.87 175.153 308.828 175.165C308.786 175.177 308.748 175.199 308.717 175.229C308.686 175.259 308.663 175.297 308.65 175.338C308.637 175.379 308.634 175.423 308.643 175.466C309.425 179.319 312.26 179.988 312.834 180.084C313.235 180.597 313.704 181.162 314.261 181.771C312.897 181.162 311.381 180.98 309.912 181.249C309.869 181.263 309.83 181.286 309.799 181.318C309.767 181.35 309.743 181.389 309.73 181.432C309.718 181.476 309.717 181.522 309.728 181.566C309.739 181.61 309.76 181.65 309.791 181.684C310.538 182.535 311.507 183.161 312.59 183.491C313.673 183.821 314.827 183.843 315.922 183.554C316.417 184.058 316.931 184.571 317.478 185.102C315.64 184.575 313.676 184.692 311.913 185.432C311.871 185.453 311.835 185.486 311.811 185.526C311.786 185.565 311.773 185.611 311.773 185.658C311.773 185.705 311.783 185.75 311.805 185.791C311.826 185.832 311.857 185.867 311.895 185.893C312.891 186.509 314.029 186.854 315.199 186.896C316.369 186.937 317.529 186.672 318.566 186.128C319.296 186.812 320.061 187.499 320.861 188.189C319.079 187.385 317.063 187.267 315.2 187.859C315.157 187.875 315.119 187.903 315.091 187.94C315.064 187.977 315.047 188.021 315.043 188.067C315.039 188.113 315.045 188.158 315.062 188.201C315.079 188.243 315.105 188.281 315.139 188.311C316.055 189.051 317.158 189.525 318.326 189.678C319.493 189.832 320.681 189.659 321.757 189.18C321.777 189.184 321.798 189.184 321.818 189.18C321.851 189.155 321.873 189.117 321.879 189.076L322.862 189.876C322.891 189.915 322.93 189.945 322.975 189.963C323.496 190.381 324.027 190.789 324.566 191.189C324.613 191.23 324.674 191.252 324.736 191.252C324.798 191.252 324.858 191.23 324.905 191.189C324.927 191.162 324.943 191.131 324.952 191.098C324.961 191.065 324.964 191.03 324.959 190.995C324.954 190.961 324.942 190.928 324.924 190.899C324.906 190.869 324.882 190.844 324.853 190.824L323.375 189.685C323.829 188.65 323.993 187.511 323.851 186.39C323.708 185.269 323.264 184.208 322.566 183.319C322.548 183.272 322.518 183.23 322.478 183.2C322.438 183.169 322.39 183.15 322.34 183.145Z" fill="white"/>
<path d="M284.101 184.127C284.056 184.131 284.013 184.147 283.976 184.173C283.94 184.199 283.911 184.234 283.892 184.275C283.272 186.004 283.287 187.897 283.936 189.615C283.336 189.119 282.753 188.615 282.196 188.11C282.688 187.064 282.88 185.902 282.749 184.753C282.619 183.604 282.171 182.515 281.457 181.605C281.429 181.57 281.392 181.543 281.349 181.525C281.307 181.508 281.262 181.502 281.217 181.507C281.172 181.512 281.128 181.529 281.091 181.555C281.054 181.581 281.025 181.617 281.005 181.658C280.373 183.439 280.413 185.391 281.118 187.145C280.335 186.423 279.596 185.719 278.909 185.032C279.423 183.979 279.629 182.803 279.504 181.639C279.38 180.474 278.929 179.369 278.205 178.449C278.178 178.413 278.142 178.385 278.101 178.368C278.059 178.351 278.014 178.346 277.97 178.353C277.924 178.355 277.881 178.37 277.843 178.396C277.806 178.422 277.778 178.458 277.761 178.501C277.125 180.282 277.165 182.235 277.874 183.988C276.844 182.935 275.869 181.829 274.952 180.675C274.683 179.625 274.155 178.659 273.414 177.867C272.674 177.075 271.746 176.483 270.717 176.144C270.674 176.135 270.629 176.137 270.587 176.149C270.544 176.161 270.505 176.183 270.473 176.213C270.446 176.245 270.425 176.283 270.413 176.323C270.401 176.364 270.398 176.406 270.404 176.448C271.186 180.301 274.021 180.971 274.595 181.066C274.996 181.579 275.465 182.145 276.022 182.805C274.661 182.188 273.142 182.005 271.673 182.284C271.631 182.295 271.592 182.317 271.56 182.347C271.528 182.378 271.504 182.416 271.491 182.458C271.479 182.501 271.478 182.547 271.489 182.592C271.5 182.636 271.521 182.676 271.552 182.71C272.293 183.568 273.262 184.2 274.347 184.53C275.432 184.861 276.589 184.878 277.683 184.58C278.178 185.084 278.692 185.606 279.239 186.136C277.402 185.601 275.435 185.718 273.674 186.467C273.632 186.486 273.597 186.517 273.573 186.556C273.548 186.594 273.535 186.639 273.534 186.684C273.533 186.73 273.543 186.776 273.565 186.818C273.586 186.859 273.617 186.894 273.656 186.919C274.65 187.538 275.789 187.886 276.959 187.928C278.129 187.971 279.29 187.707 280.327 187.162C281.057 187.841 281.822 188.528 282.622 189.215C280.84 188.413 278.823 188.298 276.961 188.893C276.919 188.909 276.882 188.936 276.855 188.971C276.827 189.006 276.81 189.049 276.804 189.093C276.798 189.138 276.804 189.185 276.821 189.227C276.837 189.27 276.865 189.307 276.9 189.337C277.816 190.077 278.919 190.55 280.087 190.704C281.254 190.857 282.442 190.685 283.518 190.206C283.538 190.21 283.559 190.21 283.579 190.206C283.61 190.183 283.632 190.149 283.64 190.111L284.623 190.911C284.652 190.949 284.691 190.979 284.736 190.998C285.266 191.415 285.788 191.824 286.327 192.233C286.374 192.273 286.435 192.295 286.497 192.295C286.559 192.295 286.619 192.273 286.666 192.233C286.688 192.206 286.704 192.175 286.713 192.141C286.722 192.108 286.725 192.073 286.72 192.039C286.715 192.004 286.703 191.971 286.685 191.942C286.667 191.913 286.643 191.887 286.614 191.867L285.136 190.728C285.589 189.692 285.754 188.552 285.611 187.429C285.469 186.307 285.025 185.244 284.327 184.353C284.323 184.295 284.298 184.24 284.256 184.198C284.215 184.157 284.159 184.131 284.101 184.127Z" fill="white"/>
<path d="M305.06 147.489C305.015 147.495 304.972 147.513 304.935 147.54C304.899 147.568 304.87 147.604 304.851 147.645C304.242 149.376 304.26 151.266 304.903 152.985C304.303 152.481 303.712 151.985 303.164 151.481C303.654 150.433 303.843 149.271 303.711 148.122C303.579 146.974 303.131 145.884 302.416 144.976C302.389 144.94 302.353 144.912 302.312 144.894C302.271 144.875 302.226 144.868 302.181 144.871C302.135 144.875 302.091 144.892 302.054 144.919C302.017 144.947 301.989 144.985 301.973 145.028C301.34 146.807 301.38 148.755 302.086 150.507C301.303 149.794 300.555 149.08 299.868 148.393C300.381 147.341 300.588 146.165 300.463 145C300.339 143.836 299.888 142.73 299.164 141.81C299.137 141.774 299.101 141.745 299.06 141.727C299.019 141.709 298.974 141.701 298.929 141.706C298.883 141.709 298.839 141.726 298.802 141.754C298.765 141.781 298.736 141.819 298.72 141.862C298.088 143.644 298.128 145.596 298.833 147.35C297.642 146.106 296.65 144.976 295.911 144.036C295.645 142.985 295.118 142.018 294.377 141.225C293.636 140.433 292.707 139.841 291.676 139.505C291.634 139.498 291.591 139.501 291.55 139.513C291.509 139.526 291.472 139.548 291.442 139.578C291.411 139.607 291.388 139.644 291.374 139.684C291.361 139.725 291.357 139.768 291.363 139.81C292.145 143.662 294.989 144.332 295.554 144.428C295.963 144.941 296.424 145.506 296.981 146.115C295.618 145.504 294.101 145.322 292.632 145.593C292.589 145.606 292.55 145.63 292.519 145.662C292.487 145.694 292.463 145.733 292.45 145.776C292.437 145.819 292.435 145.864 292.444 145.908C292.453 145.952 292.473 145.994 292.502 146.028C293.25 146.881 294.221 147.507 295.305 147.838C296.39 148.168 297.546 148.189 298.642 147.898C299.129 148.402 299.651 148.915 300.198 149.446C298.357 148.919 296.39 149.036 294.624 149.776C294.584 149.8 294.551 149.833 294.527 149.872C294.502 149.912 294.488 149.956 294.485 150.002C294.484 150.049 294.496 150.096 294.519 150.137C294.542 150.178 294.575 150.213 294.615 150.237C295.608 150.855 296.746 151.202 297.915 151.244C299.084 151.285 300.243 151.019 301.277 150.472C302.007 151.159 302.781 151.846 303.581 152.533C301.799 151.729 299.783 151.611 297.92 152.202C297.877 152.22 297.839 152.248 297.81 152.285C297.781 152.322 297.762 152.365 297.755 152.411C297.75 152.457 297.757 152.504 297.775 152.547C297.793 152.589 297.822 152.627 297.859 152.655C298.773 153.396 299.874 153.869 301.041 154.022C302.208 154.176 303.394 154.004 304.468 153.524L304.538 153.481C304.565 153.452 304.584 153.416 304.59 153.377L305.573 154.177C305.605 154.216 305.647 154.246 305.695 154.264C306.216 154.681 306.747 155.09 307.286 155.49C307.333 155.53 307.394 155.552 307.456 155.552C307.518 155.552 307.578 155.53 307.625 155.49C307.667 155.434 307.685 155.365 307.675 155.296C307.665 155.228 307.628 155.166 307.573 155.125C307.069 154.751 306.582 154.377 306.095 153.985C306.549 152.95 306.713 151.812 306.571 150.69C306.428 149.569 305.984 148.508 305.286 147.619C305.261 147.581 305.228 147.55 305.189 147.527C305.149 147.504 305.105 147.491 305.06 147.489Z" fill="white"/>
<path d="M296.798 164.013C296.843 164.009 296.886 163.993 296.922 163.967C296.959 163.941 296.988 163.906 297.007 163.865C297.627 162.136 297.611 160.243 296.963 158.525C297.563 159.021 298.146 159.525 298.702 160.03C298.211 161.076 298.019 162.238 298.15 163.387C298.28 164.536 298.728 165.625 299.442 166.535C299.47 166.57 299.507 166.597 299.549 166.615C299.591 166.632 299.637 166.638 299.682 166.633C299.727 166.628 299.77 166.611 299.807 166.585C299.844 166.558 299.874 166.523 299.894 166.482C300.526 164.701 300.486 162.749 299.781 160.995C300.564 161.714 301.303 162.418 301.999 163.108C301.485 164.161 301.279 165.337 301.403 166.501C301.528 167.666 301.978 168.771 302.703 169.691C302.731 169.727 302.769 169.754 302.811 169.771C302.853 169.789 302.898 169.795 302.943 169.79C302.988 169.784 303.032 169.768 303.069 169.742C303.106 169.715 303.135 169.68 303.155 169.639C303.789 167.857 303.745 165.904 303.033 164.152C304.064 165.205 305.039 166.311 305.955 167.465C306.224 168.517 306.754 169.483 307.496 170.275C308.238 171.067 309.168 171.659 310.199 171.996C310.241 172.005 310.285 172.003 310.325 171.991C310.366 171.978 310.404 171.956 310.434 171.926C310.464 171.894 310.486 171.855 310.498 171.813C310.51 171.771 310.512 171.726 310.504 171.683C309.73 167.839 306.886 167.169 306.312 167.074C305.912 166.561 305.442 165.995 304.886 165.334C306.247 165.952 307.766 166.135 309.234 165.856C309.277 165.845 309.316 165.823 309.348 165.793C309.38 165.762 309.403 165.724 309.417 165.682C309.429 165.639 309.429 165.592 309.419 165.548C309.408 165.504 309.386 165.464 309.356 165.43C308.614 164.572 307.645 163.94 306.56 163.61C305.475 163.279 304.319 163.262 303.225 163.56C302.738 163.056 302.216 162.534 301.668 162.004C303.506 162.539 305.472 162.422 307.234 161.673C307.276 161.652 307.311 161.62 307.336 161.58C307.36 161.54 307.373 161.494 307.373 161.447C307.376 161.402 307.366 161.357 307.344 161.317C307.323 161.277 307.291 161.244 307.251 161.221C306.257 160.602 305.119 160.254 303.949 160.212C302.778 160.169 301.617 160.433 300.581 160.977C299.85 160.299 299.085 159.612 298.285 158.925C300.069 159.723 302.084 159.838 303.947 159.247C303.989 159.231 304.025 159.204 304.053 159.169C304.081 159.134 304.098 159.091 304.103 159.047C304.111 159.001 304.106 158.955 304.089 158.912C304.072 158.869 304.044 158.831 304.007 158.803C303.093 158.06 301.99 157.585 300.821 157.432C299.653 157.278 298.465 157.452 297.389 157.934C297.369 157.93 297.349 157.93 297.328 157.934C297.303 157.962 297.283 157.994 297.268 158.029L296.285 157.229C296.258 157.189 296.218 157.158 296.172 157.142C295.65 156.725 295.12 156.273 294.58 155.907C294.533 155.867 294.473 155.845 294.411 155.845C294.349 155.845 294.288 155.867 294.241 155.907C294.2 155.963 294.182 156.032 294.192 156.101C294.201 156.169 294.238 156.231 294.293 156.273L295.772 157.412C295.318 158.448 295.154 159.588 295.296 160.711C295.439 161.833 295.882 162.896 296.581 163.786C296.589 163.842 296.614 163.894 296.653 163.934C296.692 163.975 296.743 164.002 296.798 164.013Z" fill="white"/>
</g>
</g>
<path d="M300.615 171.492L242.348 177.37C240.794 177.529 239.366 178.297 238.378 179.507C237.39 180.717 236.923 182.269 237.078 183.823L239.078 203.747C240.596 202.672 242.369 202.013 244.22 201.837C246.072 201.661 247.937 201.973 249.631 202.743C251.324 203.513 252.785 204.713 253.87 206.224C254.954 207.736 255.623 209.505 255.81 211.355C255.997 213.206 255.696 215.073 254.936 216.771C254.176 218.468 252.984 219.937 251.479 221.03C249.974 222.123 248.209 222.803 246.36 223.001C244.51 223.198 242.641 222.908 240.939 222.158L242.948 242.082C243.109 243.636 243.877 245.063 245.086 246.052C246.295 247.041 247.846 247.511 249.401 247.361L307.668 241.49C309.223 241.328 310.65 240.557 311.639 239.347C312.628 238.137 313.098 236.585 312.947 235.029L307.077 176.762C306.912 175.209 306.141 173.784 304.931 172.797C303.721 171.81 302.17 171.341 300.615 171.492Z" fill="#407BFF"/>
<path opacity="0.3" d="M300.615 171.492L242.348 177.37C240.794 177.529 239.366 178.297 238.378 179.507C237.39 180.717 236.923 182.269 237.078 183.823L239.078 203.747C240.596 202.672 242.369 202.013 244.22 201.837C246.072 201.661 247.937 201.973 249.631 202.743C251.324 203.513 252.785 204.713 253.87 206.224C254.954 207.736 255.623 209.505 255.81 211.355C255.997 213.206 255.696 215.073 254.936 216.771C254.176 218.468 252.984 219.937 251.479 221.03C249.974 222.123 248.209 222.803 246.36 223.001C244.51 223.198 242.641 222.908 240.939 222.158L242.948 242.082C243.109 243.636 243.877 245.063 245.086 246.052C246.295 247.041 247.846 247.511 249.401 247.361L307.668 241.49C309.223 241.328 310.65 240.557 311.639 239.347C312.628 238.137 313.098 236.585 312.947 235.029L307.077 176.762C306.912 175.209 306.141 173.784 304.931 172.797C303.721 171.81 302.17 171.341 300.615 171.492Z" fill="black"/>
<path d="M316.513 189.363L313.817 188.189L307.486 189.807C306.76 189.996 306.118 190.422 305.66 191.015L304.32 192.755C304.035 193.136 303.89 193.604 303.911 194.079C303.931 194.555 304.116 195.009 304.433 195.364L305.947 197.033C306.309 197.431 306.813 197.672 307.351 197.704C307.888 197.737 308.417 197.558 308.825 197.207L312.26 194.259C312.26 194.259 316.4 192.32 316.513 189.363Z" fill="#FFB573"/>
<path d="M261.629 178.501L264.429 178.144C264.806 178.102 265.16 177.937 265.434 177.674C265.709 177.412 265.891 177.067 265.951 176.692L266.333 174.466C266.385 174.201 266.373 173.927 266.3 173.667C266.228 173.407 266.095 173.168 265.914 172.968C265.732 172.768 265.507 172.613 265.255 172.515C265.004 172.417 264.733 172.379 264.464 172.405L261.194 172.639C260.734 172.664 260.302 172.87 259.994 173.213C259.686 173.555 259.526 174.006 259.55 174.466L259.637 176.814C259.642 177.061 259.699 177.304 259.805 177.527C259.911 177.75 260.063 177.947 260.252 178.107C260.44 178.267 260.66 178.384 260.898 178.452C261.135 178.52 261.384 178.537 261.629 178.501Z" fill="#FFB573"/>
<path d="M305.207 114.59C298.302 118.068 286.17 116.468 286.17 116.468C286.17 116.468 292.936 105.406 305.207 114.59Z" fill="#263238"/>
<path d="M183.699 335.24L180.229 353.302L171.445 351.18L174.915 333.118L183.699 335.24Z" fill="#7F3E3B"/>
<path d="M171.723 347.511L181.489 349.633C181.641 349.662 181.775 349.747 181.867 349.871C181.959 349.995 182.001 350.149 181.985 350.302L181.307 357.477C181.284 357.657 181.225 357.831 181.131 357.986C181.038 358.142 180.914 358.276 180.765 358.381C180.617 358.486 180.449 358.559 180.271 358.595C180.093 358.631 179.91 358.629 179.733 358.59C176.663 357.868 175.75 357.416 171.862 356.573C167.331 355.573 165.722 355.842 160.4 354.677C157.182 353.972 157.33 350.598 158.774 350.589C162.587 350.599 166.334 349.6 169.636 347.693C170.283 347.369 171.029 347.304 171.723 347.511Z" fill="#263238"/>
<path opacity="0.2" d="M183.707 335.248L181.916 344.554L173.123 342.432L174.915 333.118L183.707 335.248Z" fill="black"/>
<path d="M198.987 265.676C209.292 235.36 217.45 199.582 217.45 199.582L188.055 197.721C188.055 197.721 183.707 244.143 181.463 265.554C179.115 287.8 171.819 338.023 171.819 338.023L185.081 340.71C185.081 340.71 197.517 293.418 198.987 265.676Z" fill="#263238"/>
<path opacity="0.2" d="M203.892 216.453L211.023 225.271C209.205 232.081 207.083 239.734 204.753 247.552C203.415 237.242 203.127 226.822 203.892 216.453Z" fill="#263238"/>
<path d="M172.01 339.91L184.185 342.571C184.428 342.625 184.682 342.587 184.899 342.465C185.115 342.343 185.279 342.145 185.359 341.91L186.699 337.988C186.745 337.855 186.763 337.714 186.751 337.574C186.739 337.433 186.697 337.297 186.629 337.174C186.561 337.051 186.468 336.944 186.355 336.859C186.243 336.774 186.114 336.715 185.977 336.683L172.767 333.596C172.628 333.563 172.483 333.56 172.343 333.587C172.203 333.614 172.07 333.671 171.953 333.753C171.837 333.835 171.739 333.941 171.666 334.064C171.593 334.187 171.548 334.324 171.532 334.466L171.227 338.814C171.2 339.061 171.265 339.309 171.409 339.512C171.554 339.714 171.768 339.856 172.01 339.91Z" fill="#263238"/>
<path opacity="0.1" d="M172.01 339.91L184.185 342.571C184.428 342.625 184.682 342.587 184.899 342.465C185.115 342.343 185.279 342.145 185.359 341.91L186.699 337.988C186.745 337.855 186.763 337.714 186.751 337.574C186.739 337.433 186.697 337.297 186.629 337.174C186.561 337.051 186.468 336.944 186.355 336.859C186.243 336.774 186.114 336.715 185.977 336.683L172.767 333.596C172.628 333.563 172.483 333.56 172.343 333.587C172.203 333.614 172.07 333.671 171.953 333.753C171.837 333.835 171.739 333.941 171.666 334.064C171.593 334.187 171.548 334.324 171.532 334.466L171.227 338.814C171.2 339.061 171.265 339.309 171.409 339.512C171.554 339.714 171.768 339.856 172.01 339.91Z" fill="white"/>
<path d="M232.051 334.614L232.599 353.251L223.685 353.129L223.137 334.492L232.051 334.614Z" fill="#7F3E3B"/>
<path d="M223.459 349.302L232.938 349.442C233.092 349.441 233.241 349.497 233.355 349.6C233.469 349.703 233.541 349.845 233.556 349.998L234.321 357.164C234.336 357.345 234.312 357.528 234.252 357.7C234.192 357.871 234.097 358.029 233.972 358.161C233.848 358.294 233.697 358.399 233.529 358.47C233.362 358.541 233.181 358.576 232.999 358.573C229.851 358.477 228.86 358.216 224.885 358.156C220.241 358.077 219.241 358.66 213.797 358.582C210.501 358.53 209.971 355.19 211.379 354.894C215.12 354.147 218.597 352.425 221.459 349.902C222.025 349.455 222.74 349.241 223.459 349.302Z" fill="#263238"/>
<path opacity="0.2" d="M232.06 334.623L232.338 344.224L223.416 344.102L223.137 334.492L232.06 334.623Z" fill="black"/>
<path d="M229.834 265.059C227.312 233.168 229.443 215.966 225.738 200.13L198.987 198.469C198.987 198.469 207.292 245.343 211.875 266.546C216.459 287.748 221.389 339.249 221.389 339.249L234.539 339.414C234.539 339.414 236.148 289.939 229.834 265.059Z" fill="#263238"/>
<path d="M221.424 341.615L233.869 341.806C234.126 341.809 234.375 341.713 234.564 341.539C234.753 341.364 234.869 341.124 234.886 340.867L235.156 336.762C235.167 336.626 235.15 336.49 235.106 336.361C235.062 336.233 234.992 336.114 234.901 336.013C234.81 335.912 234.699 335.831 234.575 335.774C234.452 335.718 234.318 335.687 234.182 335.684L220.641 335.266C220.491 335.261 220.341 335.29 220.203 335.35C220.065 335.411 219.943 335.502 219.845 335.616C219.747 335.731 219.676 335.866 219.638 336.012C219.6 336.157 219.595 336.31 219.624 336.458L220.493 340.806C220.54 341.023 220.656 341.22 220.824 341.366C220.992 341.512 221.202 341.599 221.424 341.615Z" fill="#263238"/>
<path opacity="0.1" d="M221.424 341.615L233.869 341.806C234.126 341.809 234.375 341.713 234.564 341.539C234.753 341.364 234.869 341.124 234.886 340.867L235.156 336.762C235.167 336.626 235.15 336.49 235.106 336.361C235.062 336.233 234.992 336.114 234.901 336.013C234.81 335.912 234.699 335.831 234.575 335.774C234.452 335.718 234.318 335.687 234.182 335.684L220.641 335.266C220.491 335.261 220.341 335.29 220.203 335.35C220.065 335.411 219.943 335.502 219.845 335.616C219.747 335.731 219.676 335.866 219.638 336.012C219.6 336.157 219.595 336.31 219.624 336.458L220.493 340.806C220.54 341.023 220.656 341.22 220.824 341.366C220.992 341.512 221.202 341.599 221.424 341.615Z" fill="white"/>
<path d="M198.126 149.411C197.1 151.629 196.03 153.594 194.865 155.621C193.699 157.647 192.473 159.612 191.116 161.543C189.745 163.536 188.246 165.439 186.629 167.239C184.835 169.312 182.732 171.095 180.394 172.527L180.089 172.701C179.569 173.007 178.99 173.199 178.391 173.265C177.791 173.331 177.184 173.269 176.611 173.083C174.915 172.535 173.271 171.918 171.662 171.257C170.053 170.596 168.488 169.866 166.949 169.1C165.409 168.335 163.905 167.526 162.426 166.657C160.948 165.787 159.504 164.917 158.078 163.865C157.567 163.503 157.199 162.974 157.037 162.369C156.875 161.765 156.929 161.122 157.19 160.553C157.451 159.984 157.902 159.524 158.466 159.252C159.03 158.98 159.671 158.914 160.278 159.064H160.374C161.931 159.438 163.54 159.891 165.105 160.299L169.81 161.543C171.366 161.969 172.932 162.326 174.471 162.708C176.01 163.091 177.55 163.387 179.063 163.7L175.315 164.265C176.617 163.185 177.785 161.953 178.793 160.595C179.985 159.064 181.133 157.377 182.272 155.638C183.411 153.899 184.446 152.081 185.472 150.237C186.499 148.394 187.542 146.489 188.464 144.732L188.516 144.637C189.209 143.482 190.312 142.631 191.605 142.253C192.897 141.875 194.284 141.997 195.491 142.596C196.697 143.195 197.633 144.226 198.114 145.484C198.594 146.742 198.583 148.135 198.082 149.385L198.126 149.411Z" fill="#7F3E3B"/>
<path d="M200.265 134.21C189.882 135.393 182.002 151.473 182.002 151.473L192.717 162.874C192.717 162.874 197.491 157.186 202.622 149.994C208.223 142.159 208.484 133.279 200.265 134.21Z" fill="#407BFF"/>
<path d="M198.987 136.619C202.979 135.201 220.859 137.488 220.859 137.488C217.38 141.976 214.476 179.136 214.154 200.495C210.353 201.017 195.778 200.017 192.412 199.234C192.847 190.851 196.343 151.525 198.987 136.619Z" fill="white"/>
<path d="M187.447 147.89C187.916 144.025 189.788 140.468 192.707 137.893C195.627 135.318 199.39 133.905 203.283 133.923C210.754 133.983 218.199 134.804 225.503 136.375C226.641 136.616 227.718 137.083 228.672 137.747C229.627 138.412 230.438 139.261 231.058 140.244C231.678 141.228 232.095 142.326 232.284 143.473C232.472 144.621 232.429 145.794 232.156 146.924C226.651 170.014 228.103 191.921 226.634 202.113C221.394 204.04 215.828 204.926 210.249 204.722C210.249 204.722 210.38 195.93 211.606 181.085C212.58 169.283 214.328 141.533 217.928 136.923C217.928 136.923 205.022 135.184 201.031 136.584C198.065 153.325 195.891 204.035 195.891 204.044C189.577 203.591 186.603 200.078 186.699 199.034C185.42 178.519 186.064 159.917 187.447 147.89Z" fill="#407BFF"/>
<path d="M218.389 122.208C217.18 125.687 215.78 131.853 218.015 135.314C218.128 135.475 218.205 135.659 218.238 135.853C218.272 136.047 218.262 136.246 218.21 136.435C218.158 136.625 218.064 136.801 217.935 136.95C217.807 137.099 217.647 137.217 217.467 137.297C213.875 139.369 209.723 140.263 205.596 139.854C199.987 139.402 200.378 136.871 201.822 135.227C202.163 134.848 202.636 134.612 203.144 134.566C208.44 133.932 208.492 130.74 207.727 127.609L218.389 122.208Z" fill="#7F3E3B"/>
<path opacity="0.2" d="M214.041 124.426L207.736 127.635C207.935 128.376 208.049 129.138 208.075 129.905C210.371 129.905 213.623 128.366 213.997 126.6C214.19 125.89 214.204 125.144 214.041 124.426Z" fill="black"/>
<path d="M209.981 110.117C210.218 106.98 208.512 104.293 206.17 104.116C203.828 103.939 201.737 106.339 201.5 109.476C201.263 112.613 202.969 115.3 205.311 115.477C207.653 115.654 209.744 113.254 209.981 110.117Z" fill="#263238"/>
<path d="M221.798 112.703C220.633 119.565 220.294 123.643 216.485 126.835C210.754 131.627 202.709 127.574 201.84 120.504C201.048 114.147 203.083 103.98 210.023 101.928C216.963 99.8755 222.964 105.833 221.798 112.703Z" fill="#7F3E3B"/>
<path d="M220.302 118.504C220.215 118.504 220.111 118.391 220.015 118.443C216.902 120.182 215.893 116.443 216.085 113.955C216.148 113.126 216.387 112.319 216.784 111.587C217.181 110.856 217.728 110.217 218.389 109.711C215.015 110.094 211.745 107.92 211.693 105.894C207.962 107.537 203.466 107.633 201.439 104.154C199.413 100.676 202.309 96.1273 206.17 97.3361C204.605 94.5358 211.223 88.9352 218.154 97.197C218.372 91.205 228.06 97.197 226.468 103.085C230.956 104.633 234.8 113.155 227.19 114.973C226.686 122.869 220.302 118.504 220.302 118.504Z" fill="#263238"/>
<path d="M223.972 120.66C222.919 121.953 221.415 122.798 219.763 123.026C217.676 123.261 217.215 121.139 218.285 119.208C219.25 117.469 221.494 115.26 223.355 115.938C225.216 116.616 225.329 119.008 223.972 120.66Z" fill="#7F3E3B"/>
<path d="M211.849 113.216C211.797 113.79 211.458 114.216 211.084 114.181C210.71 114.147 210.449 113.66 210.501 113.086C210.553 112.512 210.893 112.094 211.267 112.129C211.641 112.164 211.893 112.651 211.849 113.216Z" fill="#263238"/>
<path d="M205.109 112.468C205.057 113.033 204.718 113.459 204.344 113.424C203.97 113.39 203.718 112.903 203.761 112.337C203.805 111.772 204.153 111.337 204.527 111.372C204.901 111.407 205.196 111.894 205.109 112.468Z" fill="#263238"/>
<path d="M207.744 112.79C206.913 114.457 205.857 116.002 204.605 117.382C204.966 117.696 205.391 117.928 205.85 118.062C206.31 118.196 206.793 118.228 207.266 118.156L207.744 112.79Z" fill="#630F0F"/>
<path d="M209.023 120.922C209.654 120.966 210.288 120.882 210.886 120.674C211.484 120.466 212.034 120.139 212.502 119.713C212.517 119.697 212.529 119.678 212.537 119.657C212.545 119.637 212.549 119.615 212.549 119.592C212.549 119.57 212.544 119.548 212.535 119.528C212.526 119.507 212.513 119.489 212.497 119.474C212.481 119.458 212.462 119.446 212.442 119.438C212.421 119.43 212.399 119.426 212.377 119.426C212.355 119.427 212.333 119.431 212.312 119.44C212.292 119.449 212.274 119.462 212.258 119.478C211.728 119.947 211.095 120.283 210.411 120.46C209.726 120.637 209.009 120.649 208.319 120.496C208.297 120.49 208.275 120.49 208.254 120.494C208.232 120.498 208.212 120.506 208.194 120.518C208.176 120.531 208.161 120.547 208.149 120.565C208.138 120.584 208.13 120.604 208.127 120.626C208.119 120.67 208.129 120.715 208.153 120.752C208.177 120.789 208.215 120.816 208.258 120.826C208.536 120.869 208.78 120.904 209.023 120.922Z" fill="#263238"/>
<path d="M214.076 111.833C214.13 111.846 214.186 111.846 214.241 111.833C214.281 111.815 214.318 111.789 214.348 111.757C214.378 111.725 214.402 111.687 214.417 111.646C214.432 111.605 214.439 111.561 214.437 111.517C214.436 111.473 214.425 111.429 214.406 111.39C214.202 110.898 213.884 110.461 213.479 110.115C213.074 109.769 212.593 109.523 212.075 109.398C211.988 109.385 211.899 109.407 211.827 109.459C211.756 109.511 211.708 109.589 211.693 109.676C211.68 109.764 211.702 109.853 211.754 109.924C211.806 109.996 211.884 110.044 211.971 110.059C212.379 110.164 212.757 110.364 213.074 110.642C213.392 110.92 213.639 111.268 213.797 111.659C213.826 111.708 213.867 111.75 213.915 111.78C213.964 111.81 214.019 111.828 214.076 111.833Z" fill="#263238"/>
<path d="M202.283 109.694C202.337 109.708 202.393 109.709 202.448 109.697C202.502 109.685 202.553 109.66 202.596 109.624C202.906 109.344 203.278 109.14 203.681 109.029C204.084 108.919 204.508 108.905 204.918 108.99C205.002 109.014 205.092 109.003 205.169 108.961C205.246 108.919 205.302 108.848 205.327 108.763C205.351 108.678 205.341 108.587 205.299 108.509C205.257 108.43 205.185 108.372 205.101 108.346C204.583 108.228 204.045 108.237 203.532 108.372C203.018 108.506 202.545 108.763 202.152 109.12C202.121 109.151 202.097 109.187 202.08 109.228C202.063 109.268 202.054 109.311 202.054 109.355C202.054 109.398 202.063 109.442 202.08 109.482C202.097 109.522 202.121 109.559 202.152 109.59C202.186 109.636 202.231 109.672 202.283 109.694Z" fill="#263238"/>
<path d="M234.225 146.455C234.791 147.559 235.252 148.516 235.704 149.551C236.156 150.586 236.574 151.586 237.026 152.612C237.895 154.664 238.652 156.751 239.365 158.865C240.816 163.139 241.926 167.521 242.687 171.97L242.922 173.71L243.044 174.579V174.788V175.171C243.044 175.449 243.087 175.727 243.087 176.04C243.054 177.626 242.739 179.192 242.157 180.667C241.291 182.919 240.189 185.074 238.869 187.094C237.672 188.985 236.374 190.811 234.982 192.564C233.618 194.309 232.167 195.984 230.634 197.582C230.193 198.048 229.6 198.341 228.962 198.407C228.324 198.473 227.683 198.308 227.156 197.941C226.63 197.575 226.252 197.031 226.093 196.41C225.933 195.789 226.001 195.131 226.285 194.556V194.486C228.086 190.738 229.99 186.946 231.503 183.25C231.895 182.328 232.243 181.406 232.547 180.511C232.85 179.674 233.103 178.82 233.304 177.954C233.445 177.415 233.495 176.857 233.451 176.301L233.408 176.127L233.243 175.406L232.921 173.971C231.918 170.076 230.689 166.243 229.242 162.491C228.547 160.578 227.755 158.691 226.99 156.795C226.607 155.856 226.199 154.916 225.79 153.986L224.572 151.273L224.503 151.116C223.891 149.836 223.814 148.366 224.287 147.028C224.76 145.691 225.745 144.596 227.025 143.985C228.305 143.374 229.775 143.296 231.113 143.769C232.45 144.242 233.545 145.227 234.156 146.507L234.225 146.455Z" fill="#7F3E3B"/>
<path d="M226.399 136.619C237.982 139.541 241.183 154.351 241.183 154.351L226.799 164.665C226.799 164.665 223.233 160.934 222.155 152.168C221.659 147.985 224.051 136.505 226.399 136.619Z" fill="#407BFF"/>
<path d="M228.181 192.712L221.485 195.217L226.616 202.087C226.616 202.087 232.399 199.087 231.304 195.756L228.181 192.712Z" fill="#7F3E3B"/>
<path d="M216.502 196.191C214.698 195.887 212.847 196.055 211.127 196.678L214.45 176.936C214.706 175.395 214.342 173.814 213.435 172.541C212.529 171.268 211.155 170.406 209.614 170.144L151.869 160.421C150.33 160.167 148.753 160.532 147.482 161.436C146.211 162.34 145.349 163.711 145.086 165.248L141.711 185.033C143.429 184.402 145.283 184.234 147.086 184.546C148.689 184.815 150.21 185.448 151.53 186.397C152.85 187.346 153.935 188.585 154.701 190.019C155.467 191.453 155.894 193.044 155.949 194.669C156.003 196.294 155.684 197.91 155.017 199.392C154.349 200.875 153.349 202.184 152.096 203.22C150.843 204.255 149.368 204.989 147.786 205.365C146.205 205.742 144.558 205.75 142.972 205.39C141.387 205.029 139.905 204.31 138.641 203.287L135.311 223.028C135.054 224.57 135.418 226.15 136.325 227.423C137.231 228.696 138.605 229.558 140.146 229.82L197.891 239.543C199.431 239.798 201.009 239.433 202.282 238.529C203.554 237.625 204.417 236.254 204.683 234.716L208.005 214.966C209.271 215.973 210.749 216.678 212.328 217.027C213.907 217.376 215.544 217.36 217.116 216.981C218.688 216.601 220.152 215.868 221.398 214.837C222.643 213.806 223.637 212.505 224.304 211.031C224.97 209.558 225.292 207.953 225.244 206.336C225.197 204.72 224.781 203.136 224.028 201.705C223.276 200.274 222.207 199.033 220.903 198.078C219.598 197.122 218.093 196.477 216.502 196.191Z" fill="#407BFF"/>
<path opacity="0.6" d="M216.502 196.191C214.698 195.887 212.847 196.055 211.127 196.678L214.45 176.936C214.706 175.395 214.342 173.814 213.435 172.541C212.529 171.268 211.155 170.406 209.614 170.144L151.869 160.421C150.33 160.167 148.753 160.532 147.482 161.436C146.211 162.34 145.349 163.711 145.086 165.248L141.711 185.033C143.429 184.402 145.283 184.234 147.086 184.546C148.689 184.815 150.21 185.448 151.53 186.397C152.85 187.346 153.935 188.585 154.701 190.019C155.467 191.453 155.894 193.044 155.949 194.669C156.003 196.294 155.684 197.91 155.017 199.392C154.349 200.875 153.349 202.184 152.096 203.22C150.843 204.255 149.368 204.989 147.786 205.365C146.205 205.742 144.558 205.75 142.972 205.39C141.387 205.029 139.905 204.31 138.641 203.287L135.311 223.028C135.054 224.57 135.418 226.15 136.325 227.423C137.231 228.696 138.605 229.558 140.146 229.82L197.891 239.543C199.431 239.798 201.009 239.433 202.282 238.529C203.554 237.625 204.417 236.254 204.683 234.716L208.005 214.966C209.271 215.973 210.749 216.678 212.328 217.027C213.907 217.376 215.544 217.36 217.116 216.981C218.688 216.601 220.152 215.868 221.398 214.837C222.643 213.806 223.637 212.505 224.304 211.031C224.97 209.558 225.292 207.953 225.244 206.336C225.197 204.72 224.781 203.136 224.028 201.705C223.276 200.274 222.207 199.033 220.903 198.078C219.598 197.122 218.093 196.477 216.502 196.191Z" fill="white"/>
<path d="M218.354 201.965L220.555 204.069C220.978 204.477 221.533 204.72 222.12 204.755C222.706 204.79 223.286 204.615 223.755 204.261L226.616 202.112L221.485 195.242L218.311 198.425C218.077 198.658 217.893 198.936 217.768 199.241C217.644 199.547 217.582 199.874 217.586 200.204C217.59 200.534 217.66 200.86 217.792 201.162C217.924 201.465 218.115 201.737 218.354 201.965Z" fill="#7F3E3B"/>
<path d="M153.887 162.274L154.687 159.308C154.821 158.959 155.06 158.661 155.372 158.455C155.684 158.249 156.053 158.146 156.426 158.16C157.559 158.114 158.69 158.288 159.757 158.673L164.279 160.343L164.062 162.187C163.879 163.769 162.114 165.091 160.113 165.152C158.771 165.17 157.43 165.027 156.122 164.726L155.635 164.622C155.357 164.602 155.088 164.523 154.844 164.39C154.6 164.256 154.388 164.072 154.222 163.849C154.056 163.626 153.94 163.37 153.882 163.098C153.824 162.826 153.826 162.545 153.887 162.274Z" fill="#7F3E3B"/>
<path d="M82.6527 121.339C85.5487 117.973 89.9057 109.233 81.7135 105.894C75.6694 103.424 62.8419 104.685 55.4759 116.156C50.4406 117.895 48.9534 129.096 60.5808 131.453C72.2081 133.81 82.6527 121.339 82.6527 121.339Z" fill="#263238"/>
<path d="M108.925 337.145L95.6367 338.25L97.8891 353.869L108.995 352.964L108.925 337.145Z" fill="#FFC3BD"/>
<path opacity="0.2" d="M108.925 337.153L95.6282 338.258L96.8979 347.007L108.969 346.006L108.925 337.153Z" fill="black"/>
<path d="M83.5224 291.166C78.3045 271.164 64.79 247.352 73.3561 228.107L110.586 227.994C110.586 227.994 111.508 267.607 111.769 286.261C112.03 305.767 110.404 342.467 110.404 342.467L95.1759 343.624C95.1759 343.624 84.74 313.594 83.5224 291.166Z" fill="#407BFF"/>
<path d="M94.4193 344.224L110.873 343.015C111.014 343.003 111.145 342.941 111.244 342.841C111.343 342.74 111.403 342.608 111.412 342.467L111.76 336.38C111.766 336.295 111.753 336.211 111.722 336.132C111.691 336.053 111.644 335.982 111.582 335.924C111.521 335.865 111.447 335.822 111.366 335.795C111.286 335.769 111.201 335.761 111.117 335.771L92.8539 338.197C92.7709 338.206 92.6909 338.234 92.6198 338.277C92.5486 338.321 92.4879 338.38 92.4422 338.45C92.3965 338.519 92.3668 338.599 92.3553 338.681C92.3437 338.764 92.3507 338.848 92.3756 338.928L93.8192 343.815C93.8595 343.94 93.9405 344.049 94.0491 344.123C94.1578 344.197 94.288 344.232 94.4193 344.224Z" fill="#263238"/>
<path opacity="0.2" d="M73.2254 247.039C73.0812 251.763 73.273 256.491 73.7994 261.188C75.617 267.476 77.9389 273.772 80.0261 279.877C82.7569 262.588 82.7655 242.438 73.2254 247.039Z" fill="black"/>
<path d="M59.7374 338.119L46.3968 338.249L46.3794 353.99L57.5284 353.903L59.7374 338.119Z" fill="#FFC3BD"/>
<path d="M45.3269 351.572C45.34 351.485 45.3713 351.401 45.4188 351.326C45.4663 351.251 45.5289 351.187 45.6026 351.138C45.6764 351.089 45.7595 351.056 45.8469 351.041C45.9342 351.025 46.0237 351.029 46.1096 351.05C49.4578 352.381 55.8063 351.364 58.2066 350.903C58.4715 350.848 58.7448 350.848 59.0096 350.904C59.2744 350.959 59.525 351.068 59.7459 351.224C61.7092 352.484 63.8367 353.467 66.0683 354.146C66.547 355.426 66.6673 356.812 66.4161 358.156H43.9268C44.5613 356 45.0294 353.799 45.3269 351.572Z" fill="#263238"/>
<path d="M96.4194 351.572C96.4325 351.485 96.4638 351.401 96.5113 351.326C96.5588 351.251 96.6214 351.187 96.6952 351.138C96.7689 351.089 96.8521 351.056 96.9394 351.041C97.0267 351.025 97.1162 351.029 97.2021 351.05C100.55 352.381 106.899 351.364 109.299 350.903C109.564 350.848 109.837 350.848 110.102 350.904C110.367 350.959 110.618 351.068 110.838 351.224C113.395 353.033 120.213 354.146 120.213 354.146C120.692 355.426 120.81 356.813 120.552 358.156H95.0193C95.6538 356 96.1219 353.799 96.4194 351.572Z" fill="#263238"/>
<path opacity="0.2" d="M59.7374 338.127L46.3881 338.249L46.3794 347.068L58.5024 346.963L59.7374 338.127Z" fill="black"/>
<path d="M44.5183 284.695C42.7094 264.493 37.0393 237.282 43.4747 227.994H87.0447C87.0447 227.994 78.1654 268.276 74.5216 286.922C70.7386 306.306 59.8591 343.528 59.8591 343.528L45.4315 343.571C45.4315 343.571 39.9613 307.759 44.5183 284.695Z" fill="#407BFF"/>
<path opacity="0.2" d="M47.1358 339.44C47.042 339.439 46.9512 339.408 46.8762 339.352C46.8012 339.296 46.7459 339.217 46.7183 339.127C45.6835 335.649 45.8487 295.688 48.4577 284.748C48.4577 283.304 48.1533 280.469 47.8054 276.877C46.614 264.702 44.4051 242.091 47.7011 229.263C47.7299 229.148 47.8034 229.049 47.9053 228.988C48.0072 228.927 48.1293 228.908 48.2446 228.937C48.3599 228.966 48.4591 229.04 48.5202 229.141C48.5814 229.243 48.5996 229.365 48.5707 229.481C45.3095 242.169 47.5097 264.693 48.6925 276.799C49.049 280.451 49.336 283.33 49.3534 284.791C49.3577 284.829 49.3577 284.867 49.3534 284.904C46.8488 295.253 46.6053 335.518 47.6141 338.884C47.6467 338.993 47.6349 339.111 47.5812 339.212C47.5275 339.313 47.4362 339.389 47.3271 339.423C47.2663 339.447 47.1999 339.453 47.1358 339.44Z" fill="white"/>
<path d="M44.4312 344.11H60.7721C60.9027 344.114 61.0303 344.07 61.1311 343.987C61.2318 343.904 61.299 343.787 61.32 343.658L62.3984 337.858C62.4139 337.77 62.4097 337.68 62.386 337.594C62.3623 337.508 62.3198 337.428 62.2615 337.361C62.2032 337.293 62.1306 337.239 62.049 337.204C61.9673 337.168 61.8787 337.15 61.7896 337.153L43.9964 337.944C43.9213 337.947 43.8474 337.964 43.7794 337.996C43.7113 338.028 43.6505 338.073 43.6008 338.129C43.551 338.186 43.5134 338.251 43.4902 338.323C43.467 338.394 43.4587 338.47 43.4659 338.545L43.8311 343.554C43.8441 343.705 43.9127 343.845 44.0237 343.948C44.1346 344.051 44.2799 344.109 44.4312 344.11Z" fill="#263238"/>
<path d="M101.846 157.63C102.716 161.108 103.516 164.587 104.29 168.065C105.064 171.544 105.794 175.023 106.473 178.501L107.516 183.719L108.49 188.937C109.16 192.416 109.751 195.947 110.36 199.46L108.943 196.286C109.132 196.937 109.541 197.502 110.099 197.886C111.212 198.638 112.467 199.156 113.787 199.408C115.546 199.814 117.339 200.05 119.144 200.112C120.109 200.165 121.1 200.199 122.1 200.182C122.596 200.182 123.101 200.182 123.605 200.182C124.109 200.182 124.657 200.182 125.005 200.182L126.24 200.269C127.279 200.336 128.268 200.738 129.059 201.416C129.849 202.094 130.397 203.011 130.621 204.028C130.845 205.045 130.732 206.107 130.299 207.054C129.867 208.001 129.138 208.782 128.223 209.279C127.527 209.661 127.031 209.948 126.44 210.253C125.849 210.557 125.301 210.818 124.701 211.122C123.535 211.627 122.344 212.105 121.109 212.505C119.856 212.916 118.581 213.258 117.291 213.531C115.932 213.802 114.559 213.994 113.178 214.105C111.686 214.212 110.187 214.188 108.699 214.036C107.045 213.897 105.415 213.552 103.846 213.009C102.087 212.423 100.416 211.598 98.8806 210.557C97.2616 209.436 95.8195 208.078 94.6019 206.531C94.0766 205.878 93.6864 205.127 93.4539 204.322L93.1843 203.356C92.2277 199.93 91.245 196.512 90.3405 193.068L88.9578 187.92L87.6446 182.754C86.7749 179.275 85.9053 175.849 85.1139 172.388C84.3225 168.926 83.5311 165.43 82.8441 161.952C82.3517 159.463 82.8502 156.88 84.2335 154.752C85.6167 152.625 87.7754 151.122 90.2503 150.562C92.7252 150.002 95.3208 150.43 97.4849 151.755C99.6489 153.08 101.211 155.197 101.837 157.656L101.846 157.63Z" fill="#FFC3BD"/>
<path d="M124.396 201.043L124.579 206.661C126.849 212.113 133.354 207.974 133.354 207.974L137.285 207.252C137.969 207.078 138.57 206.667 138.98 206.092C139.391 205.518 139.585 204.817 139.528 204.113L139.424 200.182C139.45 199.37 139.159 198.581 138.611 197.981C138.064 197.382 137.304 197.02 136.493 196.973L133.015 197.042C131.999 197.06 131.004 197.329 130.119 197.825L124.396 201.043Z" fill="#FFC3BD"/>
<path d="M95.1844 147.941C103.185 152.15 108.412 167.004 108.412 167.004C106.725 173.961 99.9241 186.65 93.6278 186.571C93.6278 186.571 84.3833 174.648 83.3832 166.021C82.1656 155.594 79.0088 139.436 95.1844 147.941Z" fill="#263238"/>
<path d="M87.7926 145.472C75.445 144.298 63.0054 144.496 50.7016 146.063C43.5878 147.063 38.5264 151.49 39.3961 166.065C41.1354 195.634 38.4394 218.68 42.1964 229.307C42.1964 229.307 96.9153 244.961 112.517 229.959C116.309 194.381 103.542 164.848 97.7328 152.559C96.8231 150.625 95.4309 148.956 93.69 147.715C91.9492 146.474 89.9183 145.701 87.7926 145.472Z" fill="#263238"/>
<path d="M83.6788 148.707C82.2613 147.315 80.7742 148.124 80.0871 146.028C79.7842 144.383 80.0608 142.683 80.8698 141.219L63.9897 132.105C64.3202 138.314 64.5724 143.219 61.8156 145.689C61.0155 150.316 69.6425 154.934 81.1307 155.003C88.4446 155.047 85.7225 150.707 83.6788 148.707Z" fill="#FFC3BD"/>
<path opacity="0.2" d="M80.6179 141.741L67.2947 138.41C70.6603 143.706 76.7218 146.602 79.983 145.324C79.8898 144.095 80.1081 142.863 80.6179 141.741Z" fill="black"/>
<path d="M75.1042 111.355C66.2859 109.398 58.6677 116.721 60.3722 124.704C62.0767 132.688 63.4247 138.08 68.947 140.793C79.9221 146.202 85.2792 140.984 86.175 132.644C86.9837 125.13 84.053 113.329 75.1042 111.355Z" fill="#FFC3BD"/>
<path opacity="0.2" d="M73.3735 125.531C72.3373 125.271 71.2406 125.431 70.321 125.974C71.3578 126.029 72.3952 125.878 73.3735 125.531Z" fill="black"/>
<path opacity="0.2" d="M73.4342 126.269C72.9468 126.246 72.4604 126.331 72.0094 126.518C71.5585 126.704 71.1542 126.987 70.8252 127.348C71.7628 127.182 72.6531 126.814 73.4342 126.269Z" fill="black"/>
<path d="M61.4851 131.453C66.4161 132.558 68.4424 130.088 68.4424 127.322C68.4424 124.383 65.6682 119.417 62.6244 118.504C63.7114 111.981 81.6873 121.113 79.9741 112.077C79.9741 112.077 79.4871 110.529 74.8431 109.659C70.1991 108.79 57.7891 111.59 58.6587 120.869C59.5284 130.149 61.4851 131.453 61.4851 131.453Z" fill="#263238"/>
<path d="M55.2063 116.616C56.4133 114.194 56.754 111.432 56.1716 108.789C56.1716 108.789 61.5809 112.363 55.2063 116.616Z" fill="#263238"/>
<path d="M77.8871 133.931C78.2559 133.903 78.6222 133.848 78.9829 133.766C79.0109 133.76 79.0374 133.748 79.061 133.732C79.0845 133.715 79.1045 133.694 79.1198 133.67C79.1352 133.646 79.1456 133.619 79.1505 133.59C79.1553 133.562 79.1545 133.533 79.1481 133.505C79.1431 133.476 79.1321 133.449 79.116 133.425C79.0998 133.401 79.0787 133.38 79.0542 133.365C79.0296 133.349 79.0021 133.339 78.9733 133.335C78.9446 133.33 78.9152 133.332 78.8872 133.34C77.9841 133.56 77.042 133.566 76.136 133.358C75.2301 133.15 74.3854 132.733 73.6692 132.14C73.649 132.119 73.6246 132.102 73.5978 132.091C73.5709 132.079 73.5419 132.073 73.5127 132.073C73.4835 132.073 73.4546 132.079 73.4277 132.091C73.4008 132.102 73.3764 132.119 73.3562 132.14C73.3158 132.182 73.2932 132.238 73.2932 132.296C73.2932 132.355 73.3158 132.411 73.3562 132.453C73.9758 132.987 74.6954 133.393 75.4732 133.647C76.2511 133.901 77.0716 133.997 77.8871 133.931Z" fill="#263238"/>
<path d="M58.3633 131.836C58.9276 132.601 59.6377 133.246 60.4526 133.736C61.2675 134.226 62.1712 134.549 63.1116 134.688C65.6423 135.036 66.5903 132.697 65.6162 130.488C64.7466 128.496 62.3811 125.922 59.9808 126.583C57.5806 127.244 56.9892 129.931 58.3633 131.836Z" fill="#FFC3BD"/>
<path d="M74.8083 125.617C74.9127 126.322 75.3649 126.844 75.8258 126.774C76.2867 126.704 76.5824 126.07 76.478 125.365C76.3737 124.661 75.9302 124.148 75.4692 124.217C75.0083 124.287 74.7474 124.878 74.8083 125.617Z" fill="#263238"/>
<path d="M83.0961 124.505C83.2005 125.218 83.6527 125.731 84.1136 125.661C84.5745 125.592 84.8702 124.965 84.7658 124.261C84.6615 123.557 84.218 123.035 83.757 123.104C83.2961 123.174 83.0004 123.8 83.0961 124.505Z" fill="#263238"/>
<path d="M79.9656 125.435L80.3656 131.4C80.3656 131.4 82.3223 131.74 83.3833 130.609C82.7098 128.618 81.5324 126.835 79.9656 125.435Z" fill="#ED847E"/>
<path d="M72.0778 124.008C72.0066 124.028 71.9315 124.027 71.8604 124.008C71.7894 123.988 71.725 123.949 71.6742 123.895C71.6233 123.842 71.5879 123.776 71.5717 123.704C71.5555 123.632 71.5591 123.557 71.5821 123.487C71.7475 122.84 72.0639 122.242 72.5054 121.742C72.9468 121.241 73.5007 120.853 74.1215 120.608C74.2265 120.575 74.3402 120.585 74.4379 120.635C74.5356 120.686 74.6094 120.773 74.6433 120.878C74.6765 120.984 74.6668 121.099 74.6165 121.198C74.5661 121.297 74.479 121.372 74.3737 121.408C73.8836 121.608 73.4477 121.921 73.1016 122.321C72.7554 122.722 72.5089 123.199 72.3822 123.713C72.3625 123.785 72.3239 123.85 72.2704 123.902C72.2169 123.954 72.1504 123.991 72.0778 124.008Z" fill="#263238"/>
<path d="M85.8183 121.339C85.7495 121.345 85.6804 121.333 85.6177 121.304C85.5551 121.275 85.5013 121.23 85.4617 121.174C85.1639 120.742 84.7668 120.387 84.3038 120.141C83.8407 119.894 83.3252 119.762 82.8006 119.756C82.6852 119.756 82.5746 119.71 82.4931 119.629C82.4115 119.547 82.3657 119.437 82.3657 119.321C82.3657 119.206 82.4115 119.095 82.4931 119.014C82.5746 118.932 82.6852 118.886 82.8006 118.886C83.4631 118.881 84.117 119.037 84.7062 119.34C85.2954 119.642 85.8023 120.084 86.1835 120.626C86.2155 120.67 86.2384 120.721 86.2509 120.774C86.2634 120.827 86.2653 120.883 86.2564 120.937C86.2475 120.991 86.2281 121.043 86.1992 121.089C86.1702 121.136 86.1324 121.176 86.0879 121.208C86.0543 121.247 86.0131 121.279 85.9667 121.302C85.9203 121.324 85.8698 121.337 85.8183 121.339Z" fill="#263238"/>
<path d="M136.493 178.214C134.673 178.343 132.916 178.942 131.397 179.954L129.823 159.952C129.694 158.396 128.956 156.954 127.768 155.94C126.58 154.927 125.04 154.424 123.483 154.542L65.103 159.143C63.548 159.274 62.1075 160.013 61.0946 161.2C60.0817 162.387 59.5782 163.926 59.6937 165.483L64.3029 223.863C64.4272 225.42 65.1647 226.865 66.3534 227.879C67.5422 228.894 69.0849 229.395 70.6427 229.272L129.014 224.663C130.572 224.536 132.016 223.799 133.031 222.611C134.046 221.423 134.55 219.881 134.432 218.323L132.849 198.364C134.507 199.141 136.339 199.471 138.163 199.321C140.783 198.88 143.143 197.473 144.778 195.378C146.412 193.283 147.203 190.652 146.993 188.003C146.784 185.354 145.589 182.88 143.646 181.068C141.702 179.256 139.15 178.238 136.493 178.214Z" fill="#407BFF"/>
<path d="M51.8407 170.231L50.971 171.831L49.9709 173.623C49.3274 174.84 48.6664 176.058 48.0664 177.293C46.8605 179.699 45.7807 182.166 44.8312 184.685C44.3703 185.902 43.9616 187.111 43.6572 188.303C43.31 189.443 43.0369 190.605 42.8397 191.781C42.4748 193.673 42.4131 195.61 42.6571 197.521L40.6569 194.042C41.4896 195.185 42.4825 196.201 43.605 197.06C45.0805 198.238 46.6287 199.321 48.2403 200.304C49.9187 201.382 51.7189 202.417 53.5278 203.452L56.2933 204.991C57.163 205.513 58.2066 206.035 59.0328 206.539L59.4502 206.792C60.3734 207.351 61.0871 208.199 61.4813 209.204C61.8755 210.209 61.9284 211.315 61.6318 212.353C61.3353 213.391 60.7057 214.303 59.84 214.948C58.9744 215.593 57.9207 215.936 56.8412 215.923C55.5194 215.923 54.3888 215.836 53.1713 215.74C51.9537 215.645 50.7971 215.497 49.6144 215.305C47.2106 214.945 44.8317 214.433 42.4919 213.775C40.0154 213.081 37.6011 212.182 35.2737 211.088C32.5224 209.821 29.9939 208.117 27.7859 206.044C26.9914 205.286 26.3943 204.346 26.0466 203.304L25.8031 202.556C24.4413 198.426 23.9324 194.062 24.3073 189.729C24.6027 185.954 25.3263 182.226 26.464 178.615C27.5235 175.221 28.8375 171.913 30.3949 168.718C31.1515 167.152 31.9255 165.604 32.7952 164.1C33.2213 163.343 33.6648 162.587 34.117 161.839L34.8302 160.708L35.2041 160.134L35.6563 159.465C37.0535 157.351 39.2201 155.865 41.6956 155.323C44.1711 154.782 46.7602 155.227 48.9124 156.565C51.0645 157.903 52.61 160.027 53.2202 162.487C53.8304 164.946 53.4572 167.547 52.1799 169.735L51.8407 170.231Z" fill="#FFC3BD"/>
<path d="M45.0486 147.941C30.6296 155.647 25.2551 172.857 25.2551 172.857C28.1076 178.293 45.3095 184.163 51.7797 182.563C51.7797 182.563 57.9804 171.257 59.2588 161.152C60.4415 151.785 53.493 143.428 45.0486 147.941Z" fill="#263238"/>
<path d="M55.1367 207.496L55.4324 213.114C57.8153 218.523 64.2334 214.253 64.2334 214.253L68.1555 213.453C68.8359 213.265 69.4277 212.843 69.8258 212.26C70.2238 211.677 70.4024 210.972 70.3297 210.27L70.1557 206.348C70.1771 205.531 69.8777 204.739 69.3217 204.141C68.7657 203.542 67.9974 203.186 67.1815 203.147L63.7029 203.287C62.686 203.333 61.6967 203.632 60.8243 204.156L55.1367 207.496Z" fill="#FFC3BD"/>
</g>
<defs>
<clipPath id="clip0_1176_59873">
<rect width="400" height="400" fill="white"/>
</clipPath>
</defs>
</svg>
